<?xml version="1.0" encoding="UTF-8" standalone="no"?>
<!-- Created with Inkscape (http://www.inkscape.org/) -->

<svg
   width="1145.8162mm"
   height="826.97723mm"
   viewBox="0 0 1145.8162 826.97723"
   version="1.1"
   id="svg5"
   inkscape:version="1.1 (c4e8f9ed74, 2021-05-24)"
   sodipodi:docname="chess2.svg"
   xmlns:inkscape="http://www.inkscape.org/namespaces/inkscape"
   xmlns:sodipodi="http://sodipodi.sourceforge.net/DTD/sodipodi-0.dtd"
   xmlns="http://www.w3.org/2000/svg"
   xmlns:svg="http://www.w3.org/2000/svg">
  <sodipodi:namedview
     id="namedview7"
     pagecolor="#ffffff"
     bordercolor="#666666"
     borderopacity="1.0"
     inkscape:pageshadow="2"
     inkscape:pageopacity="0.0"
     inkscape:pagecheckerboard="0"
     inkscape:document-units="mm"
     showgrid="false"
     inkscape:zoom="0.17349362"
     inkscape:cx="3149.9718"
     inkscape:cy="1821.3927"
     inkscape:window-width="1920"
     inkscape:window-height="1131"
     inkscape:window-x="0"
     inkscape:window-y="0"
     inkscape:window-maximized="1"
     inkscape:current-layer="layer1"
     fit-margin-top="100"
     fit-margin-left="100"
     fit-margin-right="100"
     fit-margin-bottom="100"
     lock-margins="true" />
  <defs
     id="defs2">
    <rect
       x="10.311979"
       y="282.52121"
       width="200.3856"
       height="1875.0802"
       id="rect51499" />
  </defs>
  <g
     inkscape:label="Layer 1"
     inkscape:groupmode="layer"
     id="layer1"
     transform="translate(302.77467,167.01637)">
    <g
       id="g55718"
       transform="translate(35.669668,-17.701081)">
      <g
         id="g55296"
         style="fill:#808080">
        <rect
           style="fill:#808080;stroke:#000000;stroke-width:0.2;stroke-miterlimit:4;stroke-dasharray:none"
           id="rect31-3-95"
           width="57.547825"
           height="57.547825"
           x="80.85894"
           y="18.766619" />
        <rect
           style="fill:#808080;stroke:#000000;stroke-width:0.2;stroke-miterlimit:4;stroke-dasharray:none"
           id="rect31-7-8"
           width="57.547825"
           height="57.547825"
           x="195.95471"
           y="18.766619" />
        <rect
           style="fill:#808080;stroke:#000000;stroke-width:0.2;stroke-miterlimit:4;stroke-dasharray:none"
           id="rect31-35-17"
           width="57.547825"
           height="57.547825"
           x="311.05048"
           y="18.766619" />
        <rect
           style="fill:#808080;stroke:#000000;stroke-width:0.2;stroke-miterlimit:4;stroke-dasharray:none"
           id="rect31-9-2"
           width="57.547825"
           height="57.547825"
           x="426.14627"
           y="18.766619" />
        <rect
           style="fill:#808080;stroke:#000000;stroke-width:0.2;stroke-miterlimit:4;stroke-dasharray:none"
           id="rect31-2-6"
           width="57.547825"
           height="57.547825"
           x="23.311329"
           y="76.314507" />
        <rect
           style="fill:#808080;stroke:#000000;stroke-width:0.2;stroke-miterlimit:4;stroke-dasharray:none"
           id="rect31-6-0-0"
           width="57.547825"
           height="57.547825"
           x="138.4071"
           y="76.314507" />
        <rect
           style="fill:#808080;stroke:#000000;stroke-width:0.2;stroke-miterlimit:4;stroke-dasharray:none"
           id="rect31-5-3-1"
           width="57.547825"
           height="57.547825"
           x="253.50287"
           y="76.314507" />
        <rect
           style="fill:#808080;stroke:#000000;stroke-width:0.2;stroke-miterlimit:4;stroke-dasharray:none"
           id="rect31-62-0-9"
           width="57.547825"
           height="57.547825"
           x="368.59866"
           y="76.314507" />
        <rect
           style="fill:#808080;stroke:#000000;stroke-width:0.2;stroke-miterlimit:4;stroke-dasharray:none"
           id="rect31-3-8-9"
           width="57.547825"
           height="57.547825"
           x="80.85894"
           y="133.8624" />
        <rect
           style="fill:#808080;stroke:#000000;stroke-width:0.2;stroke-miterlimit:4;stroke-dasharray:none"
           id="rect31-7-92-7"
           width="57.547825"
           height="57.547825"
           x="195.95471"
           y="133.8624" />
        <rect
           style="fill:#808080;stroke:#000000;stroke-width:0.2;stroke-miterlimit:4;stroke-dasharray:none"
           id="rect31-35-2-1"
           width="57.547825"
           height="57.547825"
           x="311.05048"
           y="133.8624" />
        <rect
           style="fill:#808080;stroke:#000000;stroke-width:0.2;stroke-miterlimit:4;stroke-dasharray:none"
           id="rect31-9-7-5"
           width="57.547825"
           height="57.547825"
           x="426.14627"
           y="133.8624" />
        <rect
           style="fill:#808080;stroke:#000000;stroke-width:0.2;stroke-miterlimit:4;stroke-dasharray:none"
           id="rect31-92-7"
           width="57.547825"
           height="57.547825"
           x="23.311329"
           y="191.41055" />
        <rect
           style="fill:#808080;stroke:#000000;stroke-width:0.2;stroke-miterlimit:4;stroke-dasharray:none"
           id="rect31-6-8-6"
           width="57.547825"
           height="57.547825"
           x="138.4071"
           y="191.41055" />
        <rect
           style="fill:#808080;stroke:#000000;stroke-width:0.2;stroke-miterlimit:4;stroke-dasharray:none"
           id="rect31-5-36-3"
           width="57.547825"
           height="57.547825"
           x="253.50287"
           y="191.41055" />
        <rect
           style="fill:#808080;stroke:#000000;stroke-width:0.2;stroke-miterlimit:4;stroke-dasharray:none"
           id="rect31-62-2-5"
           width="57.547825"
           height="57.547825"
           x="368.59866"
           y="191.41055" />
        <rect
           style="fill:#808080;stroke:#000000;stroke-width:0.2;stroke-miterlimit:4;stroke-dasharray:none"
           id="rect31-3-9-4"
           width="57.547825"
           height="57.547825"
           x="80.85894"
           y="248.95816" />
        <rect
           style="fill:#808080;stroke:#000000;stroke-width:0.2;stroke-miterlimit:4;stroke-dasharray:none"
           id="rect31-7-7-1"
           width="57.547825"
           height="57.547825"
           x="195.95471"
           y="248.95816" />
        <rect
           style="fill:#808080;stroke:#000000;stroke-width:0.2;stroke-miterlimit:4;stroke-dasharray:none"
           id="rect31-35-4-9"
           width="57.547825"
           height="57.547825"
           x="311.05048"
           y="248.95816" />
        <rect
           style="fill:#808080;stroke:#000000;stroke-width:0.2;stroke-miterlimit:4;stroke-dasharray:none"
           id="rect31-9-0-9"
           width="57.547825"
           height="57.547825"
           x="426.14627"
           y="248.95816" />
        <rect
           style="fill:#808080;stroke:#000000;stroke-width:0.2;stroke-miterlimit:4;stroke-dasharray:none"
           id="rect31-10-8"
           width="57.547825"
           height="57.547825"
           x="23.311329"
           y="306.50632" />
        <rect
           style="fill:#808080;stroke:#000000;stroke-width:0.2;stroke-miterlimit:4;stroke-dasharray:none"
           id="rect31-6-3-5"
           width="57.547825"
           height="57.547825"
           x="138.4071"
           y="306.50632" />
        <rect
           style="fill:#808080;stroke:#000000;stroke-width:0.2;stroke-miterlimit:4;stroke-dasharray:none"
           id="rect31-5-06-9"
           width="57.547825"
           height="57.547825"
           x="253.50287"
           y="306.50632" />
        <rect
           style="fill:#808080;stroke:#000000;stroke-width:0.2;stroke-miterlimit:4;stroke-dasharray:none"
           id="rect31-62-54-3"
           width="57.547825"
           height="57.547825"
           x="368.59866"
           y="306.50632" />
        <rect
           style="fill:#808080;stroke:#000000;stroke-width:0.2;stroke-miterlimit:4;stroke-dasharray:none"
           id="rect31-3-74-1"
           width="57.547825"
           height="57.547825"
           x="80.85894"
           y="364.05392" />
        <rect
           style="fill:#808080;stroke:#000000;stroke-width:0.2;stroke-miterlimit:4;stroke-dasharray:none"
           id="rect31-7-25-5"
           width="57.547825"
           height="57.547825"
           x="195.95471"
           y="364.05392" />
        <rect
           style="fill:#808080;stroke:#000000;stroke-width:0.2;stroke-miterlimit:4;stroke-dasharray:none"
           id="rect31-35-7-8"
           width="57.547825"
           height="57.547825"
           x="311.05048"
           y="364.05392" />
        <rect
           style="fill:#808080;stroke:#000000;stroke-width:0.2;stroke-miterlimit:4;stroke-dasharray:none"
           id="rect31-9-4-8"
           width="57.547825"
           height="57.547825"
           x="426.14627"
           y="364.05392" />
        <rect
           style="fill:#808080;stroke:#000000;stroke-width:0.2;stroke-miterlimit:4;stroke-dasharray:none"
           id="rect31-78-0"
           width="57.547825"
           height="57.547825"
           x="23.311329"
           y="421.60156" />
        <rect
           style="fill:#808080;stroke:#000000;stroke-width:0.2;stroke-miterlimit:4;stroke-dasharray:none"
           id="rect31-6-84-0"
           width="57.547825"
           height="57.547825"
           x="138.4071"
           y="421.60156" />
        <rect
           style="fill:#808080;stroke:#000000;stroke-width:0.2;stroke-miterlimit:4;stroke-dasharray:none"
           id="rect31-5-1-4"
           width="57.547825"
           height="57.547825"
           x="253.50287"
           y="421.60156" />
        <rect
           style="fill:#808080;stroke:#000000;stroke-width:0.2;stroke-miterlimit:4;stroke-dasharray:none"
           id="rect31-62-20-4"
           width="57.547825"
           height="57.547825"
           x="368.59866"
           y="421.60156" />
      </g>
      <g
         id="g55262">
        <path
           style="fill:none;stroke:#000000;stroke-width:2;stroke-miterlimit:4;stroke-dasharray:none"
           d="M 80.870136,18.76562 V 479.2976"
           inkscape:label="MajorXDiv1"
           id="path2770" />
        <path
           style="fill:none;stroke:#000000;stroke-width:2;stroke-miterlimit:4;stroke-dasharray:none"
           d="M 138.40008,18.76562 V 479.2976"
           inkscape:label="MajorXDiv2"
           id="path2772" />
        <path
           style="fill:none;stroke:#000000;stroke-width:2;stroke-miterlimit:4;stroke-dasharray:none"
           d="M 195.93003,18.76562 V 479.2976"
           inkscape:label="MajorXDiv3"
           id="path2774" />
        <path
           style="fill:none;stroke:#000000;stroke-width:2;stroke-miterlimit:4;stroke-dasharray:none"
           d="M 253.45998,18.76562 V 479.2976"
           inkscape:label="MajorXDiv4"
           id="path2776" />
        <path
           style="fill:none;stroke:#000000;stroke-width:2;stroke-miterlimit:4;stroke-dasharray:none"
           d="M 310.98993,18.76562 V 479.2976"
           inkscape:label="MajorXDiv5"
           id="path2778" />
        <path
           style="fill:none;stroke:#000000;stroke-width:2;stroke-miterlimit:4;stroke-dasharray:none"
           d="M 368.51988,18.76562 V 479.2976"
           inkscape:label="MajorXDiv6"
           id="path2780" />
        <path
           style="fill:none;stroke:#000000;stroke-width:2;stroke-miterlimit:4;stroke-dasharray:none"
           d="M 426.04982,18.76562 V 479.2976"
           inkscape:label="MajorXDiv7"
           id="path2782" />
        <path
           style="fill:none;stroke:#000000;stroke-width:2;stroke-miterlimit:4;stroke-dasharray:none"
           d="M 23.340188,76.332118 H 483.57977"
           inkscape:label="MajorYDiv1"
           id="path2786" />
        <path
           style="fill:none;stroke:#000000;stroke-width:2;stroke-miterlimit:4;stroke-dasharray:none"
           d="M 23.340188,133.89862 H 483.57977"
           inkscape:label="MajorYDiv2"
           id="path2788" />
        <path
           style="fill:none;stroke:#000000;stroke-width:2;stroke-miterlimit:4;stroke-dasharray:none"
           d="M 23.340188,191.46511 H 483.57977"
           inkscape:label="MajorYDiv3"
           id="path2790" />
        <path
           style="fill:none;stroke:#000000;stroke-width:2;stroke-miterlimit:4;stroke-dasharray:none"
           d="M 23.340188,249.03161 H 483.57977"
           inkscape:label="MajorYDiv4"
           id="path2792" />
        <path
           style="fill:none;stroke:#000000;stroke-width:2;stroke-miterlimit:4;stroke-dasharray:none"
           d="M 23.340188,306.59811 H 483.57977"
           inkscape:label="MajorYDiv5"
           id="path2794" />
        <path
           style="fill:none;stroke:#000000;stroke-width:2;stroke-miterlimit:4;stroke-dasharray:none"
           d="M 23.340188,364.16461 H 483.57977"
           inkscape:label="MajorYDiv6"
           id="path2796" />
        <path
           style="fill:none;stroke:#000000;stroke-width:2;stroke-miterlimit:4;stroke-dasharray:none"
           d="M 23.340188,421.73111 H 483.57977"
           inkscape:label="MajorYDiv7"
           id="path2798" />
        <rect
           x="23.340187"
           y="18.765619"
           width="460.23959"
           height="460.53198"
           style="fill:none;stroke:#000000;stroke-width:2;stroke-miterlimit:4;stroke-dasharray:none"
           inkscape:label="Border"
           id="rect2802" />
      </g>
      <g
         id="g28935">
        <g
           aria-label="A"
           id="text6111"
           style="font-weight:bold;font-size:19.7556px;line-height:125%;font-family:Arial;-inkscape-font-specification:'Arial, Bold';letter-spacing:0px;word-spacing:0px;fill:none;stroke:#000000;stroke-width:0.264583px">
          <path
             d="m 58.983213,510.4487 h -3.106105 l -1.234725,-3.21221 h -5.652725 l -1.167201,3.21221 h -3.028935 l 5.508031,-14.14146 h 3.019288 z m -5.257227,-5.59485 -1.948551,-5.24758 -1.909965,5.24758 z"
             id="path54833" />
        </g>
        <g
           aria-label="B"
           id="text7061"
           style="font-weight:bold;font-size:19.7556px;line-height:125%;font-family:Arial;-inkscape-font-specification:'Arial, Bold';letter-spacing:0px;word-spacing:0px;fill:none;stroke:#000000;stroke-width:0.264583px">
          <path
             d="m 104.05985,496.30724 h 5.65273 q 1.67845,0 2.49839,0.14469 0.82958,0.13505 1.47588,0.57878 0.65594,0.44373 1.09003,1.1865 0.43408,0.73311 0.43408,1.64951 0,0.99357 -0.54019,1.82315 -0.53055,0.82958 -1.44694,1.24437 1.2926,0.37621 1.98713,1.28296 0.69453,0.90675 0.69453,2.13183 0,0.96463 -0.45337,1.88102 -0.44373,0.90675 -1.22508,1.45659 -0.7717,0.5402 -1.90997,0.6656 -0.71382,0.0772 -3.44372,0.0965 h -4.8135 z m 2.8553,2.35369 v 3.2701 h 1.87138 q 1.66881,0 2.07395,-0.0482 0.73312,-0.0868 1.14791,-0.50161 0.42444,-0.42444 0.42444,-1.10932 0,-0.65595 -0.36656,-1.0611 -0.35691,-0.41479 -1.07074,-0.5016 -0.42443,-0.0482 -2.44051,-0.0482 z m 0,5.62379 v 3.78135 h 2.64309 q 1.5434,0 1.95819,-0.0868 0.63666,-0.11576 1.03216,-0.55948 0.40514,-0.45338 0.40514,-1.20579 0,-0.63666 -0.30868,-1.08039 -0.30868,-0.44372 -0.89711,-0.6463 -0.57877,-0.20257 -2.52732,-0.20257 z"
             id="path54836" />
        </g>
        <g
           aria-label="C"
           id="text8429"
           style="font-weight:bold;font-size:19.7556px;line-height:125%;font-family:Arial;-inkscape-font-specification:'Arial, Bold';letter-spacing:0px;word-spacing:0px;fill:none;stroke:#000000;stroke-width:0.264583px">
          <path
             d="m 171.46766,505.0082 2.76849,0.87781 q -0.63666,2.31511 -2.12219,3.44373 -1.47588,1.11897 -3.7524,1.11897 -2.81672,0 -4.63022,-1.91961 -1.8135,-1.92926 -1.8135,-5.26688 0,-3.53054 1.82315,-5.47909 1.82314,-1.9582 4.7942,-1.9582 2.59485,0 4.21543,1.53376 0.96463,0.90675 1.44694,2.6045 l -2.82636,0.67524 q -0.2508,-1.09968 -1.05144,-1.73633 -0.791,-0.63666 -1.92926,-0.63666 -1.57235,0 -2.55627,1.12862 -0.97427,1.12862 -0.97427,3.65594 0,2.68167 0.96462,3.81993 0.96463,1.13827 2.50804,1.13827 1.13826,0 1.9582,-0.72348 0.81993,-0.72347 1.17684,-2.27652 z"
             id="path54839" />
        </g>
        <g
           aria-label="D"
           id="text10061"
           style="font-weight:bold;font-size:19.7556px;line-height:125%;font-family:Arial;-inkscape-font-specification:'Arial, Bold';letter-spacing:0px;word-spacing:0px;fill:none;stroke:#000000;stroke-width:0.264583px">
          <path
             d="m 220.24361,496.30724 h 5.21865 q 1.76527,0 2.69131,0.2701 1.24437,0.36656 2.13183,1.30225 0.88746,0.93569 1.35048,2.29581 0.46302,1.35048 0.46302,3.33762 0,1.74598 -0.43408,3.00964 -0.53055,1.54341 -1.51447,2.49839 -0.74276,0.72347 -2.00642,1.12861 -0.94534,0.29904 -2.52733,0.29904 h -5.37299 z m 2.85531,2.39228 v 9.36655 h 2.13183 q 1.19614,0 1.72668,-0.13505 0.69453,-0.17363 1.14791,-0.58843 0.46302,-0.41479 0.75241,-1.36012 0.28939,-0.95498 0.28939,-2.59485 0,-1.63987 -0.28939,-2.51769 -0.28939,-0.87781 -0.81029,-1.36977 -0.5209,-0.49196 -1.32154,-0.66559 -0.59807,-0.13505 -2.34405,-0.13505 z"
             id="path54842" />
        </g>
        <g
           aria-label="E"
           id="text10989"
           style="font-weight:bold;font-size:19.7556px;line-height:125%;font-family:Arial;-inkscape-font-specification:'Arial, Bold';letter-spacing:0px;word-spacing:0px;fill:none;stroke:#000000;stroke-width:0.264583px">
          <path
             d="m 278.8878,510.4487 v -14.14146 h 10.48551 v 2.39228 h -7.63021 v 3.13504 h 7.09967 v 2.38264 h -7.09967 v 3.84887 h 7.90031 v 2.38263 z"
             id="path54845" />
        </g>
        <g
           aria-label="F"
           id="text11433"
           style="font-weight:bold;font-size:19.7556px;line-height:125%;font-family:Arial;-inkscape-font-specification:'Arial, Bold';letter-spacing:0px;word-spacing:0px;fill:none;stroke:#000000;stroke-width:0.264583px">
          <path
             d="m 337.51265,510.4487 v -14.14146 h 9.69452 v 2.39228 h -6.83922 v 3.34726 h 5.90353 v 2.39228 h -5.90353 v 6.00964 z"
             id="path54848" />
        </g>
        <g
           aria-label="G"
           id="text13127"
           style="font-weight:bold;font-size:19.7556px;line-height:125%;font-family:Arial;-inkscape-font-specification:'Arial, Bold';letter-spacing:0px;word-spacing:0px;fill:none;stroke:#000000;stroke-width:0.264583px">
          <path
             d="m 400.9124,505.0082 v -2.38263 h 6.15433 v 5.63343 q -0.8971,0.86817 -2.6045,1.53376 -1.69774,0.65595 -3.44372,0.65595 -2.21865,0 -3.86816,-0.92605 -1.64952,-0.93569 -2.4791,-2.66237 -0.82958,-1.73633 -0.82958,-3.7717 0,-2.209 0.92604,-3.92604 0.92605,-1.71704 2.71061,-2.63344 1.36013,-0.70418 3.38585,-0.70418 2.63343,0 4.10932,1.10933 1.48552,1.09967 1.90996,3.04822 l -2.83601,0.53055 q -0.29903,-1.0418 -1.12861,-1.63987 -0.81994,-0.60772 -2.05466,-0.60772 -1.87138,0 -2.98071,1.1865 -1.09967,1.18649 -1.09967,3.52089 0,2.51768 1.11897,3.78135 1.11897,1.25402 2.93247,1.25402 0.8971,0 1.79421,-0.34727 0.90675,-0.35691 1.55305,-0.85852 v -1.79421 z"
             id="path54851" />
        </g>
        <g
           aria-label="H"
           id="text14011"
           style="font-weight:bold;font-size:19.7556px;line-height:125%;font-family:Arial;-inkscape-font-specification:'Arial, Bold';letter-spacing:0px;word-spacing:0px;fill:none;stroke:#000000;stroke-width:0.264583px">
          <path
             d="m 452.89577,510.4487 v -14.14146 h 2.8553 v 5.56591 h 5.59484 v -5.56591 h 2.85531 v 14.14146 h -2.85531 v -6.18327 h -5.59484 v 6.18327 z"
             id="path54854" />
        </g>
      </g>
      <g
         id="g54789">
        <g
           aria-label="1"
           id="text38051"
           style="font-weight:bold;font-size:19.7556px;line-height:125%;font-family:Arial;-inkscape-font-specification:'Arial, Bold';letter-spacing:0px;word-spacing:0px;fill:none;stroke:#000000;stroke-width:0.264583px">
          <path
             d="m -9.290618,457.31235 h -2.710607 v -10.21542 q -1.485529,1.38906 -3.501603,2.05466 v -2.45981 q 1.061092,-0.34726 2.305463,-1.31189 1.244371,-0.97428 1.707393,-2.26688 h 2.199354 z"
             id="path54791" />
        </g>
        <g
           aria-label="2"
           id="text38913"
           style="font-weight:bold;font-size:19.7556px;line-height:125%;font-family:Arial;-inkscape-font-specification:'Arial, Bold';letter-spacing:0px;word-spacing:0px;fill:none;stroke:#000000;stroke-width:0.264583px">
          <path
             d="m -6.0012327,396.98964 v 2.51768 h -9.5015943 q 0.15434,-1.42765 0.926043,-2.70096 0.771703,-1.28295 3.048228,-3.39549 1.8327946,-1.70739 2.247585,-2.31511 0.5594848,-0.83923 0.5594848,-1.65916 0,-0.90675 -0.4919608,-1.38907 -0.4823144,-0.49196 -1.340834,-0.49196 -0.848874,0 -1.350481,0.51126 -0.501607,0.51125 -0.578777,1.69774 l -2.700961,-0.27009 q 0.241157,-2.23794 1.514467,-3.21222 1.273311,-0.97427 3.183276,-0.97427 2.0932446,0 3.2893844,1.12861 1.1961399,1.12862 1.1961399,2.80707 0,0.95499 -0.3472664,1.82315 -0.3376201,0.85852 -1.0803844,1.80386 -0.4919607,0.62701 -1.7749172,1.80385 -1.2829563,1.17685 -1.6302233,1.5627 -0.33762,0.38585 -0.549838,0.75241 z"
             id="path54794" />
        </g>
        <g
           aria-label="3"
           id="text39793"
           style="font-weight:bold;font-size:19.7556px;line-height:125%;font-family:Arial;-inkscape-font-specification:'Arial, Bold';letter-spacing:0px;word-spacing:0px;fill:none;stroke:#000000;stroke-width:0.264583px">
          <path
             d="m -15.502828,337.82935 2.623791,-0.31833 q 0.125402,1.00322 0.67524,1.53376 0.549838,0.53055 1.331188,0.53055 0.839227,0 1.4083581,-0.63666 0.5787773,-0.63665 0.5787773,-1.71704 0,-1.0225 -0.5498384,-1.62057 -0.5498385,-0.59807 -1.340834,-0.59807 -0.5209,0 -1.244372,0.20257 l 0.299035,-2.209 q 1.099677,0.0289 1.678455,-0.47267 0.5787771,-0.51125 0.5787771,-1.35048 0,-0.71382 -0.4244367,-1.13826 -0.4244364,-0.42444 -1.1286154,-0.42444 -0.694533,0 -1.186494,0.48232 -0.491961,0.48231 -0.59807,1.40835 l -2.498389,-0.42443 q 0.26045,-1.28296 0.78135,-2.04502 0.530546,-0.7717 1.466236,-1.20578 0.945336,-0.44373 2.112537,-0.44373 1.9967817,0 3.2025678,1.27331 0.9935678,1.0418 0.9935678,2.35369 0,1.86174 -2.035367,2.97106 1.2154324,0.26045 1.9389041,1.1672 0.733118,0.90675 0.733118,2.18971 0,1.86173 -1.3601268,3.17363 -1.3601267,1.31189 -3.3858479,1.31189 -1.919611,0 -3.183275,-1.09967 -1.263664,-1.10933 -1.466236,-2.89389 z"
             id="path54797" />
        </g>
        <g
           aria-label="4"
           id="text40655"
           style="font-weight:bold;font-size:19.7556px;line-height:125%;font-family:Arial;-inkscape-font-specification:'Arial, Bold';letter-spacing:0px;word-spacing:0px;fill:none;stroke:#000000;stroke-width:0.264583px">
          <path
             d="m -9.7150552,283.89734 v -2.84566 h -5.7877738 v -2.37298 l 6.1350402,-8.9807 h 2.2765242 v 8.97105 H -5.33564 v 2.38263 h -1.7556246 v 2.84566 z m 0,-5.22829 v -4.83279 l -3.2507998,4.83279 z"
             id="path54800" />
        </g>
        <g
           aria-label="5"
           id="text41535"
           style="font-weight:bold;font-size:19.7556px;line-height:125%;font-family:Arial;-inkscape-font-specification:'Arial, Bold';letter-spacing:0px;word-spacing:0px;fill:none;stroke:#000000;stroke-width:0.264583px">
          <path
             d="m -15.502828,222.20971 2.700961,-0.27974 q 0.115756,0.91639 0.684887,1.45659 0.569131,0.53054 1.311895,0.53054 0.8488735,0 1.4372971,-0.68489 0.5884236,-0.69453 0.5884236,-2.08359 0,-1.30225 -0.5884236,-1.94855 -0.5787773,-0.65595 -1.5144671,-0.65595 -1.167201,0 -2.093245,1.03215 l -2.199354,-0.31833 1.389066,-7.36011 h 7.1671925 v 2.53697 h -5.1125335 l -0.424436,2.40193 q 0.906751,-0.45338 1.852087,-0.45338 1.8038561,0 3.0578737,1.3119 1.2540176,1.31189 1.2540176,3.40514 0,1.74597 -1.0128604,3.11575 -1.3794193,1.87138 -3.8295769,1.87138 -1.958197,0 -3.192922,-1.05145 -1.234725,-1.05144 -1.475882,-2.82636 z"
             id="path54803" />
        </g>
        <g
           aria-label="6"
           id="text43651"
           style="font-weight:bold;font-size:19.7556px;line-height:125%;font-family:Arial;-inkscape-font-specification:'Arial, Bold';letter-spacing:0px;word-spacing:0px;fill:none;stroke:#000000;stroke-width:0.264583px">
          <path
             d="m -6.319562,157.48829 -2.6237906,0.28939 q -0.096463,-0.81029 -0.501607,-1.19614 -0.4051441,-0.38585 -1.0514454,-0.38585 -0.85852,0 -1.45659,0.7717 -0.588423,0.7717 -0.742764,3.21222 1.01286,-1.19614 2.517681,-1.19614 1.6977473,0 2.9035334,1.2926 1.2154325,1.2926 1.2154325,3.33761 0,2.17042 -1.2733102,3.48231 -1.2733102,1.3119 -3.2700917,1.3119 -2.141476,0 -3.520896,-1.65916 -1.379419,-1.66881 -1.379419,-5.4598 0,-3.88746 1.437297,-5.6045 1.437297,-1.71703 3.733114,-1.71703 1.6109301,0 2.6623756,0.90675 1.0610918,0.8971 1.3504804,2.61414 z m -6.144686,5.91318 q 0,1.32154 0.607716,2.04501 0.607716,0.71382 1.389066,0.71382 0.7524103,0 1.2540173,-0.58842 0.5016071,-0.58842 0.5016071,-1.92926 0,-1.37942 -0.5401922,-2.01607 -0.5401922,-0.6463 -1.3504802,-0.6463 -0.78135,0 -1.321542,0.61736 -0.540192,0.60772 -0.540192,1.80386 z"
             id="path54806" />
        </g>
        <g
           aria-label="7"
           id="text44293"
           style="font-weight:bold;font-size:19.7556px;line-height:125%;font-family:Arial;-inkscape-font-specification:'Arial, Bold';letter-spacing:0px;word-spacing:0px;fill:none;stroke:#000000;stroke-width:0.264583px">
          <path
             d="m -15.502829,98.926058 v -2.517681 h 9.2700837 v 1.967843 q -1.1479084,1.128616 -2.334402,3.24115 -1.1864936,2.11254 -1.8135027,4.49517 -0.617362,2.37299 -0.607716,4.24437 h -2.614144 q 0.06752,-2.93247 1.205786,-5.9807 1.147908,-3.04823 3.0578736,-5.450152 z"
             id="path54809" />
        </g>
        <g
           aria-label="8"
           id="text45191"
           style="font-weight:bold;font-size:19.7556px;line-height:125%;font-family:Arial;-inkscape-font-specification:'Arial, Bold';letter-spacing:0px;word-spacing:0px;fill:none;stroke:#000000;stroke-width:0.264583px">
          <path
             d="m -13.139488,44.921681 q -1.051445,-0.44373 -1.53376,-1.215433 -0.472668,-0.781349 -0.472668,-1.707393 0,-1.581991 1.099677,-2.614144 1.109323,-1.032153 3.14469,-1.032153 2.0160747,0 3.1253979,1.032153 1.1189695,1.032153 1.1189695,2.614144 0,0.983921 -0.5112533,1.755625 -0.5112533,0.762056 -1.437297,1.167201 1.1768472,0.472668 1.7845634,1.379419 0.6173625,0.906751 0.6173625,2.093245 0,1.958196 -1.2540176,3.183275 -1.2443712,1.225079 -3.3183234,1.225079 -1.929258,0 -3.212214,-1.012861 -1.514468,-1.19614 -1.514468,-3.279738 0,-1.147908 0.569131,-2.102891 0.569131,-0.964629 1.79421,-1.485528 z m 0.559485,-2.7299 q 0,0.810288 0.453376,1.263664 0.463021,0.453375 1.225078,0.453375 0.771703,0 1.2347253,-0.453375 0.4630218,-0.463022 0.4630218,-1.273311 0,-0.762056 -0.4630218,-1.215432 -0.4533753,-0.463022 -1.2057863,-0.463022 -0.781349,0 -1.244371,0.463022 -0.463022,0.463022 -0.463022,1.225079 z m -0.250804,6.057869 q 0,1.11897 0.569132,1.745979 0.578777,0.627008 1.437297,0.627008 0.8392267,0 1.3890652,-0.59807 0.5498385,-0.607716 0.5498385,-1.745978 0,-0.993568 -0.5594848,-1.591638 -0.5594849,-0.607716 -1.4180049,-0.607716 -0.993567,0 -1.485528,0.684887 -0.482315,0.684886 -0.482315,1.485528 z"
             id="path54812" />
        </g>
      </g>
    </g>
    <text
       xml:space="preserve"
       transform="matrix(0.26458333,0,0,0.26458333,-78.497275,-83.041925)"
       id="text51497"
       style="font-weight:bold;font-size:24px;line-height:125%;font-family:Arial;-inkscape-font-specification:'Arial, Bold';letter-spacing:0px;word-spacing:0px;white-space:pre;shape-inside:url(#rect51499);fill:none;stroke:#000000;stroke-width:1px;stroke-linecap:butt;stroke-linejoin:miter;stroke-opacity:1" />
    <rect
       style="fill:none;stroke:#000000;stroke-width:2;stroke-miterlimit:4;stroke-dasharray:none"
       id="rect55742"
       width="943.81616"
       height="624.97723"
       x="-201.77467"
       y="-66.016373"
       ry="12.818306" />
  </g>
</svg>
