<?xml version="1.0" encoding="utf-8"?>
<svg xmlns="http://www.w3.org/2000/svg" fill="none" version="1.1" viewBox="-1 -227.772 228.772 228.772" x="-1pt" y="-227.772pt" width="228.772pt" height="228.772pt" stroke-width="0.566929" stroke-miterlimit="10.000000">
 <path d="M0 -0L28.3465 -0L28.3465 -28.3465L0 -28.3465Z" stroke="#00f"/>
 <path d="M0 -28.3465L28.3465 -28.3465L28.3465 -56.6929L0 -56.6929Z" stroke="#0f0"/>
 <path d="M0 -56.6929L28.3465 -56.6929L28.3465 -85.0394L0 -85.0394Z" stroke="#00f"/>
 <path d="M0 -85.0394L28.3465 -85.0394L28.3465 -113.386L0 -113.386Z" stroke="#0f0"/>
 <path d="M0 -113.386L28.3465 -113.386L28.3465 -141.732L0 -141.732Z" stroke="#00f"/>
 <path d="M0 -141.732L28.3465 -141.732L28.3465 -170.079L0 -170.079Z" stroke="#0f0"/>
 <path d="M0 -170.079L28.3465 -170.079L28.3465 -198.425L0 -198.425Z" stroke="#00f"/>
 <path d="M0 -198.425L28.3465 -198.425L28.3465 -226.772L0 -226.772Z" stroke="#0f0"/>
 <path d="M28.3465 -0L56.6929 -0L56.6929 -28.3465L28.3465 -28.3465Z" stroke="#0f0"/>
 <path d="M28.3465 -28.3465L56.6929 -28.3465L56.6929 -56.6929L28.3465 -56.6929Z" stroke="#00f"/>
 <path d="M28.3465 -56.6929L56.6929 -56.6929L56.6929 -85.0394L28.3465 -85.0394Z" stroke="#0f0"/>
 <path d="M28.3465 -85.0394L56.6929 -85.0394L56.6929 -113.386L28.3465 -113.386Z" stroke="#00f"/>
 <path d="M28.3465 -113.386L56.6929 -113.386L56.6929 -141.732L28.3465 -141.732Z" stroke="#0f0"/>
 <path d="M28.3465 -141.732L56.6929 -141.732L56.6929 -170.079L28.3465 -170.079Z" stroke="#00f"/>
 <path d="M28.3465 -170.079L56.6929 -170.079L56.6929 -198.425L28.3465 -198.425Z" stroke="#0f0"/>
 <path d="M28.3465 -198.425L56.6929 -198.425L56.6929 -226.772L28.3465 -226.772Z" stroke="#00f"/>
 <path d="M56.6929 -0L85.0394 -0L85.0394 -28.3465L56.6929 -28.3465Z" stroke="#00f"/>
 <path d="M56.6929 -28.3465L85.0394 -28.3465L85.0394 -56.6929L56.6929 -56.6929Z" stroke="#0f0"/>
 <path d="M56.6929 -56.6929L85.0394 -56.6929L85.0394 -85.0394L56.6929 -85.0394Z" stroke="#00f"/>
 <path d="M56.6929 -85.0394L85.0394 -85.0394L85.0394 -113.386L56.6929 -113.386Z" stroke="#0f0"/>
 <path d="M56.6929 -113.386L85.0394 -113.386L85.0394 -141.732L56.6929 -141.732Z" stroke="#00f"/>
 <path d="M56.6929 -141.732L85.0394 -141.732L85.0394 -170.079L56.6929 -170.079Z" stroke="#0f0"/>
 <path d="M56.6929 -170.079L85.0394 -170.079L85.0394 -198.425L56.6929 -198.425Z" stroke="#00f"/>
 <path d="M56.6929 -198.425L85.0394 -198.425L85.0394 -226.772L56.6929 -226.772Z" stroke="#0f0"/>
 <path d="M85.0394 -0L113.386 -0L113.386 -28.3465L85.0394 -28.3465Z" stroke="#0f0"/>
 <path d="M85.0394 -28.3465L113.386 -28.3465L113.386 -56.6929L85.0394 -56.6929Z" stroke="#00f"/>
 <path d="M85.0394 -56.6929L113.386 -56.6929L113.386 -85.0394L85.0394 -85.0394Z" stroke="#0f0"/>
 <path d="M85.0394 -85.0394L113.386 -85.0394L113.386 -113.386L85.0394 -113.386Z" stroke="#00f"/>
 <path d="M85.0394 -113.386L113.386 -113.386L113.386 -141.732L85.0394 -141.732Z" stroke="#0f0"/>
 <path d="M85.0394 -141.732L113.386 -141.732L113.386 -170.079L85.0394 -170.079Z" stroke="#00f"/>
 <path d="M85.0394 -170.079L113.386 -170.079L113.386 -198.425L85.0394 -198.425Z" stroke="#0f0"/>
 <path d="M85.0394 -198.425L113.386 -198.425L113.386 -226.772L85.0394 -226.772Z" stroke="#00f"/>
 <path d="M113.386 -0L141.732 -0L141.732 -28.3465L113.386 -28.3465Z" stroke="#00f"/>
 <path d="M113.386 -28.3465L141.732 -28.3465L141.732 -56.6929L113.386 -56.6929Z" stroke="#0f0"/>
 <path d="M113.386 -56.6929L141.732 -56.6929L141.732 -85.0394L113.386 -85.0394Z" stroke="#00f"/>
 <path d="M113.386 -85.0394L141.732 -85.0394L141.732 -113.386L113.386 -113.386Z" stroke="#0f0"/>
 <path d="M113.386 -113.386L141.732 -113.386L141.732 -141.732L113.386 -141.732Z" stroke="#00f"/>
 <path d="M113.386 -141.732L141.732 -141.732L141.732 -170.079L113.386 -170.079Z" stroke="#0f0"/>
 <path d="M113.386 -170.079L141.732 -170.079L141.732 -198.425L113.386 -198.425Z" stroke="#00f"/>
 <path d="M113.386 -198.425L141.732 -198.425L141.732 -226.772L113.386 -226.772Z" stroke="#0f0"/>
 <path d="M141.732 -0L170.079 -0L170.079 -28.3465L141.732 -28.3465Z" stroke="#0f0"/>
 <path d="M141.732 -28.3465L170.079 -28.3465L170.079 -56.6929L141.732 -56.6929Z" stroke="#00f"/>
 <path d="M141.732 -56.6929L170.079 -56.6929L170.079 -85.0394L141.732 -85.0394Z" stroke="#0f0"/>
 <path d="M141.732 -85.0394L170.079 -85.0394L170.079 -113.386L141.732 -113.386Z" stroke="#00f"/>
 <path d="M141.732 -113.386L170.079 -113.386L170.079 -141.732L141.732 -141.732Z" stroke="#0f0"/>
 <path d="M141.732 -141.732L170.079 -141.732L170.079 -170.079L141.732 -170.079Z" stroke="#00f"/>
 <path d="M141.732 -170.079L170.079 -170.079L170.079 -198.425L141.732 -198.425Z" stroke="#0f0"/>
 <path d="M141.732 -198.425L170.079 -198.425L170.079 -226.772L141.732 -226.772Z" stroke="#00f"/>
 <path d="M170.079 -0L198.425 -0L198.425 -28.3465L170.079 -28.3465Z" stroke="#00f"/>
 <path d="M170.079 -28.3465L198.425 -28.3465L198.425 -56.6929L170.079 -56.6929Z" stroke="#0f0"/>
 <path d="M170.079 -56.6929L198.425 -56.6929L198.425 -85.0394L170.079 -85.0394Z" stroke="#00f"/>
 <path d="M170.079 -85.0394L198.425 -85.0394L198.425 -113.386L170.079 -113.386Z" stroke="#0f0"/>
 <path d="M170.079 -113.386L198.425 -113.386L198.425 -141.732L170.079 -141.732Z" stroke="#00f"/>
 <path d="M170.079 -141.732L198.425 -141.732L198.425 -170.079L170.079 -170.079Z" stroke="#0f0"/>
 <path d="M170.079 -170.079L198.425 -170.079L198.425 -198.425L170.079 -198.425Z" stroke="#00f"/>
 <path d="M170.079 -198.425L198.425 -198.425L198.425 -226.772L170.079 -226.772Z" stroke="#0f0"/>
 <path d="M198.425 -0L226.772 -0L226.772 -28.3465L198.425 -28.3465Z" stroke="#0f0"/>
 <path d="M198.425 -28.3465L226.772 -28.3465L226.772 -56.6929L198.425 -56.6929Z" stroke="#00f"/>
 <path d="M198.425 -56.6929L226.772 -56.6929L226.772 -85.0394L198.425 -85.0394Z" stroke="#0f0"/>
 <path d="M198.425 -85.0394L226.772 -85.0394L226.772 -113.386L198.425 -113.386Z" stroke="#00f"/>
 <path d="M198.425 -113.386L226.772 -113.386L226.772 -141.732L198.425 -141.732Z" stroke="#0f0"/>
 <path d="M198.425 -141.732L226.772 -141.732L226.772 -170.079L198.425 -170.079Z" stroke="#00f"/>
 <path d="M198.425 -170.079L226.772 -170.079L226.772 -198.425L198.425 -198.425Z" stroke="#0f0"/>
 <path d="M198.425 -198.425L226.772 -198.425L226.772 -226.772L198.425 -226.772Z" stroke="#00f"/>
</svg>
