<?xml version="1.0" encoding="UTF-8" standalone="no"?>
<svg
   xmlns:dc="http://purl.org/dc/elements/1.1/"
   xmlns:cc="http://creativecommons.org/ns#"
   xmlns:rdf="http://www.w3.org/1999/02/22-rdf-syntax-ns#"
   xmlns:svg="http://www.w3.org/2000/svg"
   xmlns="http://www.w3.org/2000/svg"
   xmlns:sodipodi="http://sodipodi.sourceforge.net/DTD/sodipodi-0.dtd"
   xmlns:inkscape="http://www.inkscape.org/namespaces/inkscape"
   width="210mm"
   height="297mm"
   viewBox="0 0 210 297"
   version="1.1"
   id="svg8"
   inkscape:version="1.0.1 (3bc2e813f5, 2020-09-07)"
   sodipodi:docname="drawing.svg">
  <defs
     id="defs2" />
  <sodipodi:namedview
     id="base"
     pagecolor="#ffffff"
     bordercolor="#666666"
     borderopacity="1.0"
     inkscape:pageopacity="0.0"
     inkscape:pageshadow="2"
     inkscape:zoom="1.4"
     inkscape:cx="348.94862"
     inkscape:cy="268.44361"
     inkscape:document-units="mm"
     inkscape:current-layer="layer1"
     inkscape:document-rotation="0"
     showgrid="false"
     inkscape:window-width="1920"
     inkscape:window-height="1136"
     inkscape:window-x="0"
     inkscape:window-y="0"
     inkscape:window-maximized="1" />
  <metadata
     id="metadata5">
    <rdf:RDF>
      <cc:Work
         rdf:about="">
        <dc:format>image/svg+xml</dc:format>
        <dc:type
           rdf:resource="http://purl.org/dc/dcmitype/StillImage" />
        <dc:title></dc:title>
      </cc:Work>
    </rdf:RDF>
  </metadata>
  <g
     inkscape:label="Layer 1"
     inkscape:groupmode="layer"
     id="layer1">
    <path
       style="fill:#000000;stroke-width:0.034273"
       d="m 71.654524,87.398634 c -0.12401,-0.0323 -0.34764,-0.0695 -0.49696,-0.0827 -0.70685,-0.0622 -1.92129,-0.36354 -2.89685,-0.71872 -1.33397,-0.48566 -3.0503,-1.27727 -3.37241,-1.55542 -0.0188,-0.0163 -0.15766,-0.1161 -0.30846,-0.22182 -0.38703,-0.27132 -0.83397,-0.67991 -1.28529,-1.175 -0.13746,-0.15081 -0.34406,-0.37466 -0.45911,-0.49746 -0.42179,-0.45023 -0.74087,-0.81413 -0.86758,-0.98945 -0.0714,-0.0988 -0.20698,-0.28278 -0.30123,-0.4088 -0.0942,-0.12602 -0.21955,-0.32169 -0.27844,-0.43481 -0.40333,-0.77475 -0.52263,-1.02327 -0.58089,-1.21006 -0.0745,-0.23878 -0.10754,-0.25374 -0.32054,-0.14507 -0.16024,0.0817 -0.51859,0.16139 -0.84224,0.18718 -0.30739,0.0245 -0.95036,-0.0218 -1.81647,-0.13084 -0.71391,-0.0899 -1.07157,-0.18593 -1.73079,-0.46482 -0.48447,-0.20497 -0.90227,-0.45713 -1.10337,-0.66594 -0.21857,-0.22694 -0.40238,-0.45533 -0.528,-0.65603 -0.19277,-0.308 -0.49355,-0.91229 -0.49355,-0.99159 0,-0.0338 -0.0532,-0.19442 -0.11822,-0.35699 -0.065,-0.16256 -0.12841,-0.35942 -0.14087,-0.43745 -0.0287,-0.17962 -0.10746,-0.21941 -0.4821,-0.24349 -0.28191,-0.0181 -0.42813,-0.003 -1.38374,0.14537 -0.8801,0.13643 -1.47033,0.19973 -1.86788,0.20032 -0.32845,5.2e-4 -0.41011,-0.0117 -0.63405,-0.0946 -0.24161,-0.0895 -0.28151,-0.1202 -0.66427,-0.51167 -0.58833,-0.60173 -0.84328,-0.921 -1.00834,-1.26272 -0.0791,-0.16382 -0.14386,-0.31518 -0.14386,-0.33635 0,-0.0212 -0.0363,-0.11849 -0.0807,-0.21625 -0.0444,-0.0978 -0.10037,-0.23942 -0.12437,-0.31482 -0.024,-0.0754 -0.0636,-0.17565 -0.0881,-0.22278 -0.0468,-0.0903 -0.1953,-0.59561 -0.27694,-0.94251 -0.0739,-0.31419 -0.14508,-0.45249 -0.25653,-0.49865 -0.15127,-0.0627 -0.29724,-0.23171 -0.32087,-0.3716 -0.0297,-0.17606 0.0461,-0.38068 0.17272,-0.46586 0.11376,-0.0765 0.98591,-0.25823 1.55744,-0.32445 0.17907,-0.0208 0.44897,-0.0528 0.59978,-0.0713 0.67386,-0.0825 1.31061,-0.13515 1.8336,-0.15153 1.54041,-0.0482 1.77698,-0.06 1.92786,-0.0958 0.14643,-0.0348 0.1628,-0.0484 0.1628,-0.13503 0,-0.0539 -0.0189,-0.0967 -0.0428,-0.097 -1.07866,-0.0178 -3.05834,0.0121 -3.48558,0.0527 -0.69725,0.0662 -0.96187,0.0693 -2.1095,0.0254 -0.93446,-0.0358 -0.97088,-0.0399 -1.38805,-0.15542 -0.23563,-0.0652 -0.46167,-0.1322 -0.50231,-0.14879 -0.12378,-0.0505 -0.4721,-0.40577 -0.61438,-0.62658 -0.0739,-0.11462 -0.14569,-0.20854 -0.15964,-0.2087 -0.0512,-6.5e-4 -0.32777,-0.60982 -0.4281,-0.94281 -0.18465,-0.61287 -0.20919,-0.71518 -0.25068,-1.04533 -0.0225,-0.17907 -0.0634,-0.44126 -0.0909,-0.58264 -0.0275,-0.14138 -0.0623,-0.33416 -0.0773,-0.42841 -0.0247,-0.15456 -0.0559,-0.30511 -0.13867,-0.66833 -0.15855,-0.69581 -0.15549,-0.66387 -0.0848,-0.88504 0.0613,-0.19184 0.0736,-0.20663 0.18659,-0.22492 0.0665,-0.0108 0.17965,-0.0596 0.25137,-0.10849 0.10742,-0.0733 0.204,-0.0975 0.54837,-0.13792 0.22989,-0.0269 0.49509,-0.0648 0.58934,-0.0841 0.0942,-0.0193 0.37186,-0.0645 0.61692,-0.10041 0.61744,-0.0905 1.20875,-0.19463 1.59369,-0.2807 0.17908,-0.04 0.41042,-0.0848 0.5141,-0.0996 0.10367,-0.0147 0.27333,-0.0445 0.377,-0.0661 0.10368,-0.0216 0.53552,-0.0461 0.95965,-0.0543 0.42413,-0.008 0.99477,-0.03 1.2681,-0.0483 1.14275,-0.0766 1.25422,-0.0782 1.36808,-0.0193 0.13805,0.0714 0.15677,0.0299 0.10972,-0.24319 -0.019,-0.11049 -0.0513,-0.4091 -0.0716,-0.66357 -0.0204,-0.25448 -0.0526,-0.62954 -0.0717,-0.83348 -0.0191,-0.20393 -0.0427,-0.48925 -0.0523,-0.63405 -0.01,-0.14479 -0.0316,-0.36351 -0.0488,-0.48604 -0.0171,-0.12252 -0.0252,-0.43869 -0.0179,-0.70259 0.007,-0.26391 -0.002,-0.83455 -0.0204,-1.26811 -0.0479,-1.12352 -0.05,-1.24623 -0.0212,-1.22848 0.0334,0.0206 0.0334,-0.0376 0,-0.0711 -0.0141,-0.0141 -0.0283,-0.1131 -0.0315,-0.21991 -0.003,-0.10682 -0.0219,-0.30988 -0.0416,-0.45125 -0.0197,-0.14138 -0.0542,-0.38815 -0.0768,-0.54837 -0.0225,-0.16023 -0.0392,-0.33759 -0.037,-0.39414 0.005,-0.13251 -0.0866,-0.91847 -0.14602,-1.25097 -0.0253,-0.14138 -0.0639,-0.4267 -0.0859,-0.63405 -0.0582,-0.54941 -0.0399,-0.51066 -0.30078,-0.63442 l -0.23153,-0.10982 -1.2681,-0.0458 c -3.31991,-0.11982 -3.77659,-0.21208 -4.4787,-0.90486 -0.46869,-0.46246 -0.45689,-0.41272 -0.45562,-1.92095 5.2e-4,-0.65033 0.0195,-1.38291 0.0421,-1.62796 0.0226,-0.24506 0.0512,-0.7463 0.0635,-1.11388 0.0239,-0.71568 0.0344,-0.7613 0.22314,-0.97632 0.0824,-0.0939 0.13171,-0.12041 0.22361,-0.12041 0.0976,0 0.1451,0.0295 0.27574,0.17136 0.17612,0.1912 0.24782,0.20783 0.52852,0.12264 0.087,-0.0264 0.24889,-0.0584 0.35987,-0.0712 0.11097,-0.0127 0.35599,-0.0614 0.5445,-0.1082 0.31525,-0.0782 0.54618,-0.11749 1.55942,-0.26518 0.57806,-0.0843 1.46479,-0.15798 2.33056,-0.19375 1.75347,-0.0724 1.82079,-0.0728 2.41898,-0.0124 0.31895,0.0322 0.72643,0.062 0.90551,0.0662 0.6754,0.016 1.10455,0.19352 2.06964,0.85598 0.21969,0.15081 0.46069,0.31274 0.53557,0.35987 0.0749,0.0471 0.37221,0.2354 0.66074,0.41839 0.43999,0.27905 1.30774,0.78117 1.35001,0.78117 0.007,0 0.0698,0.036 0.1401,0.0801 0.0703,0.044 0.19725,0.10477 0.28207,0.13498 0.38681,0.13773 0.90298,0.33794 1.2167,0.47191 0.39733,0.16969 1.63102,0.7963 1.78219,0.90522 0.0566,0.0407 0.18365,0.10824 0.28243,0.15 0.0988,0.0418 0.23589,0.11413 0.30468,0.1608 0.0688,0.0467 0.14473,0.0849 0.16877,0.0849 0.0493,0 0.53363,0.25008 0.66975,0.34584 0.0489,0.0344 0.31884,0.17922 0.59978,0.32176 0.72962,0.37019 1.00319,0.51743 1.06957,0.57566 0.032,0.0281 0.15839,0.10203 0.28092,0.1644 0.12252,0.0624 0.2977,0.17988 0.38928,0.26111 0.16122,0.14302 0.29056,0.18368 0.38637,0.12147 0.12717,-0.0826 0.39772,-0.56808 0.61564,-1.10478 0.0344,-0.0848 0.096,-0.20049 0.13669,-0.25705 0.10143,-0.1408 0.45985,-0.86721 0.45985,-0.93197 0,-0.0288 0.0597,-0.12397 0.13262,-0.21142 0.0729,-0.0874 0.19833,-0.26694 0.27865,-0.39889 0.0803,-0.13195 0.18837,-0.3016 0.2401,-0.377 0.0517,-0.0754 0.21272,-0.31783 0.35775,-0.53872 0.14503,-0.22089 0.33204,-0.47763 0.41557,-0.57054 0.0835,-0.0929 0.15187,-0.18382 0.15187,-0.20203 0,-0.0182 0.0733,-0.10177 0.1628,-0.18568 0.0895,-0.0839 0.21678,-0.22685 0.28275,-0.31765 0.066,-0.0908 0.19059,-0.24403 0.27693,-0.34052 0.0863,-0.0965 0.17899,-0.20823 0.2059,-0.24831 0.0442,-0.0659 0.28788,-0.33792 0.81955,-0.915 0.26359,-0.2861 0.96437,-0.9236 1.25096,-1.13798 0.13196,-0.0987 0.2773,-0.21985 0.323,-0.2692 0.0457,-0.0494 0.0997,-0.09 0.11996,-0.0904 0.0404,-7.8e-4 0.59283,-0.39549 1.07825,-0.77046 0.0732,-0.0566 0.1773,-0.12946 0.23132,-0.16202 0.054,-0.0326 0.16762,-0.11373 0.25245,-0.18038 0.24625,-0.19348 0.45465,-0.32592 0.51284,-0.32592 0.0638,0 0.27741,-0.13861 0.45017,-0.29212 0.0678,-0.0603 0.18219,-0.12062 0.25414,-0.13412 0.072,-0.0135 0.18584,-0.0619 0.25307,-0.10761 0.0672,-0.0457 0.14127,-0.0831 0.16451,-0.0831 0.0232,0 0.0929,-0.0431 0.15484,-0.0957 0.15613,-0.1328 0.26645,-0.19757 0.38676,-0.22707 0.0566,-0.0139 0.17191,-0.0709 0.25636,-0.1267 0.0844,-0.0558 0.1924,-0.11097 0.23991,-0.12255 0.0475,-0.0116 0.16349,-0.0696 0.25774,-0.12888 0.0942,-0.0593 0.22535,-0.12859 0.29132,-0.15396 0.066,-0.0254 0.17968,-0.0924 0.25267,-0.14897 0.073,-0.0566 0.20408,-0.1244 0.29132,-0.15079 0.0872,-0.0264 0.34368,-0.1461 0.56989,-0.26605 0.72261,-0.38318 1.88001,-0.94412 1.94803,-0.94412 0.0111,0 0.19424,-0.0827 0.40699,-0.18368 0.21275,-0.10102 0.47164,-0.21109 0.57532,-0.24459 0.10367,-0.0335 0.25019,-0.0963 0.32559,-0.13963 0.13977,-0.0803 0.44331,-0.19781 0.60229,-0.23325 0.0485,-0.0108 0.14711,-0.0597 0.21913,-0.10853 0.072,-0.0489 0.24826,-0.13532 0.39164,-0.19209 0.14337,-0.0568 0.42262,-0.18958 0.62055,-0.29511 0.60229,-0.32112 0.94018,-0.48796 0.98841,-0.48805 0.0252,-3e-5 0.21032,-0.0793 0.41128,-0.17618 0.20095,-0.0968 0.51189,-0.21938 0.69096,-0.27228 0.39785,-0.11753 0.64358,-0.2117 0.8911,-0.34147 0.25248,-0.13237 1.27077,-0.55972 1.58325,-0.66445 0.21413,-0.0718 0.35416,-0.12602 0.833,-0.32279 0.18731,-0.077 0.53766,-0.18772 0.73609,-0.23268 0.24683,-0.0559 0.49874,-0.15848 0.58824,-0.23947 0.0596,-0.054 0.20485,-0.0998 0.46461,-0.14675 0.0791,-0.0143 0.16699,-0.0452 0.19529,-0.0687 0.0478,-0.0397 0.22497,-0.0769 0.60339,-0.12677 0.0848,-0.0112 0.36243,-0.0863 0.61691,-0.16691 0.25448,-0.0806 0.53209,-0.15686 0.61692,-0.16944 0.24695,-0.0366 0.47629,-0.0872 0.78827,-0.17376 0.16023,-0.0445 0.42242,-0.10676 0.58265,-0.13843 0.16022,-0.0317 0.4147,-0.087 0.5655,-0.12306 0.1508,-0.036 0.35901,-0.0751 0.46269,-0.0869 0.10367,-0.0118 0.26168,-0.058 0.35111,-0.10269 0.24947,-0.12474 1.69134,-0.45735 1.98268,-0.45735 0.0713,0 0.23189,-0.0237 0.35689,-0.0527 0.44342,-0.10283 0.96377,-0.19228 1.28499,-0.22089 0.35505,-0.0316 0.66465,-0.0783 1.03391,-0.15601 0.13104,-0.0276 0.372286,-0.06 0.536106,-0.072 0.16382,-0.012 0.31463,-0.035 0.33512,-0.051 0.0205,-0.016 0.20557,-0.0362 0.41128,-0.0448 0.2057,-0.009 0.53595,-0.0243 0.73388,-0.0349 0.57352,-0.0308 2.98699,-0.0238 3.51298,0.0102 0.98033,0.0633 1.89361,0.14464 2.17634,0.19373 0.16023,0.0278 0.53809,0.0828 0.83969,0.12206 0.3016,0.0393 0.76429,0.11722 1.02819,0.17313 0.97468,0.20649 1.10171,0.23227 1.33665,0.2712 0.47735,0.0791 1.09157,0.22969 2.22775,0.54618 0.39585,0.11027 0.86625,0.23405 1.04532,0.27506 0.62462,0.14303 1.36916,0.39027 1.94034,0.64432 0.32272,0.14354 1.4092,0.67959 1.46983,0.72519 0.0188,0.0142 0.17308,0.0842 0.34273,0.15549 0.16965,0.0713 0.32465,0.14241 0.34444,0.15791 0.0198,0.0155 0.17402,0.082 0.34273,0.14768 0.63434,0.24712 0.7541,0.30228 0.82084,0.37808 0.0377,0.0428 0.1688,0.13129 0.29133,0.19661 0.12252,0.0653 0.3076,0.17076 0.41127,0.23432 1.11366,0.68273 1.89838,1.40017 3.41804,3.12496 0.33082,0.37546 0.49939,0.58565 0.96891,1.20812 0.0471,0.0625 0.20135,0.2636 0.34273,0.44694 0.14138,0.18334 0.27247,0.35808 0.29132,0.3883 0.0188,0.0302 0.17233,0.25616 0.34107,0.50211 0.40257,0.58677 1.56118,2.33791 1.6639,2.51484 0.0283,0.0487 0.17565,0.28972 0.3275,0.53559 0.24132,0.39073 0.40048,0.6712 0.84691,1.49236 0.0564,0.10367 0.12116,0.21163 0.14398,0.23991 0.0466,0.0577 0.20649,0.34585 0.44702,0.80541 0.0888,0.16966 0.1805,0.3316 0.20381,0.35987 0.0233,0.0283 0.14323,0.2442 0.2665,0.47982 0.23683,0.45269 0.59045,1.11311 0.64231,1.19956 0.017,0.0283 0.0565,0.10539 0.0879,0.17137 0.0314,0.066 0.2117,0.42841 0.40068,0.80541 0.40659,0.81113 0.74614,1.54389 0.74614,1.61021 0,0.0806 0.12592,0.0937 0.55921,0.0578 0.22966,-0.019 0.51011,-0.0335 0.62321,-0.0321 0.21341,0.003 0.67065,-0.0527 0.72746,-0.0878 0.0179,-0.0111 0.15456,-0.022 0.30372,-0.0244 0.14915,-0.002 0.51796,-0.0282 0.81956,-0.0574 0.3016,-0.0292 0.73344,-0.0653 0.95965,-0.0801 0.2262,-0.0148 0.65033,-0.0435 0.9425,-0.0639 0.29218,-0.0203 0.62377,-0.0284 0.73687,-0.018 0.1131,0.0105 0.43698,0.005 0.71974,-0.0112 0.53363,-0.0313 1.60861,-0.004 2.26202,0.0574 0.40685,0.0383 0.4678,0.047 0.70259,0.10121 0.0848,0.0196 0.26991,0.0508 0.41128,0.0695 0.14138,0.0186 0.4267,0.0665 0.63405,0.10637 0.20735,0.0399 0.50039,0.0934 0.65119,0.11891 0.1508,0.0255 0.40895,0.0859 0.57367,0.13409 0.16472,0.0482 0.43041,0.11049 0.59042,0.13842 0.16001,0.0279 0.41853,0.0908 0.57448,0.13967 0.7162,0.22454 1.15271,0.37496 1.29459,0.44614 0.0848,0.0426 0.2216,0.0977 0.30394,0.12257 0.0823,0.0249 0.21659,0.0876 0.29834,0.13948 0.0817,0.0518 0.21306,0.11161 0.29182,0.13281 0.0788,0.0212 0.22499,0.076 0.32495,0.1217 0.1,0.0457 0.19788,0.0831 0.21758,0.0831 0.0197,0 0.1325,0.0452 0.25067,0.10053 0.30967,0.1449 0.86902,0.37934 0.90439,0.37907 0.063,-5.2e-4 0.66074,0.28664 0.64609,0.31034 -0.0246,0.0397 0.0461,0.0819 0.45164,0.26937 0.21014,0.0971 0.48775,0.19709 0.61691,0.2221 0.26869,0.0521 0.45569,0.12468 0.58824,0.22849 0.0882,0.0691 0.67273,0.41977 1.19665,0.71791 0.13621,0.0775 0.25606,0.15453 0.26634,0.17116 0.0103,0.0166 0.0999,0.0767 0.19915,0.13347 0.0993,0.0568 0.27244,0.18825 0.38485,0.29211 0.1124,0.10387 0.24097,0.20849 0.28571,0.23249 0.0807,0.0433 0.44115,0.36365 0.70644,0.62786 0.076,0.0757 0.22288,0.18943 0.3264,0.25275 0.17382,0.10633 0.75803,0.68601 1.45446,1.44322 0.49876,0.54228 0.92956,1.07836 1.0948,1.36234 0.0905,0.1555 0.17738,0.2907 0.19312,0.30042 0.0266,0.0165 0.59092,1.14385 0.74599,1.49036 0.0949,0.21217 0.29418,0.73177 0.36795,0.95964 0.0336,0.10368 0.0808,0.21935 0.1049,0.25705 0.0241,0.0377 0.0745,0.18422 0.11204,0.3256 0.0375,0.14137 0.12527,0.41898 0.19507,0.61691 0.0698,0.19793 0.18008,0.5141 0.24508,0.7026 l 0.11818,0.34273 -0.0171,0.50729 -0.0171,0.5073 0.10584,0.17025 c 0.0582,0.0936 0.11705,0.24323 0.13075,0.3324 0.0452,0.29393 -0.034,1.16804 -0.17752,1.96147 -0.11916,0.65853 -0.42612,1.3865 -0.78406,1.85942 -0.0735,0.0971 -0.13823,0.21471 -0.14383,0.2613 -0.007,0.0564 -0.0781,0.1375 -0.21378,0.24285 -0.19889,0.15446 -0.20662,0.16678 -0.33307,0.53044 -0.0712,0.20477 -0.15976,0.40467 -0.19682,0.44423 -0.0371,0.0396 -0.10455,0.15227 -0.14997,0.25046 -0.0454,0.0982 -0.10368,0.20394 -0.12946,0.235 -0.0258,0.031 -0.0629,0.0845 -0.0825,0.11886 -0.0196,0.0343 -0.0954,0.16762 -0.16838,0.29623 -0.25085,0.44183 -0.75243,1.15932 -0.88225,1.26203 -0.0715,0.0566 -0.13067,0.12981 -0.13154,0.1628 -9.1e-4,0.033 -0.0132,0.06 -0.0273,0.0601 -0.0141,0 -0.14118,0.135 -0.28231,0.29988 -0.35434,0.41398 -0.81308,0.85546 -0.97723,0.94048 -0.0754,0.039 -0.23181,0.14607 -0.34759,0.23782 -0.11577,0.0918 -0.22373,0.16689 -0.23991,0.16697 -0.0162,0 -0.0988,0.0469 -0.18364,0.104 -0.0848,0.0571 -0.2699,0.15896 -0.41128,0.22629 -0.14137,0.0673 -0.365,0.1758 -0.49696,0.24103 -0.13195,0.0652 -0.39414,0.17061 -0.58264,0.23418 -0.1885,0.0636 -0.5278,0.18712 -0.754,0.27455 -0.22621,0.0874 -0.52695,0.18802 -0.66833,0.22352 -0.40842,0.10256 -1.10393,0.23857 -1.22001,0.23857 -0.0861,0 -0.54031,0.0888 -0.96216,0.18807 -0.0644,0.0151 -0.0773,0.0486 -0.0959,0.24888 -0.0118,0.12726 -0.0528,0.33162 -0.091,0.45415 -0.07,0.22457 -0.22836,0.54837 -0.2681,0.54837 -0.0244,0 -0.11781,0.18127 -0.39682,0.76976 -0.10689,0.22544 -0.24296,0.47991 -0.30239,0.5655 -0.0594,0.0856 -0.13584,0.2169 -0.16982,0.29181 -0.034,0.0749 -0.11497,0.21632 -0.17998,0.31426 -0.065,0.0979 -0.11819,0.19205 -0.11819,0.20913 0,0.0171 -0.0386,0.0673 -0.0857,0.11156 -0.0471,0.0443 -0.0857,0.0983 -0.0857,0.12016 0,0.0464 -0.27038,0.3492 -0.57053,0.63901 -0.14816,0.14304 -0.21713,0.23783 -0.23243,0.31941 -0.0172,0.0915 -0.0421,0.12047 -0.11803,0.13715 -0.10978,0.0241 -0.31296,0.22228 -0.39494,0.38521 -0.0413,0.0822 -0.0923,0.12058 -0.20085,0.15149 -0.10778,0.0307 -0.19722,0.0976 -0.34526,0.25836 -0.10989,0.11933 -0.21629,0.21695 -0.23645,0.21695 -0.0202,0 -0.11533,0.0833 -0.21148,0.18518 -0.16464,0.17439 -0.33399,0.27484 -0.74938,0.4445 -0.071,0.029 -0.13815,0.0765 -0.14933,0.10564 -0.0112,0.0291 -0.0471,0.053 -0.0799,0.053 -0.0328,0 -0.0875,0.0308 -0.1216,0.0685 -0.0341,0.0377 -0.0807,0.0685 -0.1035,0.0685 -0.0228,0 -0.0783,0.029 -0.12336,0.0644 -0.045,0.0354 -0.17442,0.0881 -0.28753,0.11709 -0.1131,0.029 -0.38294,0.1215 -0.59963,0.2056 -0.2167,0.0841 -0.4711,0.16363 -0.56536,0.17673 -0.0942,0.0131 -0.31788,0.0597 -0.49695,0.10357 -0.59758,0.14639 -1.45425,0.23454 -2.07352,0.21338 -1.10851,-0.0379 -1.67349,-0.10898 -2.57048,-0.32345 -0.5734,-0.1371 -0.84824,-0.22507 -1.19418,-0.38223 -0.129,-0.0586 -0.2678,-0.10692 -0.30846,-0.10736 -0.0406,-3.9e-4 -0.16646,-0.0404 -0.27956,-0.0888 -0.1131,-0.0484 -0.28275,-0.11832 -0.377,-0.15537 -0.16096,-0.0633 -1.37197,-0.66878 -2.05638,-1.02819 -0.16965,-0.0891 -0.35473,-0.18592 -0.41128,-0.21518 -0.17411,-0.0901 -0.70063,-0.43286 -1.16204,-0.75651 -0.24187,-0.16965 -0.47264,-0.33096 -0.51282,-0.35847 -0.0402,-0.0275 -0.14247,-0.10583 -0.22729,-0.17404 -0.0848,-0.0682 -0.23135,-0.17575 -0.3256,-0.23896 -0.19549,-0.1311 -0.577,-0.4572 -0.91957,-0.78602 -0.22413,-0.21513 -0.58518,-0.64231 -0.91409,-1.08154 -0.0847,-0.1131 -0.16946,-0.21696 -0.18836,-0.23081 -0.0515,-0.0378 -1.05259,-0.0308 -1.40528,0.01 -0.2833,0.0326 -1.22053,0.10502 -1.42233,0.10986 -0.0471,10e-4 -0.40185,0.0308 -0.78828,0.0659 -0.78585,0.0714 -2.96631,0.1076 -3.70149,0.0614 -0.23562,-0.0148 -0.9605,-0.0349 -1.61083,-0.0447 -1.26243,-0.019 -1.75176,-0.0383 -2.43339,-0.096 -0.23562,-0.0199 -0.53637,-0.0434 -0.66832,-0.0521 -0.13195,-0.009 -0.47896,-0.045 -0.77114,-0.0807 -0.29218,-0.0357 -0.80885,-0.0822 -1.14815,-0.10333 -1.49505,-0.093 -2.39776,-0.18265 -3.78717,-0.3759 -0.12252,-0.017 -0.43869,-0.0401 -0.7026,-0.0513 -0.2639,-0.0112 -0.59549,-0.0349 -0.73687,-0.0527 -0.76509,-0.0964 -1.72289,-0.14698 -3.54725,-0.18726 -0.41471,-0.009 -1.04705,-0.0322 -1.4052,-0.0511 -0.35815,-0.0189 -0.81313,-0.0381 -1.01105,-0.0427 -0.82135,-0.0188 -5.061346,0.0123 -5.552226,0.0407 -0.29218,0.0169 -0.80748,0.0324 -1.1451,0.0345 -0.33763,0.002 -0.62526,0.0109 -0.63919,0.0195 -0.0139,0.009 -0.41628,0.0312 -0.89414,0.0502 -0.47786,0.019 -0.95366,0.0497 -1.05733,0.0682 -0.10368,0.0185 -0.45841,0.0424 -0.78828,0.0531 -0.60779,0.0198 -1.05509,0.0375 -1.64511,0.0653 -0.17908,0.008 -0.72659,0.0248 -1.21669,0.0364 -0.49011,0.0116 -0.9605,0.035 -1.04533,0.0521 -0.0848,0.0171 -0.51667,0.04 -0.95965,0.051 -0.44297,0.011 -0.95193,0.0358 -1.131,0.0552 -0.17908,0.0194 -0.45669,0.0486 -0.61692,0.065 -0.16023,0.0164 -0.39928,0.0455 -0.53123,0.0648 -0.13195,0.0193 -0.31281,0.0355 -0.40192,0.0361 -0.13333,9.1e-4 -0.17172,0.0159 -0.21691,0.0849 -0.0565,0.0862 -0.4265,1.06876 -0.4265,1.13254 0,0.10734 -0.37335,0.6825 -0.6899,1.06282 -0.3261,0.39178 -1.23614,1.22241 -1.66595,1.52057 -0.83038,0.57604 -1.66391,1.10132 -1.74762,1.10132 -0.0104,0 -0.09,0.0434 -0.17687,0.0965 -0.34391,0.21004 -1.85362,0.86313 -1.99524,0.86313 -0.0168,0 -0.13462,0.0475 -0.26191,0.10558 -0.28287,0.12904 -0.31981,0.14361 -0.55703,0.21971 -0.10367,0.0333 -0.22266,0.0816 -0.26441,0.10751 -0.0417,0.0259 -0.13042,0.047 -0.19705,0.047 -0.1322,0 -0.68338,0.085 -0.87518,0.13493 -0.30169,0.0786 -0.64501,0.1144 -1.19956,0.1252 -0.32988,0.006 -0.86968,0.0179 -1.19956,0.0255 -0.48896,0.0113 -0.64143,0.003 -0.82525,-0.045 z"
       id="path38" />
    <path
       style="fill:#4d4d4d;stroke-width:0.034273"
       d="m 61.294004,71.846484 c 0.12232,-0.27953 0.36567,-0.77 0.53141,-1.07103 0.0778,-0.14137 0.20656,-0.38043 0.28606,-0.53123 0.33634,-0.638 0.53526,-0.96565 0.76991,-1.2681 0.0878,-0.1131 0.18585,-0.24762 0.218,-0.29892 0.0322,-0.0513 0.12394,-0.16876 0.20397,-0.26101 0.08,-0.0923 0.19949,-0.24069 0.26546,-0.32985 0.10753,-0.1453 0.21865,-0.27041 0.75608,-0.85123 0.0837,-0.0904 0.30639,-0.29883 0.49489,-0.46309 0.62245,-0.54239 0.77654,-0.66115 1.4052,-1.08295 0.20735,-0.13912 0.41364,-0.29235 0.45842,-0.34049 0.0448,-0.0481 0.1296,-0.0975 0.1885,-0.10976 0.0589,-0.0122 0.323,-0.11913 0.5869,-0.23758 0.26391,-0.11845 0.70845,-0.2939 0.98787,-0.3899 0.37818,-0.12992 0.53149,-0.19962 0.59978,-0.27267 0.095,-0.10163 0.381,-0.21319 0.72578,-0.28311 0.10368,-0.021 0.25459,-0.0599 0.33536,-0.0865 0.0808,-0.0265 0.21541,-0.0482 0.2992,-0.0482 0.0838,0 0.21584,-0.0254 0.29344,-0.0565 0.12267,-0.0491 0.25155,-0.054 0.98605,-0.0374 0.80467,0.0181 0.98796,0.035 1.5818,0.14513 0.14138,0.0262 0.46526,0.0804 0.71974,0.12046 1.24043,0.19511 2.36533,0.49728 3.6158,0.97127 0.48697,0.18459 1.851,1.00002 2.39482,1.43164 0.26184,0.20783 0.90296,0.83207 1.13318,1.10336 0.11495,0.13545 0.34094,0.38507 0.50219,0.55472 0.76974,0.80982 1.03083,1.10289 1.13365,1.27254 0.0747,0.12334 0.13401,0.18407 0.17962,0.18407 0.13136,0 0.5621,-0.27804 0.65918,-0.42549 0.0507,-0.077 0.16565,-0.22484 0.25543,-0.32852 0.15474,-0.17868 0.403,-0.65361 0.54641,-1.04532 0.0345,-0.0943 0.11046,-0.36458 0.16878,-0.60072 0.1004,-0.40647 0.10646,-0.46946 0.11366,-1.18242 0.008,-0.82893 0.007,-0.83805 -0.21966,-1.09567 -0.0883,-0.10062 -0.10235,-0.13926 -0.084,-0.23181 0.0121,-0.0611 0.0226,-0.13661 0.0233,-0.16786 7.6e-4,-0.0312 0.0311,-0.0838 0.0675,-0.1167 0.0364,-0.0329 0.0662,-0.0756 0.0662,-0.0947 0,-0.0876 0.11812,-0.16018 0.26066,-0.16018 0.10415,0 0.15696,-0.0174 0.18053,-0.0595 0.0279,-0.0498 0.0739,-0.0577 0.28223,-0.048 0.14655,0.007 0.28152,0.0329 0.32819,0.0634 0.0559,0.0366 0.12223,0.0456 0.225,0.0303 0.39404,-0.0586 2.50671,0.0288 2.65397,0.10979 0.0412,0.0226 0.13371,0.0418 0.20564,0.0427 0.0719,7.8e-4 0.19246,0.0253 0.26786,0.0543 0.0754,0.029 0.22155,0.0677 0.32477,0.0859 0.10321,0.0182 0.21117,0.0529 0.23991,0.0772 0.0287,0.0242 0.10622,0.065 0.1722,0.0906 0.36675,0.14227 1.27141,0.64329 1.47702,0.81799 0.5474,0.46515 0.85062,0.75026 0.93527,0.87939 0.0501,0.0764 0.19485,0.24995 0.3217,0.38562 0.12684,0.13569 0.28254,0.30837 0.34599,0.38374 0.0634,0.0754 0.14441,0.13704 0.17993,0.13704 0.0355,0 0.0646,0.0116 0.0646,0.0257 2e-5,0.0141 0.0733,0.10294 0.1628,0.19734 0.0895,0.0944 0.22303,0.24477 0.29668,0.33416 0.0736,0.0894 0.15105,0.16253 0.172,0.16253 0.0209,0 0.0609,0.0358 0.0889,0.0795 0.0279,0.0437 0.21272,0.22519 0.41065,0.40326 0.69668,0.62679 0.7282,0.64026 1.56952,0.67074 l 0.60791,0.022 0.29078,-0.16546 c 0.61774,-0.35152 0.71319,-0.4323 0.95043,-0.80442 0.13148,-0.20624 0.43422,-0.9781 0.54443,-1.38806 0.0567,-0.21098 0.062,-1.00454 0.008,-1.25785 -0.0211,-0.0999 -0.0738,-0.27415 -0.11695,-0.38726 -0.0432,-0.1131 -0.13394,-0.40613 -0.20167,-0.65118 -0.0677,-0.24505 -0.16124,-0.5395 -0.20781,-0.65432 -0.0697,-0.17177 -0.0787,-0.22944 -0.0512,-0.32537 0.0184,-0.0641 0.0334,-0.18892 0.0334,-0.27731 0,-0.13675 0.0115,-0.16427 0.0771,-0.18455 0.0424,-0.0131 0.11567,-0.0681 0.1628,-0.12213 l 0.0857,-0.0983 0.63405,0.0318 c 0.99789,0.05 1.967116,0.22633 2.810386,0.5114 0.59104,0.19981 0.64545,0.22416 0.94278,0.42205 0.36509,0.24298 0.73079,0.48307 0.80028,0.52539 0.031,0.0189 0.13339,0.0968 0.22764,0.17328 0.0942,0.0765 0.27794,0.21526 0.40819,0.30846 0.33977,0.2431 0.8251,0.68004 0.94194,0.84802 0.0551,0.0792 0.16473,0.20567 0.24367,0.28107 0.0789,0.0754 0.21582,0.24506 0.30418,0.37701 0.7473,1.11602 1.20353,1.68171 1.49323,1.85149 0.0793,0.0465 0.16406,0.12155 0.18828,0.16681 0.0373,0.0697 0.49076,0.32903 0.57621,0.32956 0.0141,0 0.14128,0.045 0.28266,0.0998 0.41268,0.15993 1.06992,0.28012 1.54278,0.28214 l 0.40483,0.002 0.12381,-0.13705 c 0.082,-0.0908 0.14459,-0.13161 0.18541,-0.12094 0.0967,0.0253 0.43311,-0.38984 0.49754,-0.61403 0.19753,-0.6873 0.19837,-0.69299 0.29482,-1.99657 0.0476,-0.64366 0.0419,-1.302 -0.0134,-1.54228 -0.026,-0.11311 -0.0873,-0.31026 -0.13623,-0.43812 -0.0739,-0.19317 -0.0805,-0.2357 -0.0393,-0.25152 0.028,-0.0108 0.0597,-0.0885 0.0728,-0.1788 0.0275,-0.18989 0.0691,-0.27971 0.12959,-0.27971 0.0243,0 0.0805,-0.0386 0.12473,-0.0857 0.0914,-0.0973 0.16568,-0.1039 0.57267,-0.0509 0.89607,0.11659 1.41952,0.2322 2.1349,0.47152 0.85043,0.28449 1.36333,0.48994 1.6451,0.65894 0.12253,0.0735 0.25362,0.14504 0.29132,0.15899 0.11353,0.042 0.71759,0.41206 1.03397,0.6334 0.16311,0.11412 0.32878,0.21988 0.36817,0.23502 0.0394,0.0151 0.11124,0.0639 0.15969,0.10844 0.0484,0.0445 0.30849,0.27278 0.57788,0.50728 0.50284,0.43771 0.66432,0.62096 0.86255,0.97883 0.10796,0.1949 0.2895,0.4664 0.41252,0.61692 0.28298,0.34623 0.51463,0.59662 0.74725,0.80769 0.15162,0.13757 0.28476,0.27874 0.29586,0.31372 0.0228,0.0719 0.23877,0.21848 0.37054,0.25155 0.048,0.0121 0.0956,0.048 0.10568,0.0798 0.0221,0.0697 0.32041,0.2552 0.58003,0.36072 0.10354,0.0421 0.24701,0.11695 0.31881,0.16638 0.22367,0.15395 1.083,0.43437 1.33502,0.43565 0.0781,3.9e-4 0.25546,0.0235 0.39414,0.0514 0.42486,0.0854 0.91413,0.11895 1.43456,0.0984 0.4918,-0.0194 0.58265,-0.0412 0.58265,-0.13957 0,-0.0925 0.31427,-0.84291 0.54227,-1.29476 0.32556,-0.6452 0.6489,-1.09468 1.19591,-1.66244 0.60204,-0.62488 0.99904,-0.94597 1.89476,-1.53248 0.16022,-0.10492 0.43784,-0.28674 0.61691,-0.40406 0.39158,-0.25654 1.66427,-0.89913 2.10199,-1.06132 0.38931,-0.14425 1.62455,-0.47098 2.13073,-0.56359 0.20735,-0.0379 0.59292,-0.10825 0.85683,-0.15624 0.2639,-0.048 0.81912,-0.11898 1.23383,-0.15776 0.65459,-0.0612 0.80591,-0.0652 1.14771,-0.0306 0.32879,0.0334 0.43051,0.0584 0.61691,0.15217 0.13518,0.068 0.32459,0.1281 0.48026,0.15247 0.14138,0.0221 0.4267,0.0707 0.63405,0.10781 0.20735,0.0372 0.42612,0.0673 0.48616,0.067 0.06,-3.9e-4 0.14856,0.0144 0.19672,0.0327 0.0482,0.0183 0.2381,0.0574 0.42208,0.0869 0.18398,0.0295 0.38078,0.0676 0.43733,0.0847 0.0565,0.0171 0.24933,0.0647 0.42841,0.10574 0.85046,0.19487 1.16844,0.31934 1.91929,0.7513 0.12253,0.0705 0.35185,0.20225 0.50962,0.2928 0.15776,0.0905 0.33391,0.2045 0.39144,0.25323 0.12694,0.10751 0.38128,0.28844 0.52127,0.37082 0.0566,0.0333 0.18157,0.13761 0.27781,0.23186 0.0963,0.0942 0.25528,0.23858 0.3534,0.32074 0.15613,0.13072 0.76315,0.80716 1.09275,1.21772 0.0622,0.0775 0.14459,0.17948 0.18303,0.22661 0.11717,0.14364 0.77073,1.13897 0.84544,1.28753 0.12896,0.25647 0.005,0.24321 1.46315,0.156 0.53423,-0.0319 1.51876,0.006 2.17634,0.0832 0.23563,0.0278 0.57493,0.0653 0.75401,0.0833 0.32575,0.0329 0.68936,0.0991 2.26202,0.41219 0.46183,0.0919 1.09416,0.21505 1.40519,0.2736 0.31103,0.0585 0.71006,0.1369 0.88673,0.1741 0.23109,0.0487 0.33361,0.0574 0.36536,0.031 0.0243,-0.0201 0.0703,-0.15438 0.10235,-0.2983 0.032,-0.14392 0.0791,-0.32082 0.10459,-0.3931 0.0811,-0.22997 0.0631,-0.24115 -0.6022,-0.37411 -0.19793,-0.0395 -0.56037,-0.14602 -0.80542,-0.23659 -0.24505,-0.0906 -0.56893,-0.20659 -0.71973,-0.25781 -0.1508,-0.0512 -0.34608,-0.12925 -0.43395,-0.17341 -0.0879,-0.0442 -0.26523,-0.11069 -0.39414,-0.14783 -0.27077,-0.078 -0.7934,-0.26647 -1.0912,-0.39345 -0.1131,-0.0482 -0.22549,-0.088 -0.24974,-0.0885 -0.0243,-3.9e-4 -0.23247,-0.0843 -0.46269,-0.18641 -0.23022,-0.10207 -0.58823,-0.25699 -0.79559,-0.34426 -0.20735,-0.0873 -0.43118,-0.19435 -0.4974,-0.23794 -0.0662,-0.0436 -0.15876,-0.0912 -0.20564,-0.10585 -0.12329,-0.0385 -0.90055,-0.43778 -1.18451,-0.60853 -0.13335,-0.0802 -0.38011,-0.22831 -0.54837,-0.32918 -0.16825,-0.10086 -0.33676,-0.21011 -0.37446,-0.24278 -0.0377,-0.0327 -0.14337,-0.10209 -0.23481,-0.15425 -0.26031,-0.14851 -0.85764,-0.68332 -1.02678,-0.91932 -0.0843,-0.11765 -0.19505,-0.25247 -0.24605,-0.2996 -0.051,-0.0471 -0.12401,-0.14737 -0.16225,-0.22277 -0.0382,-0.0754 -0.12196,-0.20912 -0.18607,-0.29715 -0.15184,-0.20851 -0.29842,-0.53514 -0.40828,-0.90981 -0.0849,-0.28969 -0.0875,-0.32472 -0.0683,-0.92766 0.011,-0.34464 0.0341,-0.65309 0.0513,-0.68547 0.0172,-0.0324 0.0459,-0.17522 0.0637,-0.31745 0.0589,-0.4709 0.56791,-1.7446 0.88246,-2.20812 0.0458,-0.0675 0.10574,-0.16477 0.13314,-0.21609 0.0702,-0.13142 0.61363,-0.68069 0.8592,-0.86836 0.26604,-0.20334 0.6901,-0.43461 0.93649,-0.51073 0.21861,-0.0675 0.28935,-0.17081 0.11701,-0.17081 -0.0582,0 -0.37658,-0.1403 -0.76509,-0.33715 -0.36598,-0.18543 -0.75796,-0.37151 -0.87106,-0.4135 -0.18732,-0.0696 -0.29846,-0.11795 -0.72348,-0.31505 -0.0775,-0.0359 -0.15165,-0.0653 -0.16484,-0.0653 -0.0132,0 -0.15667,-0.0633 -0.31884,-0.14073 -0.16216,-0.0774 -0.39644,-0.17857 -0.52062,-0.22484 -0.12418,-0.0463 -0.39543,-0.15081 -0.60278,-0.23232 -0.61572,-0.24204 -1.70308,-0.5618 -2.21061,-0.65008 -0.16023,-0.0279 -0.46869,-0.0826 -0.68546,-0.12164 -0.21678,-0.039 -0.42643,-0.0707 -0.46589,-0.0704 -0.0395,2.6e-4 -0.15513,-0.0278 -0.25705,-0.0624 -0.10192,-0.0346 -0.30097,-0.0811 -0.44235,-0.10331 -0.14137,-0.0222 -0.45754,-0.0731 -0.70259,-0.11305 -0.24506,-0.04 -0.62292,-0.077 -0.83969,-0.0822 -0.21678,-0.005 -0.55696,-0.0207 -0.75597,-0.0344 -0.22143,-0.0153 -0.51399,-0.009 -0.754,0.0154 -0.2157,0.0222 -0.7392,0.0466 -1.16333,0.0544 -0.81311,0.0148 -1.57018,0.0624 -1.88502,0.11846 -0.10367,0.0185 -0.41213,0.0505 -0.68546,0.0711 -0.27332,0.0207 -0.61263,0.0518 -0.754,0.0691 -0.14138,0.0173 -0.50013,0.0471 -0.79723,0.0661 -0.58366,0.0374 -0.69466,0.0704 -0.92869,0.27589 -0.15908,0.13966 -0.32955,0.20531 -0.53317,0.20531 -0.16785,0 -0.17259,-0.003 -0.29016,-0.18008 -0.0657,-0.0991 -0.18106,-0.34745 -0.25626,-0.55201 -0.0752,-0.20455 -0.18885,-0.45896 -0.25257,-0.56535 -0.0637,-0.10639 -0.15199,-0.27826 -0.19619,-0.38194 -0.0442,-0.10367 -0.11816,-0.27333 -0.16438,-0.377 -0.10498,-0.23547 -0.72811,-1.47855 -0.7647,-1.52549 -0.0148,-0.019 -0.0875,-0.15014 -0.16152,-0.29132 -0.074,-0.14119 -0.18393,-0.34718 -0.24428,-0.45776 -0.0603,-0.11057 -0.10241,-0.20836 -0.0935,-0.2173 0.0272,-0.0272 -0.0703,-0.2691 -0.16801,-0.4167 -0.11107,-0.16783 -0.19069,-0.31168 -0.28962,-0.52327 -0.0408,-0.0873 -0.12046,-0.203 -0.17696,-0.25705 -0.0885,-0.0847 -0.57775,-1.02296 -0.57775,-1.10804 0,-0.0167 -0.0368,-0.0741 -0.0819,-0.12758 -0.045,-0.0535 -0.1671,-0.26955 -0.2713,-0.4801 -0.20387,-0.41198 -0.44118,-0.83369 -0.54444,-0.9675 -0.0352,-0.0457 -0.0942,-0.15106 -0.13095,-0.23423 -0.0368,-0.0832 -0.16539,-0.30029 -0.28578,-0.48249 -0.12039,-0.1822 -0.32789,-0.50092 -0.46111,-0.70828 -0.24418,-0.38003 -0.51869,-0.77837 -0.78578,-1.14024 -0.0797,-0.10802 -0.2648,-0.37375 -0.41127,-0.5905 -0.14647,-0.21676 -0.33572,-0.48777 -0.42054,-0.60226 -0.0848,-0.11448 -0.1976,-0.26873 -0.25061,-0.34277 -0.14236,-0.19885 -0.49915,-0.66577 -0.66944,-0.87609 -0.33494,-0.41364 -1.57419,-1.75445 -1.76525,-1.9099 -0.0594,-0.0483 -0.17752,-0.15784 -0.26255,-0.24338 -0.085,-0.0856 -0.25977,-0.23266 -0.38832,-0.32691 -0.2265,-0.16607 -0.48164,-0.36825 -0.62237,-0.49316 -0.0377,-0.0335 -0.18422,-0.1278 -0.32559,-0.20964 -0.14138,-0.0818 -0.31283,-0.19332 -0.381,-0.24773 -0.0892,-0.0712 -0.19481,-0.11161 -0.37701,-0.14423 -0.41024,-0.0734 -0.91531,-0.28649 -2.1552,-0.90906 -1.25006,-0.62769 -1.63053,-0.76983 -2.98176,-1.11394 -0.42412,-0.10801 -0.93308,-0.24736 -1.13101,-0.30966 -0.5736,-0.18057 -0.8534,-0.24599 -2.82752,-0.66113 -0.35815,-0.0753 -0.87482,-0.17055 -1.14815,-0.21163 -0.27332,-0.0411 -0.62034,-0.0961 -0.77114,-0.12218 -0.45691,-0.0791 -0.79481,-0.11546 -1.40519,-0.15104 -0.32046,-0.0187 -0.81399,-0.0497 -1.09674,-0.0689 -1.28858,-0.0875 -3.26767,-0.0569 -4.3184,0.0668 -0.817486,0.0963 -1.396906,0.17279 -1.421006,0.18768 -0.0226,0.014 -0.54261,0.0907 -0.70392,0.10382 -0.18804,0.0153 -1.10414,0.18184 -1.29034,0.23455 -0.10087,0.0286 -0.40703,0.0933 -0.68036,0.14392 -0.27333,0.0506 -0.62034,0.12034 -0.77114,0.15497 -0.1508,0.0346 -0.55951,0.12581 -0.90824,0.20262 -0.34873,0.0768 -0.82684,0.18458 -1.06246,0.23946 -0.23563,0.0549 -0.69832,0.15675 -1.02819,0.22635 -1.48309,0.31295 -2.81252,0.72859 -4.48977,1.40372 -0.066,0.0266 -0.31501,0.11798 -0.55342,0.20316 -0.23841,0.0852 -0.59313,0.22969 -0.78828,0.32113 -0.19515,0.0914 -0.44735,0.20559 -0.56045,0.25367 -0.25662,0.10908 -1.25742,0.47335 -1.29835,0.47257 -0.0367,-6.5e-4 -0.76496,0.32871 -1.65322,0.74776 -0.36041,0.17003 -0.85142,0.38024 -1.09115,0.46714 -0.23973,0.0869 -0.64318,0.25767 -0.89655,0.37949 -0.25337,0.12182 -0.46785,0.2215 -0.47663,0.2215 -0.10445,0 -4.33227,2.09926 -4.49171,2.23029 -0.0203,0.0167 -0.13601,0.0677 -0.25705,0.11337 -0.26537,0.10006 -0.72332,0.34123 -0.8884,0.46785 -0.066,0.0506 -0.17958,0.1114 -0.25247,0.1351 -0.23867,0.0776 -1.03755,0.56342 -1.43874,0.87491 -0.0972,0.0754 -0.28961,0.21368 -0.42764,0.3072 -0.2869,0.19437 -0.33342,0.24473 -0.1937,0.20966 0.0861,-0.0216 0.0918,-0.0182 0.0511,0.0308 -0.0309,0.0372 -0.0756,0.0485 -0.13779,0.0349 -0.0729,-0.016 -0.11639,0.003 -0.20874,0.0918 -0.0642,0.0616 -0.14264,0.12787 -0.17437,0.14722 -0.22382,0.13653 -0.42307,0.30161 -0.83159,0.68897 -0.50721,0.48093 -1.32908,1.35709 -1.53674,1.63825 -0.0713,0.0966 -0.15703,0.20647 -0.19042,0.24417 -0.0334,0.0377 -0.10518,0.13024 -0.15955,0.20564 -0.0543,0.0754 -0.15373,0.19202 -0.22084,0.25916 -0.18274,0.18281 -0.48842,0.53154 -0.53051,0.60523 -0.0204,0.0357 -0.0647,0.0948 -0.0985,0.13147 -0.0338,0.0366 -0.23679,0.33267 -0.45111,0.65785 -0.21431,0.32519 -0.42851,0.63742 -0.47598,0.69385 -0.0475,0.0564 -0.0973,0.13738 -0.11077,0.17989 -0.0134,0.0425 -0.0597,0.12364 -0.10283,0.18027 -0.0431,0.0566 -0.0951,0.14146 -0.11561,0.1885 -0.0205,0.047 -0.0838,0.16265 -0.14081,0.2569 -0.057,0.0942 -0.12098,0.21763 -0.14224,0.27418 -0.0595,0.1583 -0.50734,1.02131 -0.56165,1.0823 -0.0265,0.0298 -0.0482,0.0644 -0.0482,0.077 0,0.0126 -0.056,0.10081 -0.12435,0.19601 -0.0829,0.11544 -0.13009,0.22402 -0.14159,0.32602 -0.0147,0.13032 -0.0381,0.16845 -0.1584,0.25801 -0.13088,0.0974 -0.1574,0.104 -0.36394,0.0901 -0.21281,-0.0144 -0.22814,-0.0101 -0.34273,0.0958 -0.11796,0.10904 -0.12374,0.11047 -0.34832,0.0857 -0.18938,-0.0209 -0.25374,-0.0457 -0.377,-0.14521 -0.30261,-0.24439 -1.73406,-1.03577 -2.21019,-1.22193 -0.0971,-0.038 -0.21331,-0.10578 -0.25825,-0.15072 -0.0449,-0.0449 -0.19684,-0.12499 -0.33756,-0.17789 -0.14072,-0.0529 -0.28669,-0.12357 -0.3244,-0.15704 -0.11104,-0.0986 -0.72004,-0.40613 -0.97517,-0.49244 -0.12964,-0.0439 -0.30557,-0.12689 -0.39094,-0.18451 -0.0854,-0.0576 -0.22536,-0.13578 -0.3111,-0.17371 -0.0857,-0.0379 -0.19248,-0.10844 -0.2372,-0.1567 -0.0549,-0.0592 -0.13268,-0.0948 -0.23938,-0.10941 -0.0869,-0.0119 -0.15013,-0.0345 -0.14044,-0.0502 0.0236,-0.0382 -0.32065,-0.21069 -0.36537,-0.18305 -0.0193,0.012 -0.0612,-9e-4 -0.093,-0.0284 -0.0318,-0.0276 -0.10235,-0.0608 -0.15678,-0.0737 -0.0544,-0.013 -0.22409,-0.0974 -0.37701,-0.18773 -0.15292,-0.0903 -0.51708,-0.29215 -0.80926,-0.4486 -0.55089,-0.29496 -0.94544,-0.54373 -2.27615,-1.4351 -0.85911,-0.57548 -0.92121,-0.60827 -1.37393,-0.72553 -0.20574,-0.0533 -0.34507,-0.11131 -0.4184,-0.17425 -0.13067,-0.11215 -0.23504,-0.13097 -1.14624,-0.20674 -0.39551,-0.0329 -0.77403,-0.0328 -1.78219,3.9e-4 -1.96653,0.0648 -2.39847,0.11421 -4.53597,0.51861 -0.40341,0.0763 -0.6946,0.12403 -0.94251,0.15443 -0.27754,0.034 -0.24635,-0.12007 -0.33295,1.64488 -0.0383,0.78136 -0.0275,1.93313 0.0195,2.07546 0.0593,0.17954 0.37415,0.40354 0.74173,0.52776 0.35946,0.12147 1.61176,0.22475 3.13609,0.25863 1.30671,0.029 1.63094,0.0577 1.91288,0.16879 0.0992,0.0391 0.25572,0.0711 0.3479,0.0711 h 0.16758 l 0.0906,0.19707 c 0.0498,0.10839 0.0992,0.27418 0.10974,0.36843 0.0131,0.11742 0.0464,0.20068 0.10578,0.26447 0.0761,0.0818 0.09,0.13669 0.11456,0.45162 0.0154,0.19718 0.0519,0.46374 0.0812,0.59235 0.0897,0.3946 0.16938,0.98938 0.23958,1.78923 0.0106,0.1203 0.026,0.22977 0.0344,0.24326 0.008,0.0135 0.024,0.13869 0.0349,0.27823 0.0109,0.13953 0.0291,0.29225 0.0404,0.33938 0.0114,0.0471 0.0271,0.11653 0.035,0.15423 0.008,0.0377 0.0148,0.83139 0.0153,1.76376 9.1e-4,1.68927 0.0211,2.05708 0.11898,2.16524 0.0366,0.0404 0.0403,0.064 0.013,0.0809 -0.0264,0.0163 -0.0331,0.129 -0.0213,0.35471 0.0175,0.33356 0.10861,1.36634 0.13883,1.57378 0.0506,0.34718 0.0864,0.67936 0.10437,0.96765 0.0111,0.17908 0.0349,0.41814 0.0527,0.53124 0.0894,0.56748 0.15958,1.30954 0.24325,2.57047 0.0213,0.32046 0.0502,0.59807 0.0643,0.61692 0.0141,0.0189 0.0351,0.10367 0.0467,0.1885 0.0262,0.19202 0.0514,0.31703 0.21028,1.04533 0.0699,0.32045 0.13974,0.6537 0.15517,0.74056 0.037,0.20853 0.10697,0.45114 0.14145,0.49069 0.0152,0.0174 0.17839,0.0438 0.36266,0.0586 0.18426,0.0148 0.51239,0.051 0.72916,0.0804 0.21678,0.0294 0.52524,0.0683 0.68546,0.0865 0.52526,0.0595 1.35628,0.19561 1.43137,0.23437 0.0327,0.0169 0.15976,0.0408 0.28229,0.0532 0.26383,0.0266 0.67331,0.114 1.42233,0.30359 0.3016,0.0763 0.67175,0.16549 0.82255,0.1981 0.29683,0.0642 0.38814,0.0988 0.85683,0.32459 0.16965,0.0817 0.35807,0.1587 0.4187,0.17102 0.0606,0.0123 0.16456,0.0593 0.23095,0.10431 0.14663,0.0995 0.3002,0.1841 0.33759,0.18596 0.0152,7.8e-4 0.0664,-0.0873 0.11384,-0.1957 z"
       id="path180" />
    <path
       style="fill:#999999;stroke-width:0.034273"
       d="m 138.86663,85.679094 c 0.5707,-0.071 1.64532,-0.28466 2.05639,-0.40896 0.35685,-0.10791 0.965,-0.34005 1.11387,-0.42519 0.0754,-0.0431 0.26365,-0.12832 0.41833,-0.18931 0.22451,-0.0885 0.33576,-0.16018 0.55149,-0.35515 0.14863,-0.13432 0.39933,-0.35219 0.5571,-0.48414 0.4458,-0.37284 1.45826,-1.41172 1.64637,-1.68934 0.27112,-0.40011 0.46208,-0.73109 0.52817,-0.91541 0.0338,-0.0942 0.1421,-0.34102 0.24069,-0.54837 0.31338,-0.65911 0.42766,-1.08345 0.42766,-1.58795 v -0.37776 l 0.11526,-0.0967 c 0.14397,-0.12085 0.1725,-0.17864 0.22536,-0.45662 0.0429,-0.2258 0.10373,-0.52036 0.1753,-0.84943 0.0217,-0.0996 0.0538,-0.28468 0.0714,-0.41128 0.0176,-0.12659 0.0473,-0.3227 0.0661,-0.4358 0.0187,-0.1131 0.0475,-0.48618 0.064,-0.82906 0.0165,-0.34288 0.0455,-0.67447 0.0645,-0.73687 0.0514,-0.16884 0.0781,-0.47929 0.0392,-0.45526 -0.019,0.0117 -0.0328,-0.0435 -0.0328,-0.13121 0,-0.0833 -0.01,-0.22302 -0.0218,-0.31048 -0.0149,-0.10863 -0.009,-0.15901 0.0171,-0.15901 0.0256,0 0.0389,0.088 0.0389,0.25705 0,0.14174 0.0148,0.25705 0.033,0.25705 0.0363,0 0.0266,-0.88487 -0.0113,-1.02819 -0.0193,-0.0731 -0.0875,-0.49225 -0.0895,-0.55071 -3.9e-4,-0.0107 -0.0515,-0.0766 -0.11365,-0.14647 -0.1344,-0.15107 -0.29996,-0.66997 -0.38406,-1.20372 -0.0296,-0.18781 -0.0673,-0.34978 -0.0837,-0.35995 -0.0164,-0.0102 -0.0407,-0.0763 -0.054,-0.14703 -0.0133,-0.0707 -0.0687,-0.1846 -0.1231,-0.25311 -0.0544,-0.0685 -0.099,-0.13647 -0.099,-0.15103 0,-0.0146 -0.0707,-0.0934 -0.15703,-0.17522 -0.21267,-0.20146 -0.23196,-0.24373 -0.25555,-0.56002 -0.0223,-0.29952 -0.008,-0.27001 -0.50003,-1.01684 -0.12012,-0.18225 -0.2184,-0.34057 -0.2184,-0.35181 0,-0.0319 -0.39432,-0.52168 -0.6641,-0.82483 -0.31853,-0.35792 -0.61153,-0.64463 -0.87563,-0.85682 -0.1173,-0.0942 -0.29311,-0.23783 -0.39067,-0.31907 -0.16112,-0.13415 -0.29988,-0.22458 -0.87999,-0.57346 -0.10368,-0.0624 -0.22967,-0.14552 -0.27999,-0.18482 -0.0902,-0.0704 -0.39084,-0.20633 -0.80621,-0.36445 -0.11674,-0.0444 -0.40206,-0.12863 -0.63406,-0.18711 -0.38346,-0.0966 -0.43894,-0.10276 -0.61031,-0.0673 -0.17159,0.0355 -0.22231,0.0299 -0.5655,-0.0631 -0.20735,-0.0562 -0.5081,-0.12815 -0.66833,-0.16 -0.16022,-0.0319 -0.39928,-0.0866 -0.53123,-0.12158 -0.13195,-0.035 -0.36329,-0.0873 -0.51409,-0.11626 -0.57807,-0.11089 -0.70488,-0.1465 -0.78302,-0.21992 -0.18958,-0.1781 -0.48821,-0.16537 -1.87314,0.0798 -0.25448,0.045 -0.64005,0.10685 -0.85683,0.13734 -0.36232,0.0509 -0.5336,0.0847 -1.21669,0.23959 -0.28133,0.0638 -0.87131,0.22947 -1.16823,0.32803 -0.17858,0.0593 -1.23327,0.55323 -1.38511,0.64869 -0.0283,0.0178 -0.16708,0.0968 -0.30846,0.17566 -0.14138,0.0788 -0.30325,0.1759 -0.35972,0.2157 -0.0565,0.0398 -0.15064,0.0982 -0.20927,0.12977 -0.0586,0.0316 -0.15893,0.10577 -0.22291,0.16489 -0.064,0.0591 -0.19366,0.14324 -0.28817,0.18692 -0.0945,0.0437 -0.2873,0.17604 -0.42842,0.29412 -0.14111,0.11809 -0.31722,0.25492 -0.39134,0.30406 -0.23134,0.15338 -0.33836,0.25244 -0.83699,0.77481 -0.59675,0.62516 -1.09456,1.44336 -1.37581,2.26124 -0.2086,0.60663 -0.33776,1.03798 -0.42614,1.42311 -0.0454,0.19793 -0.10678,0.43698 -0.13637,0.53124 -0.0296,0.0942 -0.054,0.22048 -0.0542,0.28052 -3.9e-4,0.06 -0.0164,0.1512 -0.0359,0.2026 -0.0195,0.0514 -0.0592,0.21819 -0.0881,0.37067 -0.0289,0.15247 -0.0651,0.34292 -0.0804,0.42322 -0.0913,0.47922 0.0112,2.5858 0.14037,2.88716 0.0202,0.0471 0.11855,0.32074 0.21855,0.60803 0.20376,0.58544 0.66181,1.50676 0.86512,1.7401 0.0836,0.096 0.17831,0.27696 0.27292,0.52165 0.21106,0.54589 0.29324,0.67679 0.51325,0.81753 0.16388,0.10483 0.18543,0.1312 0.16705,0.20443 -0.0366,0.1457 0.082,0.4293 0.28544,0.68259 0.29472,0.36701 0.64157,0.72393 0.97021,0.99841 0.28882,0.24121 0.37999,0.30813 1.02267,0.75063 0.16427,0.1131 0.44209,0.30589 0.61739,0.42842 0.42373,0.29616 0.59692,0.39465 1.26584,0.71987 0.31103,0.15121 0.61949,0.30589 0.68547,0.34372 0.14999,0.086 0.36251,0.18498 0.49696,0.2314 0.16488,0.0569 0.74311,0.30935 0.87396,0.38153 0.2856,0.15752 0.64793,0.31961 0.82255,0.36797 0.64522,0.17869 1.50501,0.38747 1.67206,0.40602 0.1077,0.012 0.32691,0.0457 0.48714,0.075 0.64294,0.11762 1.34645,0.11934 2.26202,0.006 z"
       id="path146" />
    <path
       style="fill:#999999;stroke-width:0.034273"
       d="m 73.525104,86.368484 c 0.93914,-0.0561 2.10061,-0.30459 2.94069,-0.62913 0.43603,-0.16844 0.76143,-0.28152 1.20635,-0.41922 0.16965,-0.0525 0.3393,-0.1211 0.377,-0.15243 0.0377,-0.0313 0.14105,-0.084 0.22966,-0.11697 0.0886,-0.033 0.18741,-0.089 0.21952,-0.12453 0.0321,-0.0355 0.088,-0.0645 0.12418,-0.0645 0.079,0 0.46701,-0.36082 0.51071,-0.47498 0.0255,-0.0666 0.0399,-0.0734 0.0816,-0.0388 0.0405,0.0336 0.0764,0.0299 0.17936,-0.0182 0.15006,-0.0702 0.53659,-0.33671 1.01672,-0.70113 0.18678,-0.14176 0.4027,-0.30547 0.47982,-0.3638 0.29068,-0.21983 0.97529,-0.9107 1.14334,-1.1538 0.17038,-0.24646 0.52203,-1.00237 0.52203,-1.12215 0,-0.033 0.0365,-0.14288 0.081,-0.24419 0.0446,-0.10131 0.0981,-0.28445 0.11903,-0.40697 0.0352,-0.2063 0.12823,-0.99123 0.13609,-1.14815 0.007,-0.1315 0.1088,-0.99564 0.14391,-1.21669 0.0462,-0.29087 0.10187,-1.39214 0.10226,-2.02262 4.4e-4,-0.72094 -0.13308,-2.30058 -0.24043,-2.84415 -0.0354,-0.17908 -0.0745,-0.40271 -0.087,-0.49696 -0.0313,-0.2369 -0.26625,-1.13921 -0.387,-1.48636 -0.10287,-0.29572 -0.14141,-0.34583 -0.2667,-0.34672 -0.0403,-3.9e-4 -0.13736,-0.0659 -0.21615,-0.14619 -0.12963,-0.13206 -0.14148,-0.15846 -0.12693,-0.28275 0.009,-0.0754 0.0258,-0.17565 0.0378,-0.22278 0.0174,-0.0685 -0.008,-0.11974 -0.12549,-0.25566 -0.18419,-0.21262 -0.68832,-0.75183 -1.1228,-1.20094 -0.18237,-0.1885 -0.37388,-0.39671 -0.42557,-0.46268 -0.14489,-0.1849 -0.63283,-0.67769 -0.85242,-0.86089 -0.33253,-0.27743 -1.18231,-0.82632 -1.70531,-1.1015 -0.85426,-0.44948 -2.03197,-0.84039 -3.16995,-1.0522 -0.43329,-0.0806 -1.63356,-0.2904 -1.98783,-0.34739 -0.61333,-0.0987 -1.65469,-0.007 -2.35112,0.20759 -0.63681,0.19596 -0.88646,0.29542 -1.59028,0.63357 -0.82787,0.39775 -1.08837,0.48877 -1.5392,0.53781 -0.39809,0.0433 -0.34788,0.0175 -1.01414,0.52152 -0.48966,0.37043 -0.90732,0.74391 -1.18019,1.05535 -0.0553,0.0632 -0.19997,0.22277 -0.32143,0.35472 -0.37342,0.40567 -0.65841,0.79673 -1.31131,1.79934 -0.043,0.066 -0.21568,0.38985 -0.38382,0.71973 -0.16813,0.32988 -0.35597,0.68461 -0.41742,0.78828 -0.0614,0.10368 -0.14643,0.28104 -0.18885,0.39414 -0.0424,0.1131 -0.11498,0.28887 -0.16125,0.3906 -0.12293,0.27025 -0.61132,1.76825 -0.67584,2.07297 -0.14235,0.67224 -0.19463,0.96637 -0.21394,1.20365 -0.006,0.0754 -0.0204,0.2142 -0.0317,0.30845 -0.0196,0.16386 0.008,0.70804 0.0901,1.74761 0.0247,0.31416 0.0729,0.61551 0.13994,0.87396 0.0562,0.21695 0.12491,0.487 0.15261,0.6001 0.1393,0.56876 0.39829,1.31229 0.4927,1.41445 0.0301,0.0326 0.10746,0.15183 0.17185,0.26493 0.16523,0.29026 0.24504,0.40348 0.48851,0.69303 0.11772,0.13999 0.27396,0.32665 0.34721,0.4148 0.55316,0.66571 1.72134,1.81681 2.03063,2.00094 0.054,0.0322 0.25244,0.16724 0.44094,0.30017 0.53042,0.37405 1.41367,0.79014 2.4119,1.13621 0.10128,0.0351 0.29406,0.11652 0.42841,0.1809 0.13435,0.0644 0.31367,0.13546 0.3985,0.15795 0.0848,0.0225 0.17053,0.0542 0.19046,0.0705 0.0199,0.0163 0.12789,0.0532 0.23991,0.082 0.11203,0.0288 0.34248,0.0986 0.51214,0.155 0.49394,0.16431 1.26874,0.31127 2.00497,0.38029 0.21677,0.0203 0.50981,0.0491 0.65118,0.0639 0.37768,0.0395 0.60318,0.0397 1.25097,0.001 z"
       id="path136" />
    <path
       style="fill:#333333;stroke-width:0.034273"
       d="m 72.753964,83.192814 c -0.0471,-0.008 -0.19365,-0.037 -0.3256,-0.0646 -0.13195,-0.0276 -0.32424,-0.0667 -0.42732,-0.0869 -0.10308,-0.0202 -0.24207,-0.0646 -0.30888,-0.0987 -0.0668,-0.0341 -0.23365,-0.096 -0.37079,-0.1377 -0.13715,-0.0417 -0.26805,-0.0942 -0.29091,-0.11668 -0.0229,-0.0225 -0.16495,-0.10843 -0.31575,-0.19091 -0.25929,-0.1418 -0.85146,-0.49664 -1.11387,-0.66745 -0.066,-0.043 -0.21769,-0.13796 -0.33715,-0.21114 -0.11945,-0.0732 -0.2964,-0.1909 -0.39321,-0.26159 -0.0968,-0.0707 -0.19298,-0.12852 -0.2137,-0.12852 -0.071,0 -0.45581,-0.29139 -0.74674,-0.56551 -0.88254,-0.83152 -1.01665,-0.96262 -1.01671,-0.99393 -10e-5,-0.0477 -0.23737,-0.30102 -0.35136,-0.37506 -0.0518,-0.0337 -0.0942,-0.0772 -0.0942,-0.0968 0,-0.0196 -0.0733,-0.11602 -0.1628,-0.21433 -0.65864,-0.72317 -1.01884,-1.69483 -1.01613,-2.74109 0.002,-0.62948 0.0434,-1.2388 0.0986,-1.43947 0.0259,-0.0942 0.0802,-0.35644 0.12049,-0.58264 0.1237,-0.69368 0.39938,-1.47667 0.59733,-1.69651 0.0424,-0.0471 0.24448,-0.31458 0.449,-0.59433 0.5423,-0.74178 0.66196,-0.84504 2.20355,-1.90146 0.28067,-0.19234 0.37913,-0.28034 0.4218,-0.37701 0.0512,-0.11593 0.0512,-0.13117 5.2e-4,-0.18914 -0.0516,-0.0589 -0.0473,-0.0703 0.0666,-0.17462 0.0994,-0.0911 0.19057,-0.1281 0.49648,-0.20158 1.14458,-0.27493 2.59031,-0.39779 3.49359,-0.29687 0.3966,0.0443 0.99612,0.23225 1.41942,0.44499 0.18333,0.0921 0.41845,0.19938 0.5225,0.23831 0.37178,0.1391 1.33707,0.65698 1.72529,0.92561 0.61309,0.42425 1.30338,1.07662 1.54249,1.45777 0.0709,0.1131 0.15712,0.2368 0.19149,0.27487 0.0344,0.0381 0.10077,0.16917 0.14756,0.29132 0.0468,0.12215 0.14139,0.35319 0.21024,0.51341 0.0688,0.16023 0.13858,0.33759 0.15497,0.39414 0.0164,0.0566 0.0688,0.21315 0.11649,0.34799 0.0477,0.13484 0.13397,0.42788 0.19174,0.65118 0.0578,0.22332 0.12729,0.49085 0.15448,0.59453 0.0714,0.27221 0.15961,1.37432 0.13578,1.69651 -0.0515,0.69649 -0.12167,1.14643 -0.20923,1.34183 -0.0266,0.0594 -0.0484,0.12515 -0.0484,0.14612 0,0.073 -0.23426,0.74104 -0.32246,0.91957 -0.0488,0.0989 -0.0888,0.18732 -0.0888,0.19655 0,0.04 -0.24561,0.42538 -0.72129,1.13169 -0.35053,0.52049 -1.03077,1.26131 -1.36937,1.49132 -0.066,0.0448 -0.18936,0.142 -0.27418,0.21596 -0.0848,0.074 -0.25448,0.18364 -0.37701,0.24373 -0.12252,0.0601 -0.30672,0.16842 -0.40933,0.24074 -0.2317,0.16331 -1.1697,0.52533 -1.47568,0.56954 -0.55207,0.0798 -0.7986,0.0997 -1.18242,0.0956 -0.2262,-0.002 -0.44984,-0.0109 -0.49696,-0.0188 z"
       id="path138" />
    <path
       style="fill:#999999;stroke-width:0.034273"
       d="m 156.66007,68.125494 c 0.14254,-0.18034 0.30291,-1.10788 0.2023,-1.17006 -0.0176,-0.0109 -0.049,-0.10045 -0.0697,-0.19909 -0.0208,-0.0986 -0.0738,-0.26732 -0.11781,-0.37486 -0.044,-0.10753 -0.0732,-0.23148 -0.0648,-0.27543 0.018,-0.0944 -0.19781,-0.85785 -0.31237,-1.10489 -0.0439,-0.0947 -0.10647,-0.25691 -0.13908,-0.36058 -0.15639,-0.49729 -0.67425,-1.59914 -0.93423,-1.98777 -0.09,-0.13456 -0.18685,-0.28601 -0.2152,-0.33657 -0.3256,-0.58056 -2.26584,-2.55752 -3.19212,-3.25252 -0.26486,-0.19873 -1.11764,-0.78857 -1.32706,-0.91788 -0.0305,-0.0188 -0.14029,-0.0883 -0.24392,-0.15423 -0.18124,-0.11539 -0.20017,-0.11981 -0.49727,-0.11627 -0.2428,0.003 -0.38584,0.0272 -0.66873,0.11376 -0.19793,0.0605 -0.42431,0.14757 -0.50306,0.19339 -0.0817,0.0475 -0.19782,0.0833 -0.27026,0.0833 -0.0865,0 -0.15124,0.0246 -0.20277,0.0771 -0.0416,0.0424 -0.1709,0.15205 -0.28722,0.24364 -0.11633,0.0916 -0.28452,0.25311 -0.37376,0.35893 -0.0892,0.10583 -0.19915,0.22747 -0.24423,0.27032 -0.10655,0.10127 -0.19025,0.26163 -0.14452,0.27687 0.0465,0.0155 -0.0496,0.22019 -0.20436,0.43537 -0.35616,0.4952 -0.55447,1.13665 -0.58276,1.88501 -0.0321,0.84773 -0.0477,0.76185 0.25043,1.37977 0.0387,0.0803 0.143,0.22891 0.23174,0.33032 0.0887,0.1014 0.25539,0.31465 0.37034,0.47388 0.31376,0.43462 0.61226,0.66424 1.49774,1.1521 0.53172,0.29296 1.89298,0.94844 2.51907,1.21301 0.31103,0.13143 0.66635,0.28169 0.7896,0.33391 0.12324,0.0522 0.28961,0.12838 0.3697,0.16923 0.14903,0.076 0.84265,0.33654 1.39404,0.52358 0.16965,0.0575 0.401,0.13964 0.5141,0.18244 0.1131,0.0428 0.31359,0.096 0.44555,0.11823 0.25348,0.0427 0.71616,0.21191 0.80885,0.29579 0.0303,0.0274 0.14598,0.0665 0.25714,0.0868 0.11116,0.0204 0.32549,0.0648 0.47629,0.0987 0.30439,0.0685 0.38445,0.0607 0.46833,-0.0454 z"
       id="path226" />
    <path
       style="fill:#e6e6e6;stroke-width:0.034273"
       d="m 48.694384,69.505894 c 0.17907,-0.0186 1.05047,-0.0473 1.93642,-0.0638 0.88596,-0.0165 1.63783,-0.041 1.67082,-0.0546 0.033,-0.0136 0.06,-0.0391 0.06,-0.0568 0,-0.0323 -0.0673,-0.33061 -0.15358,-0.68027 -0.0256,-0.10367 -0.0644,-0.3273 -0.0863,-0.49696 -0.0219,-0.16965 -0.0542,-0.37786 -0.0717,-0.46268 -0.0175,-0.0848 -0.0461,-0.35473 -0.0635,-0.59978 -0.07,-0.98649 -0.10912,-1.45326 -0.14493,-1.73079 -0.0207,-0.16022 -0.0448,-0.42736 -0.0536,-0.59363 -0.018,-0.34071 -0.0417,-0.36979 -0.21824,-0.26862 -0.15134,0.0867 -0.33831,0.11104 -0.96887,0.12615 -2.28717,0.0548 -2.34782,0.0598 -3.53442,0.29066 -0.76355,0.14857 -1.96639,0.33986 -2.56534,0.408 -0.14798,0.0168 -0.28456,0.0461 -0.30351,0.0651 -0.0231,0.0231 -0.0159,0.11747 0.0218,0.28617 0.0309,0.13845 0.0687,0.31341 0.0839,0.38881 0.0152,0.0754 0.0446,0.19878 0.0652,0.27418 0.0206,0.0754 0.0618,0.29132 0.0916,0.47983 0.12076,0.76487 0.18077,1.03018 0.35007,1.54777 0.075,0.22923 0.4766,0.82868 0.61885,0.92368 0.21288,0.14217 0.65101,0.21703 1.46615,0.25052 0.78764,0.0324 1.25214,0.0238 1.79934,-0.033 z"
       id="path224" />
    <path
       style="fill:#000000;stroke-width:0.034273"
       d="m 74.343984,44.085304 c 0.0356,-0.0418 0.1513,-0.12471 0.25705,-0.1843 0.10574,-0.0596 0.2582,-0.16226 0.33879,-0.22817 0.0806,-0.0659 0.15621,-0.11018 0.16803,-0.0984 0.0298,0.0298 -0.12663,0.14843 -0.43826,0.33254 -0.14509,0.0857 -0.29229,0.17799 -0.3271,0.20504 -0.0592,0.046 -0.0591,0.0443 0.001,-0.0268 z"
       id="path222" />
    <path
       style="fill:#000000;stroke-width:0.034273"
       d="m 74.022154,44.268934 c 0,-0.007 0.0239,-0.0227 0.0532,-0.0339 0.0305,-0.0117 0.0443,-0.006 0.0323,0.0135 -0.0201,0.0326 -0.0854,0.0482 -0.0854,0.0204 z"
       id="path220" />
    <path
       style="fill:#000000;stroke-width:0.034273"
       d="m 78.170764,44.862104 c 0.021,-0.0393 0.0451,-0.0647 0.0534,-0.0563 0.024,0.024 -0.0246,0.1278 -0.0599,0.1278 -0.0175,0 -0.0146,-0.0322 0.006,-0.0715 z"
       id="path218" />
    <path
       style="fill:#000000;stroke-width:0.034273"
       d="m 77.963554,45.177694 c 0,-0.0165 0.0231,-0.0493 0.0514,-0.0727 0.0558,-0.0463 0.0628,-0.0352 0.0306,0.0486 -0.022,0.0574 -0.082,0.075 -0.082,0.0241 z"
       id="path216" />
    <path
       style="fill:#000000;stroke-width:0.034273"
       d="m 77.894954,45.344864 c 0,-0.0189 0.0163,-0.0343 0.0363,-0.0343 0.02,0 0.0268,0.0154 0.0151,0.0343 -0.0116,0.0189 -0.028,0.0343 -0.0363,0.0343 -0.008,0 -0.0151,-0.0154 -0.0151,-0.0343 z"
       id="path214" />
    <path
       style="fill:#000000;stroke-width:0.034273"
       d="m 76.798214,47.749094 c 0,-0.016 0.0169,-0.0777 0.0376,-0.13709 0.0407,-0.11681 0.11662,-0.15213 0.0846,-0.0394 -0.0107,0.0377 -0.0282,0.0994 -0.0389,0.13709 -0.019,0.0669 -0.0834,0.0973 -0.0834,0.0394 z"
       id="path212" />
    <path
       style="fill:#000000;stroke-width:0.034273"
       d="m 76.719714,47.881074 c 0.01,-0.0377 0.0316,-0.0685 0.0482,-0.0685 0.0358,0 0.0371,0.0109 0.009,0.0829 -0.0302,0.0787 -0.0788,0.0666 -0.0577,-0.0143 z"
       id="path210" />
    <path
       style="fill:#000000;stroke-width:0.034273"
       d="m 76.661114,48.086704 c 0,-0.0189 0.0154,-0.0343 0.0343,-0.0343 0.0189,0 0.0343,0.0154 0.0343,0.0343 0,0.0189 -0.0154,0.0343 -0.0343,0.0343 -0.0188,0 -0.0343,-0.0154 -0.0343,-0.0343 z"
       id="path208" />
    <path
       style="fill:#000000;stroke-width:0.034273"
       d="m 76.372624,49.012084 c 0.0254,-0.0955 0.0416,-0.12119 0.0629,-0.0999 0.008,0.008 -0.008,0.0529 -0.0357,0.1 l -0.05,0.0856 z"
       id="path206" />
    <path
       style="fill:#000000;stroke-width:0.034273"
       d="m 76.249844,49.303404 c 0,-0.0283 0.0149,-0.0514 0.0332,-0.0514 0.0183,0 0.0243,0.0231 0.0135,0.0514 -0.0109,0.0283 -0.0258,0.0514 -0.0332,0.0514 -0.007,0 -0.0135,-0.0231 -0.0135,-0.0514 z"
       id="path204" />
    <path
       style="fill:#000000;stroke-width:0.034273"
       d="m 59.421784,50.417274 c -0.0309,-0.02 -0.0351,-0.0334 -0.0106,-0.0337 0.0224,-2.6e-4 0.0503,0.0149 0.062,0.0337 0.0263,0.0426 0.0144,0.0426 -0.0514,0 z"
       id="path202" />
    <path
       style="fill:#000000;stroke-width:0.034273"
       d="m 128.39625,51.068464 c -0.0116,-0.0189 -0.005,-0.0343 0.0151,-0.0343 0.02,0 0.0363,0.0154 0.0363,0.0343 0,0.0188 -0.007,0.0343 -0.0151,0.0343 -0.008,0 -0.0247,-0.0154 -0.0363,-0.0343 z"
       id="path200" />
    <path
       style="fill:#000000;stroke-width:0.034273"
       d="m 108.75781,57.444904 c 0.28275,-0.0207 0.6529,-0.0528 0.82255,-0.0714 0.64733,-0.071 2.04732,-0.17078 2.63902,-0.18802 0.79542,-0.0232 1.97987,-0.0871 2.0155,-0.10885 0.0152,-0.009 0.17715,-0.0304 0.35986,-0.0471 0.84305,-0.0767 1.07771,-0.11589 2.28577,-0.38215 0.43356,-0.0956 0.91938,-0.19337 1.07961,-0.21735 0.36703,-0.0549 1.03211,-0.17169 1.23417,-0.21666 0.0846,-0.0188 0.49181,-0.0904 0.90483,-0.15912 0.8536,-0.14195 1.10829,-0.22105 1.79625,-0.55788 0.5522,-0.27036 0.82981,-0.50379 0.8959,-0.75333 0.11271,-0.42558 0.10826,-0.71642 -0.0203,-1.32692 -0.0285,-0.13533 -0.41236,-1.02358 -0.59135,-1.36838 -0.0776,-0.14941 -0.14101,-0.28252 -0.14101,-0.2958 0,-0.0537 -0.59927,-1.14418 -0.74829,-1.36165 -0.23273,-0.33963 -0.44929,-0.63911 -0.6055,-0.83736 -0.23532,-0.29865 -0.41993,-0.54908 -0.5882,-0.79794 -0.15964,-0.2361 -0.33849,-0.47863 -0.42051,-0.57025 -0.023,-0.0257 -0.0753,-0.10238 -0.11631,-0.17047 -0.041,-0.0681 -0.16707,-0.266 -0.28017,-0.4398 -0.40896,-0.62841 -0.51862,-0.81054 -0.59958,-0.99582 -0.0453,-0.10368 -0.10893,-0.21935 -0.14141,-0.25705 -0.0697,-0.0809 -0.43196,-0.61026 -0.84436,-1.23383 -0.32413,-0.49009 -0.65082,-0.93289 -0.7464,-1.01169 -0.0339,-0.0279 -0.11358,-0.12788 -0.17714,-0.22214 -0.0636,-0.0942 -0.21498,-0.30245 -0.3365,-0.46268 -0.12152,-0.16023 -0.30872,-0.41085 -0.416,-0.55694 -0.10728,-0.14609 -0.20601,-0.26561 -0.21941,-0.26561 -0.0134,0 -0.12763,-0.11953 -0.25387,-0.26562 -0.68123,-0.78834 -1.04253,-1.17385 -1.10012,-1.17385 -0.0236,0 -0.13293,-0.0903 -0.24305,-0.20073 -0.11012,-0.11041 -0.26576,-0.2417 -0.34587,-0.29176 -0.0801,-0.05 -0.14566,-0.10624 -0.14566,-0.12486 0,-0.0186 -0.0175,-0.0338 -0.039,-0.0338 -0.0214,0 -0.14867,-0.0725 -0.28275,-0.16102 -0.28315,-0.18703 -0.77083,-0.43028 -1.18628,-0.59171 -0.16023,-0.0623 -0.41025,-0.16513 -0.55561,-0.2286 -0.14536,-0.0635 -0.27212,-0.11541 -0.28169,-0.11541 -0.01,0 -0.22995,-0.083 -0.48972,-0.18451 -0.25978,-0.10148 -0.63775,-0.23184 -0.83996,-0.28968 -0.2022,-0.0579 -0.39718,-0.121 -0.4333,-0.14032 -0.0361,-0.0193 -0.23311,-0.067 -0.43778,-0.106 -0.20466,-0.039 -0.51863,-0.10051 -0.6977,-0.13676 -0.17908,-0.0362 -0.55694,-0.0825 -0.83969,-0.10274 -0.28276,-0.0203 -0.67401,-0.0525 -0.86947,-0.0715 -0.585,-0.0571 -2.55938,-0.0661 -3.09681,-0.0141 -0.25874,0.025 -0.58262,0.0466 -0.71973,0.0478 -0.26418,0.002 -0.38494,0.0157 -0.84501,0.0928 -0.15798,0.0265 -0.29987,0.0482 -0.3153,0.0482 -0.0154,0 -0.0283,0.24736 -0.0286,0.54969 -3.9e-4,0.30232 -0.009,0.56323 -0.0191,0.57978 -0.0102,0.0166 -0.0179,0.15091 -0.017,0.29857 9.1e-4,0.14766 -0.003,0.8237 -0.008,1.5023 -0.0145,1.92107 -0.003,2.87615 0.0388,3.199 0.0211,0.16327 0.054,0.41461 0.0729,0.55853 0.019,0.14393 0.041,0.50637 0.049,0.80542 0.008,0.29905 0.0222,0.67483 0.0317,0.83506 0.009,0.16022 0.0266,0.52266 0.038,0.80541 0.0114,0.28276 0.0344,0.56808 0.051,0.63405 0.0166,0.066 0.0472,0.49782 0.068,0.95965 0.0208,0.46183 0.0584,0.96307 0.0836,1.11387 0.0641,0.3841 0.082,1.48112 0.0592,3.63294 -0.012,1.13444 0.006,2.22894 0.0471,2.8482 l 0.0252,0.38054 0.2133,0.0393 c 0.11733,0.0216 0.38119,0.0394 0.58637,0.0395 0.20518,1.1e-4 0.75862,0.0324 1.22987,0.0718 0.80908,0.0676 2.65436,0.12518 3.54726,0.11072 0.21678,-0.004 0.62549,-0.0233 0.90824,-0.0439 z"
       id="path198" />
    <path
       style="fill:#e6e6e6;stroke-width:1.034;stroke:#000000;stroke-miterlimit:4;stroke-dasharray:none"
       d="m 106.56681,58.513884 c -0.005,-0.005 -0.37766,-0.0158 -0.82827,-0.0241 -0.79563,-0.0147 -1.33222,-0.0439 -2.13192,-0.11591 -0.21297,-0.0192 -0.45974,-0.0239 -0.54837,-0.0105 -0.0886,0.0134 -0.22634,0.0152 -0.30605,0.004 -0.0797,-0.0112 -0.31104,-0.01 -0.51409,0.003 -0.20305,0.013 -0.40003,0.0106 -0.43773,-0.005 -0.0377,-0.016 -0.12253,-0.0919 -0.1885,-0.16857 -0.066,-0.0767 -0.16951,-0.19172 -0.23009,-0.25559 -0.13255,-0.13976 -0.13242,-0.13917 -0.17876,-0.80638 -0.0612,-0.88092 -0.0745,-1.42922 -0.0891,-3.68435 -0.0143,-2.1933 -0.0257,-2.5786 -0.0854,-2.87205 -0.0184,-0.0905 -0.0335,-0.26982 -0.0335,-0.39856 0,-0.26699 -0.12183,-1.97159 -0.17042,-2.38444 -0.0177,-0.1508 -0.0416,-0.5518 -0.053,-0.8911 -0.0236,-0.7012 -0.0951,-1.76389 -0.17315,-2.57048 -0.0446,-0.46066 -0.0496,-0.90333 -0.0313,-2.76766 0.0159,-1.61928 0.0112,-2.25124 -0.0172,-2.33746 -0.0445,-0.13479 -0.001,-0.25861 0.0907,-0.25861 0.0417,0 0.0499,0.0231 0.0348,0.0983 -0.0179,0.0895 0.0282,0.34128 0.048,0.26156 0.005,-0.0189 0.0129,-0.22706 0.0184,-0.46269 0.005,-0.23562 0.0201,-0.52283 0.0325,-0.63824 0.0151,-0.13983 0.01,-0.21769 -0.0154,-0.23337 -0.0209,-0.0129 -0.0381,-0.075 -0.0381,-0.1378 0,-0.12858 0.0413,-0.15587 0.23586,-0.15587 0.0701,0 0.14209,-0.013 0.15999,-0.0289 0.1312,-0.11633 2.8217,-0.34434 4.23101,-0.35856 0.48946,-0.005 1.50027,0.0325 1.73079,0.0641 0.0754,0.0103 0.20649,0.0245 0.29132,0.0314 1.19239,0.0973 1.43456,0.1382 2.48146,0.4188 0.51266,0.13741 1.56864,0.50132 1.91807,0.66101 0.0779,0.0356 0.32672,0.13701 0.55292,0.22534 0.81525,0.31838 1.48201,0.6892 2.05638,1.14368 0.44863,0.35499 1.43628,1.32151 1.82349,1.78449 0.134,0.16023 0.32797,0.38073 0.43103,0.49002 0.20973,0.22236 0.28064,0.31075 0.81682,1.01799 0.20721,0.27333 0.45924,0.58179 0.56007,0.68546 0.19235,0.1978 0.42995,0.54495 0.42995,0.62821 0,0.0269 0.0231,0.0681 0.0514,0.0915 0.0283,0.0235 0.0514,0.062 0.0514,0.0857 0,0.0237 0.0224,0.0616 0.0497,0.0843 0.0273,0.0227 0.0973,0.12551 0.15537,0.22849 0.0581,0.10298 0.12829,0.19591 0.15593,0.20652 0.0276,0.0106 0.0503,0.0337 0.0503,0.0514 0,0.0176 0.0589,0.11238 0.13087,0.21053 0.072,0.0982 0.14089,0.20546 0.15315,0.23845 0.0122,0.033 0.036,0.06 0.0528,0.06 0.0168,0 0.1045,0.12724 0.19499,0.28275 0.0905,0.15552 0.23218,0.39072 0.31486,0.52267 0.18765,0.29948 0.17648,0.28047 0.38387,0.65357 0.095,0.17096 0.20564,0.34058 0.2458,0.37692 0.0402,0.0364 0.0959,0.11033 0.12386,0.16441 0.028,0.0541 0.16905,0.25145 0.31352,0.43862 0.14447,0.18716 0.29352,0.38665 0.33122,0.4433 0.0377,0.0567 0.13049,0.1832 0.20619,0.2812 0.0757,0.098 0.18367,0.24758 0.23991,0.33241 0.0562,0.0848 0.17938,0.24922 0.27363,0.36533 0.0942,0.1161 0.2237,0.30117 0.28767,0.41127 0.064,0.1101 0.16609,0.28501 0.22694,0.38868 0.1908,0.32512 0.94649,1.85453 1.21082,2.45052 0.29799,0.67188 0.37943,1.69096 0.17804,2.22775 -0.16601,0.4425 -0.47835,0.9144 -0.74673,1.12821 -0.17905,0.14264 -1.10705,0.63685 -1.19585,0.63685 -0.0204,0 -0.14025,0.0468 -0.26634,0.10395 -0.21527,0.0976 -1.23983,0.31981 -2.04225,0.44291 -0.14138,0.0217 -0.33416,0.0543 -0.42842,0.0724 -0.0942,0.0181 -0.24847,0.0399 -0.34272,0.0483 -0.0943,0.008 -0.2562,0.0302 -0.35987,0.0484 -0.10368,0.0182 -0.33502,0.0578 -0.5141,0.0879 -0.49531,0.0834 -1.16143,0.21917 -1.42233,0.2898 -0.25203,0.0682 -1.12444,0.1734 -1.59369,0.19211 -0.12253,0.005 -0.38472,0.0261 -0.58265,0.0471 -0.36733,0.039 -0.62807,0.0503 -2.07351,0.0896 -0.45241,0.0123 -0.91383,0.0378 -1.0254,0.0565 -0.11155,0.0188 -0.3429,0.0404 -0.51409,0.0481 -0.17119,0.008 -0.48091,0.0299 -0.68826,0.0493 -0.64939,0.0609 -1.81871,0.11215 -2.65044,0.11618 -0.43983,0.002 -0.80373,0 -0.80866,-0.005 z"
       id="path196" />
    <path
       style="fill:#000000;stroke-width:0.034273"
       d="m 97.741104,45.386514 c -0.0437,-0.075 -0.046,0.047 -0.0107,0.56137 l 0.0257,0.37376 0.01,-0.43818 c 0.005,-0.24899 -0.005,-0.46355 -0.0247,-0.49695 z"
       id="path194" />
    <path
       style="fill:#000000;stroke-width:0.034273"
       d="m 87.508534,58.340284 c 2.13394,-0.12481 2.52458,-0.1414 3.41016,-0.14486 1.74984,-0.007 3.12242,-0.11574 4.06136,-0.32224 0.13195,-0.029 0.46354,-0.0686 0.73687,-0.0879 0.58087,-0.041 0.77972,-0.0584 1.00278,-0.0874 0.1485,-0.0194 0.16305,-0.0294 0.16259,-0.11224 -3.9e-4,-0.0501 0.0158,-0.48428 0.0358,-0.96496 0.02,-0.48068 0.0264,-1.08217 0.0142,-1.33665 -0.0257,-0.53719 -0.0279,-0.69223 -0.0181,-1.25096 0.004,-0.22621 -0.017,-0.75829 -0.0466,-1.18242 -0.0296,-0.42413 -0.0525,-0.84055 -0.051,-0.92538 0.005,-0.26906 -0.0345,-2.42447 -0.0567,-3.1017 -0.0117,-0.35816 -0.0264,-1.08657 -0.0327,-1.61871 -0.006,-0.53213 -0.0215,-0.98374 -0.0338,-1.00359 -0.0122,-0.0198 -0.0279,-0.57923 -0.0348,-1.24309 -0.0297,-2.86862 -0.0662,-4.58734 -0.10551,-4.96799 -0.0112,-0.10811 -0.025,-0.27005 -0.0308,-0.35987 -0.0407,-0.63335 -0.0883,-1.18514 -0.10469,-1.21158 -0.03,-0.0485 -0.89903,-0.0362 -1.48904,0.0211 -0.8059,0.0783 -1.34553,0.15618 -2.12493,0.30686 -0.25448,0.0492 -0.55522,0.10382 -0.66832,0.12138 -0.30494,0.0474 -1.09566,0.27666 -1.67938,0.48701 -0.52997,0.19097 -1.14436,0.39059 -2.24489,0.72937 -0.34872,0.10735 -0.66019,0.20859 -0.69215,0.22498 -0.032,0.0164 -0.16305,0.0675 -0.29132,0.11367 -0.19203,0.069 -0.71832,0.29057 -1.0215,0.42995 -0.0377,0.0173 -0.16879,0.0742 -0.29132,0.1263 -0.12252,0.0521 -0.25956,0.12261 -0.30451,0.15662 -0.045,0.034 -0.0946,0.0619 -0.11039,0.0619 -0.0275,0 -1.0995,0.51615 -1.77857,0.85636 -0.17908,0.0897 -0.41042,0.19851 -0.5141,0.24177 -0.10367,0.0433 -0.21163,0.0978 -0.23991,0.12131 -0.0283,0.0235 -0.14395,0.092 -0.25705,0.15239 -0.54946,0.29318 -0.50128,0.2646 -0.93724,0.55602 -0.0775,0.0518 -0.15054,0.0942 -0.1622,0.0942 -0.0117,0 -0.0626,0.0424 -0.11315,0.0943 -0.0506,0.0518 -0.18231,0.15594 -0.29274,0.23134 -0.18742,0.12795 -0.78071,0.64697 -1.09742,0.96004 -0.61887,0.61174 -1.16208,1.27235 -1.38061,1.67898 -0.3051,0.5677 -0.736,1.47617 -0.79656,1.67938 -0.0225,0.0754 -0.10068,0.29132 -0.1738,0.47982 -0.17002,0.43831 -0.61274,1.84736 -0.78071,2.4848 -0.0373,0.14137 -0.10636,0.38814 -0.15356,0.54837 -0.15998,0.54308 -0.26593,1.00997 -0.29942,1.31951 -0.0184,0.16965 -0.048,0.40099 -0.0659,0.51409 -0.0638,0.40342 -0.10801,0.64652 -0.12171,0.66867 -0.008,0.0124 -0.0448,0.26027 -0.0826,0.55088 -0.0378,0.29061 -0.084,0.60549 -0.10268,0.69974 -0.11416,0.57505 -0.16331,1.0344 -0.17149,1.60286 -0.006,0.43125 -0.005,0.44053 0.10248,0.64168 0.11595,0.21755 0.4567,0.5611 0.63147,0.63666 0.46952,0.203 1.06547,0.31138 1.91929,0.34904 0.94873,0.0419 8.0953,0.0259 8.87672,-0.0198 z"
       id="path192" />
    <path
       style="fill:#000000;stroke-width:0.034273"
       d="m 97.379284,58.614364 c -0.0379,-0.0379 -0.25717,-0.0301 -0.25717,0.009 0,0.024 0.0517,0.0333 0.13902,0.025 0.0765,-0.007 0.12963,-0.0226 0.11815,-0.0341 z"
       id="path190" />
    <path
       style="fill:#e6e6e6;stroke-width:1.034;stroke:#000000;stroke-miterlimit:4;stroke-dasharray:none"
       d="m 85.946254,59.451584 c -0.0209,-0.0201 -2.34331,-0.0562 -3.32163,-0.0516 -4.42876,0.0208 -4.66377,0.0104 -5.62078,-0.2509 -0.23562,-0.0643 -0.48528,-0.15443 -0.55479,-0.20023 -0.0695,-0.0458 -0.19128,-0.12183 -0.27061,-0.16896 -0.19751,-0.11733 -0.53838,-0.45602 -0.69851,-0.69403 -0.0729,-0.10839 -0.14593,-0.19707 -0.16224,-0.19707 -0.0163,0 -0.0396,-0.027 -0.0518,-0.06 -0.0122,-0.033 -0.0596,-0.12003 -0.10529,-0.19343 -0.13076,-0.20983 -0.21744,-0.49746 -0.19718,-0.65424 0.01,-0.0757 0.0342,-0.43842 0.0542,-0.806 0.0215,-0.39487 0.0769,-0.92074 0.13545,-1.28524 0.0545,-0.3393 0.11681,-0.74801 0.13856,-0.90823 0.0217,-0.16023 0.0693,-0.44555 0.10565,-0.63406 0.0364,-0.1885 0.0962,-0.55571 0.13294,-0.81603 0.0669,-0.47365 0.20824,-1.10026 0.27735,-1.2294 0.0547,-0.10217 0.1688,-0.46182 0.22084,-0.69599 0.0252,-0.11333 0.0761,-0.29088 0.11308,-0.39456 0.037,-0.10367 0.0858,-0.2579 0.10842,-0.34273 0.0226,-0.0848 0.0769,-0.26219 0.12053,-0.39414 0.0437,-0.13195 0.12117,-0.37871 0.17221,-0.54837 0.14909,-0.49555 0.419,-1.28946 0.51104,-1.50315 0.0615,-0.14277 0.0547,-0.19237 -0.0149,-0.10851 -0.0421,0.0508 -0.13778,0.0729 -0.13778,0.0318 0,-0.0112 0.0283,-0.0614 0.063,-0.11139 0.0346,-0.05 0.0727,-0.11796 0.0846,-0.15095 0.0317,-0.0878 0.1019,-0.0756 0.0738,0.0129 -0.0142,0.0447 -0.01,0.0647 0.0109,0.0518 0.0426,-0.0263 0.0744,-0.22749 0.036,-0.22749 -0.0517,0 -0.0293,-0.16217 0.029,-0.21001 0.0511,-0.0419 0.0552,-0.0386 0.0375,0.0301 -0.0109,0.0424 -0.008,0.0847 0.008,0.094 0.0151,0.009 0.0376,-0.0239 0.0502,-0.0738 0.0148,-0.0589 0.007,-0.10045 -0.0219,-0.11836 -0.0349,-0.0216 -0.031,-0.0376 0.0176,-0.0731 0.0342,-0.025 0.0593,-0.0603 0.0558,-0.0785 -0.0147,-0.075 0.005,-0.11864 0.0526,-0.11864 0.028,0 0.0736,-0.0541 0.10122,-0.1203 0.0276,-0.0662 0.10456,-0.20211 0.17094,-0.30211 0.0664,-0.1 0.15236,-0.25343 0.19108,-0.34097 0.0387,-0.0875 0.086,-0.16878 0.10501,-0.18054 0.019,-0.0118 0.0813,-0.10108 0.13836,-0.19849 0.24439,-0.41711 0.90489,-1.16781 1.56515,-1.77888 0.79213,-0.73311 1.01235,-0.91 1.74358,-1.40051 0.12924,-0.0867 0.32752,-0.2123 0.44062,-0.27914 0.23439,-0.13852 1.31833,-0.71138 1.34604,-0.71138 0.0231,0 0.37887,-0.161 0.47043,-0.21286 0.0965,-0.0547 0.87067,-0.43706 1.43946,-0.71101 1.03507,-0.49852 1.48924,-0.68106 2.53621,-1.01935 0.4901,-0.15836 1.46945,-0.47833 2.17634,-0.71105 1.27633,-0.42019 1.89304,-0.59013 2.48479,-0.68472 0.16965,-0.0271 0.53489,-0.0886 0.81163,-0.13659 1.09851,-0.19056 1.87462,-0.26537 2.63281,-0.25378 0.82867,0.0127 0.86055,0.0223 0.99951,0.30205 0.0539,0.10845 0.13441,0.21151 0.18968,0.24269 0.0528,0.0298 0.10159,0.0828 0.10836,0.11778 0.0116,0.0597 0.007,0.0603 -0.0713,0.009 -0.0924,-0.0606 -0.13396,-0.0465 -0.19288,0.0655 -0.0591,0.11226 -0.0501,0.12434 0.0775,0.10364 0.0643,-0.0104 0.12736,-0.009 0.14014,0.004 0.0128,0.0127 0.0637,0.0231 0.11308,0.0231 0.0763,0 0.0994,0.0255 0.15328,0.17008 0.18545,0.49713 0.28402,1.63964 0.33274,3.857 0.0328,1.49148 0.0673,2.02542 0.19457,3.01044 0.0436,0.33703 0.0496,0.57001 0.0297,1.14815 -0.0356,1.0344 -0.0389,2.07007 -0.01,3.03874 0.0139,0.46183 0.0342,1.27925 0.0452,1.81648 0.011,0.53722 0.0254,1.05389 0.032,1.14814 0.04,0.56825 0.0531,0.90989 0.0762,1.98784 0.0258,1.19747 0.0246,1.50237 -0.01,2.5362 -0.0101,0.3016 -0.0213,0.76429 -0.0249,1.02819 -0.006,0.43368 -0.0139,0.49001 -0.0822,0.58569 -0.12188,0.17087 -0.15727,0.18574 -0.47696,0.20036 -0.52508,0.024 -1.28333,0.0889 -1.67527,0.14335 -0.20735,0.0288 -0.53123,0.0734 -0.71973,0.0991 -0.1885,0.0257 -0.47383,0.0696 -0.63405,0.0976 -0.50543,0.0883 -2.56861,0.16908 -3.97568,0.15571 -0.25447,-0.002 -0.49353,-0.003 -0.53123,-3.9e-4 -0.0377,0.002 -0.29989,0.0206 -0.58264,0.0406 -0.28275,0.02 -0.63748,0.0417 -0.78828,0.048 -0.1508,0.006 -0.4901,0.0245 -0.75401,0.0404 -0.2639,0.0159 -0.62219,0.0244 -0.79621,0.0188 -0.19168,-0.006 -0.41739,0.0108 -0.57263,0.0428 -0.25802,0.0533 -0.37274,0.0646 -0.39907,0.0392 z"
       id="path188" />
    <path
       style="fill:#000000;stroke-width:0.034273"
       d="m 92.442514,66.558404 c -0.0521,-0.0575 -0.0535,-0.0662 -0.008,-0.0488 0.0305,0.0117 0.0638,0.0432 0.0741,0.07 0.0256,0.0667 0.009,0.0612 -0.0661,-0.0213 z"
       id="path186" />
    <path
       style="fill:#000000;stroke-width:0.034273"
       d="m 92.686644,66.812074 c -0.0181,-0.047 -0.013,-0.0492 0.0306,-0.0129 0.0595,0.0494 0.0657,0.0692 0.0216,0.0692 -0.0168,0 -0.0403,-0.0253 -0.0522,-0.0563 z"
       id="path184" />
    <path
       style="fill:#000000;stroke-width:0.034273"
       d="m 92.932184,67.093094 c -0.033,-0.0241 -0.0599,-0.0648 -0.0599,-0.0905 0,-0.0307 0.0257,-0.021 0.0752,0.0285 0.0856,0.0856 0.0751,0.12805 -0.0153,0.062 z"
       id="path182" />
    <path
       style="fill:#e6e6e6;stroke-width:0.034273"
       d="m 50.527934,75.458904 c 0.1508,-0.0276 0.38985,-0.0682 0.53123,-0.09 0.14137,-0.0219 0.39585,-0.0629 0.5655,-0.0913 0.60303,-0.10068 1.23044,-0.14389 1.52485,-0.10502 0.15062,0.0199 0.28339,0.0266 0.29505,0.015 0.0213,-0.0213 -0.0656,-0.76591 -0.12299,-1.05332 -0.0169,-0.0848 -0.072,-0.37786 -0.12235,-0.65119 -0.0504,-0.27333 -0.11166,-0.58178 -0.13621,-0.68546 -0.10254,-0.433 -0.15449,-0.67716 -0.17501,-0.82255 -0.0372,-0.26392 -0.0425,-0.2676 -0.36273,-0.25524 -2.62579,0.10128 -3.3374,0.14601 -4.07086,0.2559 -0.14138,0.0212 -0.34736,0.0519 -0.45774,0.0683 -0.11038,0.0163 -0.20984,0.0389 -0.22102,0.05 -0.0488,0.0488 0.27771,1.10778 0.47576,1.54328 0.06,0.13195 0.13952,0.33229 0.1767,0.4452 0.0962,0.29226 0.27384,0.52582 0.94805,1.24684 l 0.20412,0.21829 0.33673,-0.0192 c 0.1852,-0.0106 0.46011,-0.0418 0.61092,-0.0695 z"
       id="path178" />
    <path
       style="fill:#cccccc;stroke-width:0.034273"
       d="m 148.18241,78.332744 c 0.23205,-0.0275 0.47882,-0.0655 0.54837,-0.0845 0.0696,-0.019 0.29569,-0.0738 0.50251,-0.12189 0.34347,-0.0798 0.6744,-0.20001 1.13198,-0.41122 0.0942,-0.0435 0.30246,-0.12093 0.46268,-0.17206 0.6019,-0.19208 1.37991,-0.62197 1.88063,-1.03914 0.0824,-0.0687 0.21538,-0.17111 0.29548,-0.22766 0.0801,-0.0566 0.2058,-0.17222 0.27933,-0.25704 0.0735,-0.0848 0.17734,-0.2005 0.23067,-0.25705 0.30059,-0.31871 1.02386,-1.2822 1.26069,-1.67938 0.27819,-0.46657 0.57864,-1.02209 0.59919,-1.10789 0.0121,-0.0504 0.0714,-0.19963 0.13175,-0.33158 0.0978,-0.21371 0.13909,-0.34891 0.26169,-0.85682 0.0559,-0.23184 0.0741,-0.45266 0.039,-0.47436 -0.0587,-0.0363 -1.73441,-0.38902 -3.21338,-0.67642 -1.21147,-0.23542 -1.38035,-0.26461 -1.76101,-0.30438 -0.1813,-0.0189 -0.53014,-0.0582 -0.77519,-0.0872 -0.50268,-0.0595 -1.58089,-0.0763 -2.2906,-0.0357 -0.41472,0.0237 -0.47195,0.0341 -0.45669,0.0828 0.01,0.0306 0.0594,0.17136 0.1107,0.31274 0.0513,0.14137 0.11222,0.34958 0.13539,0.46268 0.0696,0.33986 0.15003,0.61276 0.22229,0.7545 0.0376,0.0737 0.0683,0.15622 0.0683,0.18343 0,0.0272 0.054,0.21645 0.11995,0.42053 0.066,0.20409 0.12051,0.41376 0.12118,0.46595 6.5e-4,0.0522 0.0236,0.18742 0.0509,0.30052 0.0649,0.2688 0.0634,0.80667 -0.004,1.5937 -0.03,0.34872 -0.0671,0.78828 -0.0823,0.97678 -0.0395,0.48773 -0.098,0.9294 -0.15223,1.14814 -0.0257,0.10368 -0.0574,0.28104 -0.0704,0.39414 -0.0131,0.11311 -0.0621,0.38005 -0.10895,0.59321 -0.0469,0.21316 -0.0767,0.40981 -0.0663,0.43698 0.0229,0.0598 0.007,0.0599 0.52869,-0.002 z"
       id="path176" />
    <path
       style="fill:#cccccc;stroke-width:0.034273"
       d="m 60.125424,79.121864 c 0.0948,-0.0464 0.2156,-0.12937 0.2684,-0.18448 l 0.096,-0.10019 -0.0569,-0.30368 c -0.10441,-0.55692 -0.1849,-1.78045 -0.17017,-2.58706 0.0176,-0.96247 0.10032,-1.40012 0.4923,-2.60352 0.0773,-0.23728 0.14052,-0.44164 0.14052,-0.45412 0,-0.0125 -0.0424,-0.023 -0.0942,-0.0235 -0.0853,-6.4e-4 -0.2109,-0.0516 -0.45412,-0.1842 -0.11398,-0.0621 -0.59007,-0.21337 -0.80981,-0.25725 -0.0967,-0.0193 -0.24741,-0.0732 -0.33499,-0.11977 -0.0876,-0.0466 -0.24755,-0.10308 -0.35548,-0.12558 -0.10793,-0.0225 -0.31191,-0.0755 -0.45328,-0.11783 -0.14138,-0.0423 -0.33417,-0.0936 -0.42842,-0.11396 -0.0942,-0.0204 -0.37957,-0.0831 -0.63405,-0.13941 -0.25447,-0.0563 -0.6092,-0.12765 -0.78828,-0.15856 -0.17907,-0.0309 -0.44126,-0.0774 -0.58264,-0.10331 -0.22548,-0.0413 -0.822,-0.11429 -1.40519,-0.17187 -0.10368,-0.0102 -0.30839,-0.0361 -0.45492,-0.0574 -0.16348,-0.0238 -0.27851,-0.0265 -0.29771,-0.007 -0.0352,0.0357 0.0191,0.38443 0.1303,0.83717 0.0909,0.3701 0.21746,0.9929 0.31334,1.54229 0.0411,0.23563 0.0894,0.49782 0.10718,0.58264 0.0178,0.0848 0.054,0.32388 0.0804,0.53123 0.0793,0.62381 0.24531,1.4591 0.3269,1.64511 0.0165,0.0377 0.10064,0.2382 0.1869,0.44555 0.0863,0.20735 0.19134,0.4342 0.23353,0.50411 0.0422,0.0699 0.12609,0.21101 0.18644,0.31356 0.0603,0.10254 0.23771,0.31241 0.39414,0.46638 0.27255,0.26825 0.30443,0.28847 0.76424,0.48467 0.74465,0.31774 0.98162,0.374 2.02211,0.48008 0.1885,0.0192 0.46611,0.0481 0.61691,0.0641 0.41934,0.0446 0.75775,0.015 0.96069,-0.0843 z"
       id="path174" />
    <path
       style="fill:#000000;stroke-width:0.034273"
       d="m 87.374324,70.068014 c -0.0181,-0.047 -0.013,-0.0492 0.0306,-0.0129 0.0595,0.0494 0.0657,0.0692 0.0216,0.0692 -0.0168,0 -0.0403,-0.0253 -0.0522,-0.0562 z"
       id="path172" />
    <path
       style="fill:#cccccc;stroke-width:0.034273"
       d="m 122.29566,80.216754 c 0.2639,-0.0101 0.61863,-0.0319 0.78828,-0.0483 0.16965,-0.0164 0.74801,-0.0472 1.28524,-0.0684 0.53723,-0.0212 1.04382,-0.0541 1.12576,-0.0732 0.0819,-0.019 0.27086,-0.044 0.41984,-0.0555 0.22944,-0.0177 0.27087,-0.0303 0.27087,-0.0821 0,-0.12862 -0.0794,-0.25764 -0.30396,-0.49407 -0.31218,-0.32863 -0.47562,-0.60777 -0.85292,-1.45664 -0.56842,-1.27888 -0.69387,-1.95096 -0.69387,-3.7175 0,-0.79398 0.0424,-1.21902 0.17442,-1.74905 0.12291,-0.4934 0.23503,-1.05484 0.2166,-1.08466 -0.01,-0.0161 -0.19837,-0.0299 -0.41874,-0.0307 -0.22038,-7.8e-4 -0.47009,-0.0168 -0.55492,-0.0356 -0.0848,-0.0188 -0.23134,-0.0406 -0.32559,-0.0486 -0.0942,-0.008 -0.24848,-0.0309 -0.34273,-0.0511 -0.0942,-0.0201 -0.27933,-0.0507 -0.41128,-0.0678 -0.2208,-0.0287 -0.41428,-0.0852 -1.11032,-0.32385 -0.13943,-0.0478 -0.27824,-0.10822 -0.30846,-0.13425 -0.0302,-0.026 -0.108,-0.0652 -0.17284,-0.0869 -0.0648,-0.0218 -0.29264,-0.13964 -0.50623,-0.2619 -0.2136,-0.12226 -0.39628,-0.2223 -0.40595,-0.2223 -0.0394,0 -0.7824,-0.52405 -1.01571,-0.71643 -0.13779,-0.11361 -0.36061,-0.32747 -0.49516,-0.47525 -0.27441,-0.30139 -0.77057,-0.94667 -0.85697,-1.11454 -0.26196,-0.50897 -0.9003,-1.18115 -1.59545,-1.68002 -0.21139,-0.1517 -0.9843,-0.61482 -1.38143,-0.82774 -0.26604,-0.14263 -0.61839,-0.27465 -1.14815,-0.43018 -0.14138,-0.0415 -0.36501,-0.11069 -0.49696,-0.15374 -0.21423,-0.0699 -0.39639,-0.10904 -1.04063,-0.22369 -0.20395,-0.0363 -0.26083,-0.0201 -0.22586,0.0643 0.0682,0.16449 0.0769,0.35613 0.0455,0.99743 -0.019,0.3873 -0.0398,0.92011 -0.0463,1.18401 -0.0168,0.68493 -0.0913,1.22752 -0.22353,1.62797 -0.0342,0.10368 -0.071,0.22706 -0.0817,0.27418 -0.0195,0.0856 -0.0793,0.15826 -0.48369,0.58787 -0.11803,0.1254 -0.28601,0.32806 -0.37329,0.45036 -0.12747,0.17864 -0.18152,0.22666 -0.27486,0.24417 -0.0639,0.012 -0.13504,0.0445 -0.15809,0.0723 -0.0685,0.0825 -1.14005,0.0705 -1.64435,-0.0183 -0.62482,-0.1101 -1.1966,-0.25411 -1.42233,-0.35822 -0.0566,-0.0261 -0.17994,-0.0781 -0.27419,-0.11549 -0.23984,-0.0953 -0.49574,-0.21856 -0.61691,-0.29722 -0.13991,-0.0908 -0.66809,-0.53319 -0.66931,-0.56056 -5.2e-4,-0.0121 -0.0781,-0.10414 -0.17242,-0.20453 -0.0943,-0.10038 -0.27228,-0.33173 -0.39553,-0.51409 -0.12325,-0.18237 -0.30693,-0.44725 -0.40817,-0.58863 -0.10123,-0.14138 -0.21427,-0.31103 -0.25118,-0.377 -0.13517,-0.24163 -0.36525,-0.48961 -0.87368,-0.94166 -0.95603,-0.85002 -1.13976,-0.99286 -1.68521,-1.31019 -0.25273,-0.14703 -0.63057,-0.37561 -0.70259,-0.42505 -0.0471,-0.0323 -0.1628,-0.0693 -0.25705,-0.0822 -0.0942,-0.0129 -0.18679,-0.0354 -0.20564,-0.05 -0.0188,-0.0146 -0.096,-0.0371 -0.17136,-0.05 -0.0754,-0.0129 -0.32439,-0.0686 -0.55331,-0.12386 -0.447066,-0.10787 -1.201986,-0.15954 -1.187856,-0.0813 0.0135,0.0746 0.15656,0.58446 0.22034,0.78514 0.19269,0.6063 0.23576,0.89708 0.23513,1.58761 -3.9e-4,0.47446 -0.006,0.51959 -0.10548,0.79437 -0.0578,0.16022 -0.11902,0.35812 -0.13613,0.43978 -0.046,0.21952 -0.16562,0.59419 -0.20482,0.64142 -0.0452,0.0544 -0.27825,0.4859 -0.42519,0.78711 -0.0645,0.13219 -0.15298,0.2719 -0.19666,0.31047 -0.0846,0.0747 -0.5673,0.37749 -0.89267,0.55997 -0.10799,0.0606 -0.20536,0.1247 -0.21638,0.14252 -0.0735,0.1189 -0.52045,0.20732 -1.25898,0.24907 -0.60596,0.0342 -1.44458,-0.25951 -2.04692,-0.71698 -0.25664,-0.19492 -2.14294,-2.07639 -2.49578,-2.48939 -0.15651,-0.1832 -0.42627,-0.46492 -0.59947,-0.62605 -0.27622,-0.25698 -0.38018,-0.32616 -0.84615,-0.56307 -0.29217,-0.14855 -0.63148,-0.31092 -0.754,-0.36082 -0.32741,-0.13335 -0.84831,-0.24787 -1.35379,-0.29766 -0.46503,-0.0458 -1.87958,-0.0638 -1.91907,-0.0244 -0.0125,0.0125 -0.008,0.23611 0.01,0.49696 0.0351,0.5147 0.005,1.28739 -0.0622,1.58815 -0.0231,0.10367 -0.0462,0.24428 -0.0512,0.31245 -0.005,0.0682 -0.0251,0.15388 -0.0447,0.19046 -0.0493,0.0921 -0.37243,0.96519 -0.40315,1.08926 -0.0138,0.0557 -0.12327,0.22536 -0.2433,0.377 -0.12002,0.15164 -0.25091,0.34511 -0.29087,0.42994 -0.0748,0.15871 -0.1298,0.2176 -0.33676,0.36033 -0.066,0.0455 -0.18651,0.12987 -0.26785,0.18749 -0.0813,0.0576 -0.25553,0.15896 -0.3871,0.22522 -0.13158,0.0663 -0.24812,0.14364 -0.25899,0.17197 -0.0109,0.0283 0.005,0.11759 0.0363,0.19838 0.0308,0.0808 0.0795,0.25371 0.10819,0.38428 0.12148,0.55362 0.15293,0.68927 0.18606,0.80267 0.0192,0.0659 0.035,0.16802 0.035,0.22703 0,0.059 0.023,0.17256 0.0512,0.2523 0.0679,0.19259 0.18517,1.00568 0.22492,1.56014 0.0176,0.24505 0.0463,0.59207 0.0639,0.77114 0.10706,1.09015 0.0613,2.80208 -0.10115,3.78717 -0.0187,0.1131 -0.0493,0.36758 -0.0681,0.56551 -0.0188,0.19793 -0.0441,0.42776 -0.0563,0.51074 l -0.0221,0.15088 0.14294,-0.0229 c 0.42089,-0.0673 1.66547,-0.1678 2.62646,-0.21208 0.1885,-0.009 0.45196,-0.0318 0.58547,-0.0513 0.13351,-0.0195 0.31858,-0.0326 0.41128,-0.029 0.0927,0.004 0.44614,-0.0113 0.78544,-0.033 0.33931,-0.0217 1.20299,-0.0631 1.9193,-0.0919 1.25095,-0.0504 1.66167,-0.0722 2.82752,-0.15051 1.15606,-0.0776 2.61612,-0.14134 3.15312,-0.1376 0.31103,0.002 0.80815,-0.006 1.10472,-0.0186 0.35489,-0.0148 0.60305,-0.009 0.72597,0.0162 0.14016,0.0291 0.2236,0.0289 0.33436,-9.1e-4 0.0812,-0.0219 0.37141,-0.0412 0.64495,-0.043 0.6884,-0.005 2.263416,0.0314 2.553726,0.0582 0.13195,0.0122 0.8414,0.0308 1.57656,0.0414 0.73515,0.0106 1.44461,0.0229 1.57656,0.0274 0.63533,0.0215 1.28032,0.0642 1.39163,0.0921 0.0679,0.0171 0.33785,0.0385 0.59978,0.0477 0.40512,0.0142 0.80886,0.0446 1.84717,0.13947 0.0942,0.009 0.27161,0.0316 0.39414,0.0512 0.18257,0.0291 0.87364,0.0947 1.62797,0.1545 0.0754,0.006 0.26047,0.0263 0.41127,0.0451 0.74068,0.0924 0.95541,0.10955 1.31951,0.10527 0.22435,-0.003 0.62299,0.025 0.92538,0.0642 0.29217,0.0379 0.65461,0.0787 0.80541,0.0907 0.1508,0.012 0.35901,0.043 0.46269,0.0688 0.38033,0.0945 1.74445,0.16178 3.56439,0.17578 0.74458,0.006 1.5003,0.0239 1.67938,0.0404 0.17908,0.0165 0.55686,0.0339 0.83951,0.0386 0.28265,0.005 0.51809,0.0129 0.52319,0.018 0.005,0.005 0.12086,0.004 0.25723,-0.002 0.13638,-0.006 0.46387,-0.0201 0.72777,-0.0302 z"
       id="path170" />
    <path
       style="fill:#000000;stroke-width:0.034273"
       d="m 147.04909,72.972024 c -0.0143,-0.0643 -0.0181,-0.12468 -0.009,-0.13424 0.0357,-0.0357 0.0561,0.0254 0.0455,0.13642 l -0.011,0.11468 z"
       id="path168" />
    <path
       style="fill:#000000;stroke-width:0.034273"
       d="m 129.95862,75.533024 c -0.0254,-0.0506 -0.036,-0.11876 -0.0235,-0.15139 0.0368,-0.0959 0.0957,-0.004 0.0819,0.12771 l -0.0122,0.11575 z"
       id="path166" />
    <path
       style="fill:#000000;stroke-width:0.034273"
       d="m 129.96882,75.798454 c -0.0104,-0.0272 -0.0138,-0.075 -0.007,-0.10635 0.008,-0.0384 0.0245,-0.0223 0.0513,0.0494 0.023,0.0615 0.0262,0.10636 0.007,0.10636 -0.0178,0 -0.0409,-0.0222 -0.0513,-0.0494 z"
       id="path164" />
    <path
       style="fill:#000000;stroke-width:0.034273"
       d="m 130.04482,76.596464 c -0.0398,-0.0569 -0.0549,-0.15783 -0.0549,-0.3678 0,-0.15917 0.009,-0.28054 0.0197,-0.2697 0.0206,0.0206 0.11384,0.6863 0.0988,0.7051 -0.005,0.006 -0.0334,-0.0245 -0.0636,-0.0676 z"
       id="path162" />
    <path
       style="fill:#000000;stroke-width:0.034273"
       d="m 130.19826,77.161614 c -0.001,-0.022 -0.0116,-0.0683 -0.0224,-0.10282 -0.0188,-0.0597 -0.0178,-0.0598 0.0196,-0.001 0.0216,0.0337 0.0317,0.08 0.0224,0.10281 -0.0122,0.03 -0.0176,0.0304 -0.0196,0.002 z"
       id="path160" />
    <path
       style="fill:#000000;stroke-width:0.034273"
       d="m 130.84952,78.663444 c -0.045,-0.084 -0.0465,-0.10801 -0.007,-0.10801 0.0312,0 0.08,0.14105 0.0568,0.16424 -0.007,0.007 -0.0297,-0.0182 -0.05,-0.0562 z"
       id="path158" />
    <path
       style="fill:#000000;stroke-width:0.034273"
       d="m 136.65637,74.750574 c 0.0118,-0.0192 0.0359,-0.026 0.0534,-0.0151 0.0475,0.0294 0.0387,0.05 -0.0215,0.05 -0.0294,0 -0.0437,-0.0157 -0.0319,-0.0348 z"
       id="path156" />
    <path
       style="fill:#000000;stroke-width:0.034273"
       d="m 137.5552,77.248724 c 0.0898,-0.0212 0.22348,-0.0632 0.29706,-0.0933 0.15699,-0.0641 0.61628,-0.50344 0.75792,-0.72496 0.0542,-0.0848 0.13302,-0.19278 0.17507,-0.23991 0.13387,-0.15004 0.3213,-0.73392 0.3213,-1.00092 0,-0.11544 -0.20767,-0.63007 -0.32516,-0.80578 -0.0811,-0.12127 -0.24036,-0.25527 -0.45972,-0.38677 -0.0786,-0.0471 -0.23257,-0.14243 -0.34213,-0.21178 -0.18088,-0.11448 -0.32768,-0.16882 -0.74454,-0.27558 -0.12601,-0.0323 -0.15235,-0.0275 -0.25147,0.0457 -0.10375,0.0766 -0.13534,0.0811 -0.50183,0.0719 -0.27517,-0.007 -0.43938,0.005 -0.55394,0.0412 -0.33445,0.10492 -0.71496,0.28324 -0.82846,0.38825 -0.0645,0.0597 -0.14811,0.11307 -0.18582,0.11867 -0.0392,0.006 -0.1137,0.0835 -0.17406,0.18154 l -0.1055,0.17137 0.003,0.61691 c 0.003,0.58382 0.008,0.63331 0.10282,0.92242 0.1276,0.39107 0.28434,0.57418 0.65613,0.76653 0.25233,0.13054 1.03879,0.39809 1.26002,0.42864 0.22213,0.0307 0.74435,0.0225 0.89917,-0.0141 z"
       id="path154" />
    <path
       style="fill:#000000;stroke-width:0.034273"
       d="m 136.78574,78.316844 c -0.19255,-0.0339 -0.44756,-0.10064 -0.56668,-0.14832 -0.11912,-0.0477 -0.30357,-0.10279 -0.40989,-0.12244 -0.30189,-0.0558 -1.01546,-0.43413 -1.31518,-0.69729 -0.16896,-0.14835 -0.39052,-0.48357 -0.4456,-0.6742 -0.0252,-0.0871 -0.0882,-0.2895 -0.14016,-0.44973 -0.092,-0.28404 -0.0944,-0.31145 -0.0946,-1.09673 0,-0.5547 0.0135,-0.85164 0.0437,-0.95389 0.0886,-0.30001 0.2588,-0.59426 0.49972,-0.86414 0.21798,-0.24416 0.33522,-0.34151 0.76635,-0.63627 0.0619,-0.0423 0.2161,-0.10162 0.34273,-0.13182 0.12663,-0.0302 0.36905,-0.0903 0.5387,-0.13354 0.27003,-0.0688 0.34688,-0.075 0.61691,-0.0495 0.90273,0.0854 1.97773,0.50144 2.49015,0.9638 0.35226,0.31785 0.71126,0.90738 0.8385,1.3769 0.0843,0.31099 0.0517,0.97065 -0.0693,1.4052 -0.0263,0.0942 -0.0821,0.29475 -0.12414,0.44555 -0.0448,0.16094 -0.12417,0.34145 -0.19204,0.43706 -0.0636,0.0896 -0.11563,0.17253 -0.11563,0.18433 0,0.0404 -0.22262,0.29651 -0.49696,0.57181 -0.2183,0.21906 -0.33104,0.30187 -0.55307,0.4062 -0.49487,0.23255 -0.96468,0.28117 -1.61351,0.16698 z"
       id="path152" />
    <path
       style="fill:#333333;stroke-width:0.034273"
       d="m 136.09052,82.087344 c -0.0471,-0.0161 -0.15302,-0.0308 -0.23531,-0.0326 -0.0823,-0.002 -0.2211,-0.0256 -0.30846,-0.0528 -0.0874,-0.0271 -0.28992,-0.0841 -0.45015,-0.12666 -0.53733,-0.14261 -1.27163,-0.46799 -1.45625,-0.6453 -0.0568,-0.0545 -0.21501,-0.16218 -0.3517,-0.23929 -0.81,-0.45697 -1.80369,-1.40469 -2.1534,-2.05379 -0.10739,-0.19932 -0.24485,-0.39063 -0.30477,-0.42416 -0.0257,-0.0144 -0.038,-0.0559 -0.028,-0.0943 0.01,-0.0384 0.001,-0.0686 -0.0203,-0.0686 -0.0211,0 -0.0385,-0.027 -0.0388,-0.06 -3.9e-4,-0.0518 -0.006,-0.053 -0.0375,-0.009 -0.0315,0.0437 -0.0342,0.0427 -0.0182,-0.007 0.0254,-0.0793 -0.0766,-0.3698 -0.12658,-0.3603 -0.0232,0.004 -0.0355,-0.0247 -0.0293,-0.0692 0.012,-0.0864 -0.0937,-0.2887 -0.13691,-0.26201 -0.0154,0.01 -0.028,-0.0345 -0.028,-0.0978 0,-0.0633 -0.0185,-0.13359 -0.041,-0.15615 -0.044,-0.044 -0.0764,-0.24134 -0.12571,-0.76648 -0.0171,-0.18211 -0.0397,-0.34498 -0.0501,-0.36192 -0.0265,-0.0429 -0.0567,-0.48965 -0.0701,-1.03776 -0.008,-0.33209 0.011,-0.64648 0.0676,-1.11387 0.15065,-1.24355 0.15029,-1.24221 0.55535,-2.07352 0.23504,-0.48238 0.29961,-0.58762 0.62243,-1.01439 0.39349,-0.52019 1.08159,-1.08375 1.54501,-1.26536 0.1164,-0.0456 0.22923,-0.0964 0.25072,-0.11278 0.0657,-0.0502 0.57732,-0.24497 0.91711,-0.3492 0.17683,-0.0542 0.54515,-0.17807 0.81848,-0.27514 0.65563,-0.23286 0.84463,-0.27098 1.46153,-0.29476 0.41473,-0.016 0.56914,-0.009 0.76843,0.0367 0.13718,0.0312 0.52054,0.0716 0.85191,0.0897 0.79056,0.0433 1.55089,0.13389 1.67626,0.19978 0.0315,0.0166 0.14977,0.0498 0.26287,0.074 0.24945,0.0533 0.37336,0.11295 0.80087,0.38586 0.43868,0.28004 0.5797,0.38815 0.95595,0.73287 0.33683,0.30861 0.52863,0.53997 0.74742,0.90162 0.22571,0.37306 0.93992,1.85138 1.00955,2.08962 0.036,0.12309 0.0945,0.32406 0.13005,0.44658 0.086,0.29641 0.15885,1.38139 0.12829,1.91115 -0.0359,0.62261 -0.11652,1.22768 -0.19448,1.4596 -0.039,0.11593 -0.19918,0.47297 -0.35604,0.79343 -0.34693,0.70877 -0.86153,1.49083 -1.26617,1.92424 -0.26307,0.28179 -0.93498,0.87623 -1.20143,1.06293 -0.21788,0.15266 -0.94828,0.4549 -1.2387,0.51258 -0.2496,0.0496 -0.29667,0.0699 -0.32324,0.1398 -0.0919,0.24174 -0.51638,0.48362 -1.07709,0.61378 -0.26991,0.0626 -1.75079,0.10136 -1.90215,0.0497 z"
       id="path148" />
    <path
       style="fill:#cccccc;stroke-width:0.034273"
       d="m 137.49571,80.944734 c 0,-0.0175 -0.0442,-0.0879 -0.0981,-0.15662 -0.17099,-0.21764 -0.21495,-0.32825 -0.16019,-0.4031 0.0421,-0.0575 0.0879,-0.0634 0.42278,-0.0547 0.31251,0.008 0.37897,0.001 0.3958,-0.0428 0.015,-0.039 0.0718,-0.0528 0.21837,-0.0529 0.10898,0 0.34466,-0.0226 0.52374,-0.05 0.7719,-0.118 1.13769,-0.31269 1.87511,-0.99803 0.249,-0.23141 0.38169,-0.38476 0.4599,-0.53151 0.11135,-0.20889 0.20502,-0.29389 0.27574,-0.25018 0.0239,0.0148 0.0294,0.009 0.0143,-0.0158 -0.0139,-0.0225 -5.2e-4,-0.0491 0.0306,-0.061 0.12625,-0.0484 0.65459,-0.65362 0.72656,-0.83222 0.0272,-0.0676 0.0943,-0.21541 0.1491,-0.32851 0.22336,-0.46122 0.36091,-0.9949 0.32496,-1.26083 -0.006,-0.0417 -0.0207,-0.14522 -0.0335,-0.23004 -0.0217,-0.14388 -0.0196,-0.14976 0.0305,-0.0877 0.0521,0.0645 0.0538,0.0638 0.0538,-0.0228 0,-0.0492 -0.0173,-0.0951 -0.0384,-0.1022 -0.0284,-0.009 -0.0283,-0.089 3.8e-4,-0.30429 0.0213,-0.16032 0.0332,-0.47586 0.0264,-0.70121 -0.011,-0.36187 -0.0274,-0.4554 -0.14093,-0.8008 -0.18128,-0.55164 -0.88673,-1.97582 -1.12476,-2.27071 -0.27857,-0.34511 -0.83502,-0.82267 -1.24165,-1.06562 -0.49458,-0.29549 -1.07986,-0.41424 -2.51907,-0.51108 -1.465,-0.0986 -1.85017,-0.0435 -3.32448,0.47522 -0.40528,0.14259 -0.75229,0.27066 -0.77114,0.28458 -0.0188,0.0139 -0.0883,0.043 -0.15423,0.0647 -0.066,0.0216 -0.1833,0.0815 -0.26071,0.13299 -0.0774,0.0515 -0.20851,0.1382 -0.29132,0.19264 -0.36535,0.24019 -0.90947,0.7646 -1.10639,1.0663 -0.18394,0.28183 -0.20691,0.32439 -0.4254,0.78828 -0.29008,0.61586 -0.34443,0.97001 -0.34455,2.24488 0,0.82138 0.008,0.95211 0.085,1.36695 0.0663,0.35737 0.11877,0.53075 0.23746,0.78472 0.0838,0.1793 0.15233,0.34417 0.15233,0.36637 0,0.0222 0.0627,0.16142 0.13921,0.30937 0.40252,0.77785 1.26942,1.70344 2.0388,2.1768 0.51765,0.3185 0.75749,0.4572 0.8723,0.50443 0.066,0.0272 0.19706,0.0858 0.29132,0.13023 0.27474,0.12965 0.79843,0.22183 1.43963,0.25342 0.74037,0.0365 1.2508,0.0336 1.2508,-0.007 z"
       id="path150" />
    <path
       style="fill:#000000;stroke-width:0.034273"
       d="m 73.486424,78.472144 c 0.26017,-0.1254 0.56283,-0.43616 0.6601,-0.67777 0.16514,-0.41016 0.15502,-0.68772 -0.0458,-1.25508 -0.0771,-0.2179 -0.12963,-0.30056 -0.30612,-0.48188 -0.2176,-0.22356 -0.3009,-0.38091 -0.20165,-0.38091 0.0286,0 0.0521,-0.0131 0.0521,-0.0291 0,-0.0644 -0.67897,-0.6819 -0.8298,-0.75466 -0.0888,-0.0428 -0.25846,-0.0919 -0.377,-0.10892 -0.24666,-0.0355 -1.05308,-0.009 -1.21527,0.0407 -0.14434,0.0438 -0.33653,0.25798 -0.63326,0.70584 -0.42204,0.63699 -0.64616,1.20494 -0.64616,1.63744 0,0.25193 0.004,0.26672 0.11139,0.36679 0.12497,0.11699 0.79234,0.56218 1.00661,0.67149 0.20852,0.10638 0.74897,0.28365 1.02264,0.33543 0.14828,0.0281 0.42635,0.0422 0.72116,0.0367 0.44684,-0.008 0.49365,-0.0157 0.68105,-0.106 z"
       id="path144" />
    <path
       style="fill:#000000;stroke-width:0.034273"
       d="m 71.880004,79.634444 c -0.65158,-0.14548 -0.92332,-0.26445 -1.50266,-0.65788 -0.57718,-0.39196 -0.73704,-0.52133 -0.85622,-0.69292 -0.24543,-0.35335 -0.27931,-0.43505 -0.34749,-0.83789 -0.0535,-0.31626 -0.0535,-0.36137 0,-0.68546 0.084,-0.50951 0.27966,-0.98469 0.61551,-1.49507 0.29966,-0.45537 0.33257,-0.52807 0.31524,-0.69632 -0.008,-0.0789 -0.0256,-0.16905 -0.0389,-0.20043 -0.0394,-0.0931 0.19206,-0.31467 0.47433,-0.45414 0.42576,-0.21037 0.85107,-0.30457 1.39167,-0.30822 0.41502,-0.003 0.49269,0.007 0.754,0.0905 0.48084,0.1545 0.69246,0.2872 1.087,0.68163 0.19573,0.19568 0.41173,0.4406 0.48001,0.54428 0.0683,0.10367 0.14973,0.22706 0.18101,0.27418 0.35794,0.53931 0.72072,1.61991 0.71842,2.13995 -0.002,0.3834 -0.0611,0.59655 -0.29258,1.04988 -0.16078,0.31485 -0.25662,0.45222 -0.48848,0.70016 -0.27443,0.29347 -0.51552,0.46113 -0.6647,0.46225 -0.0324,3.8e-4 -0.12494,0.0351 -0.20564,0.0775 -0.13389,0.0704 -0.19613,0.0774 -0.71222,0.0808 -0.46937,0.003 -0.62376,-0.009 -0.90823,-0.0728 z"
       id="path142" />
    <path
       style="fill:#cccccc;stroke-width:0.034273"
       d="m 73.569944,82.050234 c 0.91207,-0.097 1.61239,-0.3162 2.21718,-0.69401 0.23987,-0.14985 0.65822,-0.45923 0.83036,-0.61407 0.0797,-0.0717 0.16645,-0.13034 0.19281,-0.13034 0.0806,0 0.56177,-0.57532 0.85998,-1.02819 0.33387,-0.50704 0.52458,-0.84835 0.67023,-1.19956 0.0586,-0.14137 0.15142,-0.34958 0.20619,-0.46268 0.12459,-0.2573 0.19387,-0.68601 0.22154,-1.37092 0.0283,-0.70094 -0.009,-0.95132 -0.29967,-1.98784 -0.12351,-0.44107 -0.41378,-1.08748 -0.53861,-1.19947 -0.087,-0.078 -0.27419,-0.47007 -0.27645,-0.5789 -0.002,-0.11369 -0.0857,-0.32031 -0.18967,-0.47036 -0.22612,-0.32629 -1.16774,-1.04659 -1.76239,-1.34815 -0.14138,-0.0717 -0.27247,-0.14211 -0.29132,-0.15647 -0.0188,-0.0144 -0.16537,-0.0842 -0.3256,-0.15526 -0.16022,-0.071 -0.53808,-0.24072 -0.83969,-0.37709 -0.80169,-0.36247 -1.0503,-0.41169 -2.01962,-0.39984 -0.50782,0.006 -0.83385,0.0262 -1.00538,0.0616 -0.74809,0.15453 -1.89967,0.72194 -2.66432,1.31279 -0.1131,0.0874 -0.31802,0.23418 -0.45536,0.3262 -0.33244,0.2227 -0.70537,0.56084 -0.88389,0.80141 -0.17515,0.23603 -0.45489,0.7157 -0.57722,0.98973 -0.28415,0.63656 -0.52376,1.96719 -0.54206,3.01026 -0.005,0.27079 0.009,0.3895 0.0678,0.56551 0.0406,0.12252 0.0894,0.31081 0.1084,0.41841 0.0441,0.24939 0.13913,0.43455 0.27393,0.53369 0.0584,0.043 0.10625,0.0975 0.10625,0.12114 0,0.13666 0.97316,1.14779 1.62797,1.69148 0.23631,0.19621 1.13519,0.80193 1.43946,0.97 0.20138,0.11123 0.55879,0.32113 0.91701,0.53853 0.23401,0.14202 0.6958,0.36685 1.01942,0.49631 0.14138,0.0566 0.28018,0.12204 0.30846,0.1455 0.12491,0.10368 0.44248,0.1617 1.21012,0.2211 0.0341,0.003 0.21146,-0.0111 0.39414,-0.0305 z"
       id="path140" />
  </g>
</svg>
