<?xml version="1.0" encoding="UTF-8" standalone="no"?>
<svg
   xmlns:dc="http://purl.org/dc/elements/1.1/"
   xmlns:cc="http://creativecommons.org/ns#"
   xmlns:rdf="http://www.w3.org/1999/02/22-rdf-syntax-ns#"
   xmlns:svg="http://www.w3.org/2000/svg"
   xmlns="http://www.w3.org/2000/svg"
   xmlns:sodipodi="http://sodipodi.sourceforge.net/DTD/sodipodi-0.dtd"
   xmlns:inkscape="http://www.inkscape.org/namespaces/inkscape"
   width="210mm"
   height="297mm"
   viewBox="0 0 210 297"
   version="1.1"
   id="svg1017"
   inkscape:version="1.0.1 (3bc2e813f5, 2020-09-07)"
   sodipodi:docname="engraving.svg">
  <defs
     id="defs1011" />
  <sodipodi:namedview
     id="base"
     pagecolor="#ffffff"
     bordercolor="#666666"
     borderopacity="1.0"
     inkscape:pageopacity="0.0"
     inkscape:pageshadow="2"
     inkscape:zoom="0.35"
     inkscape:cx="400"
     inkscape:cy="560"
     inkscape:document-units="mm"
     inkscape:current-layer="layer1"
     inkscape:document-rotation="0"
     showgrid="false"
     inkscape:window-width="1920"
     inkscape:window-height="1136"
     inkscape:window-x="0"
     inkscape:window-y="0"
     inkscape:window-maximized="1" />
  <metadata
     id="metadata1014">
    <rdf:RDF>
      <cc:Work
         rdf:about="">
        <dc:format>image/svg+xml</dc:format>
        <dc:type
           rdf:resource="http://purl.org/dc/dcmitype/StillImage" />
        <dc:title></dc:title>
      </cc:Work>
    </rdf:RDF>
  </metadata>
  <g
     inkscape:label="Layer 1"
     inkscape:groupmode="layer"
     id="layer1">
    <path
       id="path806"
       style="fill:#000000;stroke-width:0.264583"
       d="m 120.69425,104.01024 c 2.46343,-0.35607 3.86242,-1.02529 5.31703,-2.5434 2.27757,-2.376997 3.3504,-5.358237 3.83885,-10.667547 0.4853,-5.2751 -0.35123,-10.77401 -2.24808,-14.77768 -1.66484,-3.51395 -4.88866,-6.21019 -8.09398,-6.76933 -0.90144,-0.15725 -0.9729,-0.11467 -1.39384,0.83054 -0.59602,1.33836 -1.50024,4.57051 -1.27535,4.55879 0.0989,-0.005 0.47742,-0.17954 0.84122,-0.38751 0.3638,-0.20796 1.01864,-0.37397 1.45521,-0.3689 0.62659,0.007 0.68782,0.0508 0.29075,0.20656 -0.44254,0.17361 -0.404,0.23832 0.32063,0.53848 1.15529,0.47853 3.04054,2.57951 3.9653,4.41905 1.71575,3.41294 2.64231,9.73302 1.90965,13.02572 -0.59388,2.66899 -1.98872,4.93729 -3.57592,5.81513 -0.29104,0.16097 -0.38034,0.29629 -0.19843,0.30072 0.1819,0.004 0.33072,0.1188 0.33072,0.25415 0,0.14831 -0.3192,0.15458 -0.80313,0.0158 -3.20546,-0.91931 -5.99972,-5.35417 -6.97917,-11.07686 l -0.28871,-1.68684 -1.12387,3.33362 c -0.61812,1.8335 -1.12377,3.54507 -1.12366,3.80351 2.6e-4,0.65691 1.38726,3.51772 2.57545,5.31224 0.54792,0.82753 1.71059,2.209597 2.58372,3.071257 1.72732,1.70469 1.04548,1.5587 -0.84079,-0.18001 -1.35369,-1.247787 -3.47937,-4.329627 -4.20779,-6.100497 -0.27922,-0.67883 -0.58077,-1.23468 -0.67012,-1.23523 -0.0893,-5.3e-4 -0.49985,0.48585 -0.91221,1.08089 -1.92703,2.78071 -4.28878,4.02528 -8.62191,4.54346 -1.43361,0.17145 -2.603236,0.43438 -2.599186,0.58433 0.0129,0.476327 1.539446,2.317567 2.301506,2.775907 1.14878,0.69092 2.98544,1.10951 5.80753,1.3236 3.92169,0.29751 11.36066,0.29755 13.41858,8e-5 z M 97.968644,98.723743 c 6.780346,-0.62544 9.237846,-1.48175 10.989766,-3.82944 2.42451,-3.24901 3.45201,-6.15925 6.74773,-19.11186 1.88898,-7.42399 2.61689,-8.80613 5.06285,-9.61336 1.38588,-0.45738 3.57921,-0.19466 4.71497,0.56475 2.03222,1.35886 4.51145,5.48033 5.63782,9.37237 1.14075,3.94166 1.44348,5.84695 1.53447,9.65728 0.0693,2.90258 0.17649,3.85471 0.44031,3.91144 0.39689,0.0853 2.78716,-0.74653 9.51832,-3.31256 l 4.69416,-1.78951 0.003,-1.05832 c 0.004,-1.61289 0.55364,-5.76169 0.83177,-6.28386 0.32749,-0.61484 0.0683,-0.58444 -0.78859,0.0925 l -0.70319,0.55553 -0.13229,-1.26334 -0.1323,-1.26333 -1.43473,1.5677 c -0.7891,0.86224 -2.21435,2.56048 -3.16722,3.77387 -0.95286,1.21339 -1.77218,2.08705 -1.82072,1.94145 -0.0485,-0.14561 0.0919,-0.95472 0.31216,-1.79804 0.22022,-0.84332 0.35652,-1.57719 0.30288,-1.63082 -0.14421,-0.14422 -2.14457,2.07913 -4.2052,4.67397 -0.99591,1.2541 -1.9117,2.31756 -2.03509,2.36323 -0.25846,0.0957 -0.0857,-5.39609 0.2981,-9.47574 0.44012,-4.67836 1.96384,-12.13317 3.31579,-16.22252 0.3759,-1.13702 0.6227,-2.12807 0.54844,-2.20233 -0.0743,-0.0743 -0.49736,0.0524 -0.94022,0.28137 -1.41076,0.72953 -1.94442,0.54769 -3.67163,-1.25101 -1.60779,-1.67434 -1.7084,-1.93382 -1.42219,-3.6677 0.0995,-0.60252 10.54489,-4.69111 12.06755,-4.72353 0.35862,-0.008 0.95553,-0.65085 1.85208,-1.99577 1.4322,-2.14843 3.83827,-4.70617 3.8336,-4.07525 -0.002,0.21282 -0.17447,0.95248 -0.38422,1.6437 -0.20975,0.69123 -0.34731,1.25678 -0.3057,1.25678 0.0416,0 0.52818,-0.65704 1.08126,-1.46009 2.31528,-3.36169 7.61875,-7.50556 10.83819,-8.46843 1.59359,-0.47661 2.49138,-0.48442 1.20592,-0.0105 -1.67506,0.61758 -4.33349,2.0431 -5.9503,3.19072 -2.04908,1.45446 -5.52871,5.10076 -6.87947,7.209 -0.58192,0.90823 -1.13974,1.65237 -1.23961,1.65364 -0.18215,0.002 0.72393,-3.55156 1.0405,-4.08111 0.0928,-0.15521 -0.0258,-0.12461 -0.26338,0.068 -0.23764,0.19261 -1.17538,1.43546 -2.08388,2.76189 -1.19682,1.74741 -1.54728,2.44251 -1.27235,2.52352 0.72675,0.21421 4.09058,3.93097 5.09001,5.62407 0.93591,1.58551 0.99471,1.80684 0.83953,3.16012 -0.11689,1.01943 -0.33024,1.58272 -0.71244,1.88096 -0.51213,0.39967 -0.52305,0.49626 -0.17808,1.57602 0.33864,1.05991 0.43922,1.15117 1.28036,1.16175 1.0923,0.0137 1.26998,0.4352 1.30973,3.10671 0.023,1.54392 -0.0589,1.86428 -0.63508,2.48603 -0.3638,0.39254 -0.66146,0.79731 -0.66146,0.89948 0,0.30018 -1.71437,0.96698 -6.11819,2.37967 -4.37858,1.40457 -5.03062,1.52326 -5.46828,0.99532 -0.1508,-0.18189 -0.78132,-2.38606 -1.40116,-4.89813 -1.37943,-5.59054 -1.32602,-6.27892 0.54053,-6.96664 1.39071,-0.5124 1.50491,-0.73061 0.947,-1.80947 -0.28738,-0.55575 -0.61536,-0.81171 -1.04011,-0.81171 -0.5615,0 -0.69813,0.26993 -1.43965,2.84427 -1.03138,3.58067 -2.26981,9.60219 -2.78884,13.55991 -0.49491,3.77391 -0.82641,10.31954 -0.52246,10.31643 0.12405,-10e-4 0.67069,-0.68588 1.21476,-1.52135 0.87998,-1.35129 1.4996,-2.1176 4.21444,-5.21216 0.38815,-0.44243 0.77029,-0.73988 0.8492,-0.66096 0.0789,0.0789 -0.0329,0.89971 -0.24856,1.82399 -0.21563,0.92429 -0.3494,1.72318 -0.29727,1.77531 0.0521,0.0521 0.81605,-0.82829 1.69762,-1.95647 0.88156,-1.1282 2.24053,-2.68604 3.01993,-3.46188 l 1.41709,-1.41061 0.0798,1.49112 0.0798,1.49115 1.50772,-1.29942 c 1.49642,-1.28969 4.73681,-3.59805 5.3269,-3.79475 0.17049,-0.0568 0.35616,-0.80838 0.41647,-1.68575 0.3199,-4.65398 1.02515,-7.72824 2.4876,-10.84362 1.98412,-4.22666 3.94901,-5.41932 6.79726,-4.1258 3.31115,1.50373 5.17531,5.59371 5.17627,11.35676 5.3e-4,2.73214 5.3e-4,2.73286 0.5398,2.24894 1.76357,-1.58279 4.08904,-5.35711 5.49378,-8.91654 0.88398,-2.23991 1.86027,-7.2669 1.86027,-9.57869 0,-1.30862 -0.0626,-1.45449 -0.78403,-1.82755 -0.55546,-0.28724 -0.86729,-0.71467 -1.06964,-1.46611 -0.28764,-1.06825 -0.18,-1.76557 0.55598,-3.60187 0.31112,-0.77625 0.27123,-0.91492 -0.62007,-2.15554 l -0.95258,-1.32592 0.56687,-2.0778 c 0.4942,-1.81143 0.56513,-2.75618 0.55328,-7.36947 -0.007,-2.91041 -0.12925,-5.64109 -0.2706,-6.06817 -0.52036,-1.57215 -0.75755,-0.91804 -0.78559,2.16647 -0.0203,2.22989 -0.19588,3.80444 -0.62155,5.57321 -0.32631,1.35589 -0.63931,2.41924 -0.69555,2.363 -0.0562,-0.0562 0.0845,-0.92748 0.31286,-1.93609 0.22832,-1.00861 0.47973,-3.53047 0.5587,-5.60415 l 0.14357,-3.77031 -2.8776,8e-4 c -2.98025,7.9e-4 -5.92241,0.40158 -10.0269,1.3656 l -2.38681,0.56059 -5.94757,-0.94495 c -3.27116,-0.51968 -6.72147,-1.02114 -7.66735,-1.11431 -7.21149,-0.71034 -13.47222,-1.60564 -16.13959,-2.30801 -1.67348,-0.44066 -4.08287,-1.07905 -5.35418,-1.41864 -1.2713,-0.3396 -3.0462,-0.65206 -3.94422,-0.69437 l -1.63276,-0.0769 -1.65956,3.30385 c -0.91276,1.81711 -1.60045,3.36296 -1.5282,3.43521 0.0723,0.0723 2.02354,0.39528 4.3362,0.71784 6.27111,0.87465 14.46895,2.79572 20.83259,4.88189 5.5236,1.81078 10.75585,3.92646 12.00038,4.85241 0.74119,0.55146 0.65728,0.52552 -2.88287,-0.89105 -5.49788,-2.19995 -14.94509,-4.96043 -22.28404,-6.5114 -8.89235,-1.87926 -20.41149,-2.85743 -26.964666,-2.28976 -5.67064,0.49123 -15.25864,2.65483 -17.09397,3.85738 -0.64359,0.42169 -1.39755,1.62079 -1.16194,1.84797 0.06,0.0579 1.41881,-0.2444 3.01954,-0.67172 8.54957,-2.28231 18.074896,-2.64416 29.751346,-1.13019 1.66564,0.21596 3.53242,0.6156 4.1484,0.88808 0.99691,0.44098 1.23679,0.73781 2.18313,2.70141 2.30619,4.78522 3.94878,10.75939 4.40906,16.03606 0.17799,2.04045 0.16074,2.13911 -0.4419,2.52714 -0.93377,0.60124 -4.89498,0.80917 -8.82921,0.46347 -4.99696,-0.43907 -16.522646,-1.78749 -24.077076,-2.81683 -9.09262,-1.23894 -10.59881,-1.46339 -13.49975,-2.01164 l -2.91641,-0.55117 -1.5815,0.79722 c -0.86983,0.43845 -4.02229,1.66235 -7.00547,2.71973 -2.98317,1.0574 -6.49335,2.38397 -7.80038,2.94794 -4.36199,1.88215 -9.35376,4.96169 -11.87731,7.32736 -1.32136,1.23869 -0.85142,0.26724 0.58846,-1.21645 3.5564,-3.66463 10.71921,-7.16402 22.12224,-10.80784 2.17747,-0.69581 3.81559,-1.31293 3.64025,-1.37137 -0.17534,-0.0584 -1.83785,0.0811 -3.69447,0.31013 -1.85661,0.22903 -5.22113,0.60056 -7.4767,0.82563 -7.93801,0.7921 -12.85204,1.87804 -17.60902,3.89132 -4.27948,1.81121 -8.67417,5.10172 -11.02889,8.25782 -1.86955,2.50583 -2.1149,2.11966 2.89199,4.55176 2.04953,0.99555 3.54476,1.88324 3.62184,2.15021 0.32302,1.11863 0.46757,3.97102 0.20933,4.13062 -0.15048,0.093 -2.38199,-0.61677 -4.9589,-1.57726 -3.69976,-1.37903 -4.73236,-1.67211 -4.90906,-1.39336 -0.3532,0.5572 -0.2696,3.08051 0.19203,5.7965 0.56681,3.33479 1.7271,6.8918 3.4173,10.47613 1.56434,3.31742 1.32094,3.1101 5.71055,4.86407 8.12912,3.24821 16.31488,5.15575 31.59095,7.3617 9.29924,1.34285 20.82358,1.91992 26.9875,1.35133 z m -41.39154,-9.00944 c -2.2081,-0.39392 -2.86726,-0.92447 -4.49571,-3.61854 -0.81024,-1.34045 -2.26319,-3.42621 -3.22877,-4.63502 -1.71407,-2.14585 -1.81001,-2.21851 -4.05594,-3.07163 -1.26519,-0.48059 -2.24621,-0.92795 -2.18003,-0.99412 0.0662,-0.0662 0.58166,0.0596 1.14553,0.27941 7.84572,3.05904 20.31317,3.90288 31.04867,2.10147 1.37873,-0.23136 2.80748,-0.53971 3.175,-0.68524 0.63426,-0.25115 0.64132,-0.2756 0.13904,-0.48143 -0.29104,-0.11928 -0.90909,-0.22522 -1.37345,-0.23545 -0.46435,-0.0102 -0.92959,-0.15662 -1.03385,-0.32534 -0.27338,-0.44233 2.91104,-0.10769 4.25938,0.4476 1.26914,0.52267 3.63953,1.99636 3.47529,2.1606 -0.0642,0.0642 -0.59976,-0.12972 -1.19015,-0.43092 -1.43698,-0.73309 -1.63589,-0.70309 -2.69625,0.40657 -1.31417,1.3753 -4.45678,3.70836 -7.65868,5.68579 -3.10071,1.91494 -4.22688,2.45354 -6.35,3.03693 -1.80085,0.49485 -7.04438,0.70466 -8.98008,0.35932 z m 9.07418,-1.1932 c 1.63337,-0.41934 4.82964,-1.84718 5.09457,-2.27585 0.17702,-0.28642 -1.683,-0.0338 -3.5703,0.48496 -1.26906,0.3488 -4.2642,1.8247 -4.2642,2.10123 0,0.2244 1.17597,0.0912 2.73993,-0.31034 z m 3.0888,-5.00812 c 4.34006,-0.52407 8.4463,-1.41197 9.17917,-1.98483 1.46426,-1.14454 2.49641,-2.16104 2.34652,-2.31094 -0.09,-0.09 -0.90618,0.0972 -1.81372,0.41597 -4.05122,1.42304 -11.78562,2.11862 -18.22806,1.63928 -4.0589,-0.30201 -9.10506,-0.94029 -9.95735,-1.25952 -0.4094,-0.15334 -0.41474,-0.12088 -0.0565,0.34319 1.47973,1.91683 2.80556,3.27996 3.28133,3.37366 1.52863,0.30102 12.21907,0.14903 15.2486,-0.21681 z m 7.66502,-8.60198 c 0,-0.48296 0.13173,-1.63462 0.29275,-2.55922 0.21733,-1.248 0.4351,-1.75727 0.84532,-1.97681 1.59887,-0.85568 14.42776,-2.22441 15.04682,-1.60534 0.23526,0.23525 0.23519,0.98228 -2.6e-4,3.13885 -0.16997,1.55655 -0.33892,2.85566 -0.37546,2.8869 -0.0365,0.0312 -2.44769,0.18996 -5.35811,0.35275 -2.91042,0.16277 -6.45252,0.37359 -7.87135,0.46848 l -2.57969,0.17251 v -0.87812 z m 2.77321,-1.13379 c -0.1398,-1.11887 -0.0888,-1.4747 0.25194,-1.75749 0.23497,-0.195 0.50372,-0.27806 0.59721,-0.18457 0.0935,0.0935 0.0311,0.17 -0.13868,0.17 -0.18267,0 -0.30868,0.42323 -0.30868,1.03669 0,1.71101 0.15164,1.87373 1.74619,1.87373 h 1.425 l -0.0415,-1.05834 c -0.038,-0.96933 -0.10294,-1.05833 -0.77245,-1.05833 -0.47368,0 -0.77356,0.16297 -0.85197,0.46302 -0.0943,0.36077 -0.12778,0.33621 -0.15169,-0.11127 -0.0232,-0.43368 0.16364,-0.61697 0.76306,-0.74863 0.73594,-0.16164 0.79375,-0.2595 0.79375,-1.34393 0,-0.83957 -0.10711,-1.16961 -0.37958,-1.16961 -0.89427,0 -4.27726,0.84105 -4.56321,1.13447 -0.17193,0.1764 -0.39567,1.18395 -0.49721,2.23897 l -0.18463,1.91823 h 1.24385 1.24385 z m 1.46012,-2.30123 c 0,-0.14552 -0.2311,-0.26458 -0.51355,-0.26458 -0.28245,0 -0.59236,-0.12753 -0.68869,-0.28338 -0.11458,-0.18539 0.13088,-0.25401 0.70982,-0.19844 0.58993,0.0566 0.9142,0.2393 0.97268,0.54796 0.0482,0.25467 -0.0401,0.46303 -0.19628,0.46303 -0.15618,0 -0.28398,-0.11906 -0.28398,-0.26459 z m 4.65185,3.175 c 0.83528,0 0.90764,-0.0657 0.94675,-0.85989 l 0.0423,-0.85989 0.10671,0.85989 c 0.1,0.80564 0.1721,0.85989 1.14324,0.85989 1.15381,0 1.07977,0.13609 1.58347,-2.91041 0.15639,-0.94588 0.34572,-1.92816 0.42074,-2.18281 0.15024,-0.51002 -0.46175,-0.60188 -1.98286,-0.29767 -0.70123,0.14025 -0.83325,0.29096 -0.86917,0.99219 l -0.0423,0.82682 -0.10906,-0.89141 c -0.10601,-0.86649 -0.13627,-0.88691 -1.08214,-0.73051 -0.53519,0.0885 -1.24096,0.16221 -1.56838,0.16381 -0.57463,0.003 -0.59531,0.0887 -0.59531,2.47236 0,2.54499 0.10743,2.93913 0.73542,2.69815 0.2014,-0.0773 0.77317,-0.14052 1.27059,-0.14052 z m -0.63365,-2.3151 c 0.0493,-0.25889 0.37868,-0.50395 0.74701,-0.55584 0.36231,-0.0511 0.75445,-0.22964 0.87141,-0.39687 0.1311,-0.18745 0.1808,-0.1011 0.12959,0.2251 -0.0491,0.31298 -0.32518,0.56371 -0.67568,0.61372 -0.32594,0.0465 -0.59261,0.19532 -0.59261,0.33072 0,0.13541 -0.1278,0.24619 -0.28398,0.24619 -0.1562,0 -0.24428,-0.20836 -0.19574,-0.46302 z m -0.31403,-1.38076 c 0,-0.14096 0.17859,-0.18774 0.39687,-0.10399 0.25765,0.0989 0.39688,-0.007 0.39688,-0.30118 0,-0.29441 -0.13923,-0.40008 -0.39688,-0.30121 -0.21828,0.0838 -0.39687,0.037 -0.39687,-0.10397 0,-0.27257 0.86934,-0.35709 1.11775,-0.10867 0.0812,0.0812 0.0871,0.37883 0.0132,0.66145 -0.13443,0.51408 -1.13098,0.74104 -1.13098,0.25757 z m 7.41785,3.49742 c 0.005,-0.10914 0.16334,-1.36493 0.35134,-2.79065 0.188,-1.42572 0.26765,-2.63806 0.177,-2.69408 -0.0906,-0.056 -0.65575,-0.036 -1.25578,0.0445 l -1.09096,0.14633 -0.27743,1.62172 c -0.15259,0.89192 -0.35612,2.12771 -0.4523,2.74617 l -0.17485,1.12448 h 1.35673 c 0.7462,0 1.36102,-0.0893 1.36625,-0.19843 z m 10.309226,-2.05392 c 0,-0.19534 1.72899,-2.11256 3.57188,-3.96077 1.71864,-1.7236 4.52638,-3.76848 4.79943,-3.49541 0.093,0.093 -0.0767,0.73688 -0.37711,1.43086 -0.30041,0.694 -0.50373,1.30427 -0.45182,1.35617 0.0519,0.0519 0.90618,-0.55476 1.89839,-1.34814 0.99221,-0.79337 2.81605,-2.13494 4.05298,-2.98125 1.23693,-0.84631 2.35668,-1.63225 2.48834,-1.74652 0.25878,-0.22464 -2.77155,-1.68416 -5.66001,-2.72609 l -1.79108,-0.64607 -1.30979,1.63635 c -0.72039,0.9 -1.48969,1.90349 -1.70955,2.22998 -0.50987,0.75718 -0.74916,0.51122 -0.74916,-0.77002 0,-0.55782 -0.11773,-1.01423 -0.26163,-1.01423 -0.1439,0 -0.72852,0.92862 -1.29917,2.06357 -1.04853,2.08542 -1.79474,4.31872 -2.49309,7.46143 -0.36004,1.62025 -0.38394,1.65667 -0.41309,0.62924 -0.0485,-1.70889 1.12743,-5.86859 2.3517,-8.31897 1.56089,-3.12419 2.37591,-3.95531 2.38348,-2.43058 0.002,0.40018 0.0752,0.9947 0.16268,1.32114 0.14072,0.52506 0.30733,0.38241 1.4444,-1.23671 0.70693,-1.00664 1.40167,-1.90214 1.54386,-1.99003 0.65005,-0.40174 8.45805,2.92588 8.6619,3.69153 0.0387,0.14553 -0.90649,0.91943 -2.1005,1.7198 -1.19401,0.80037 -3.46484,2.38479 -5.04629,3.52094 -1.58145,1.13615 -2.92854,2.01255 -2.99353,1.94755 -0.065,-0.065 0.17537,-0.72668 0.53416,-1.47041 0.35879,-0.74374 0.5619,-1.35225 0.45135,-1.35225 -0.49185,0 -2.72663,1.85854 -4.97397,4.13659 -2.28182,2.31297 -2.71476,2.68652 -2.71476,2.3423 z M 86.062394,60.768013 c 1.30969,-1.22769 2.53482,-2.23766 2.72252,-2.24438 0.1877,-0.007 0.82694,0.23555 1.42054,0.53837 1.16214,0.59289 1.38312,0.50971 1.64972,-0.62098 0.14622,-0.62014 0.068,-0.77157 -0.51224,-0.99219 -0.91546,-0.34805 -1.46787,-0.29981 -0.71648,0.0626 0.71005,0.34244 0.80791,1.26967 0.13229,1.25349 -0.25466,-0.006 -0.87974,-0.25153 -1.38906,-0.5454 -0.50932,-0.29387 -0.70662,-0.46697 -0.43844,-0.38466 1.2994,0.39881 1.76136,0.44967 1.76136,0.19391 0,-0.15149 -0.25386,-0.35601 -0.56413,-0.45448 -0.44315,-0.14065 -0.4857,-0.22872 -0.19843,-0.41065 0.30874,-0.19555 0.30732,-0.23224 -0.009,-0.23566 -0.20616,-0.002 -0.31565,-0.0632 -0.24331,-0.13557 0.11204,-0.11204 2.55811,0.59176 2.82721,0.81348 0.0508,0.0419 0.0106,0.5604 -0.0894,1.15229 -0.21346,1.2635 -0.643,1.36783 -2.25197,0.547 -0.57049,-0.29104 -1.0997,-0.52917 -1.17602,-0.52917 -0.0763,0 -1.17641,0.9525 -2.44463,2.11667 -1.26822,1.16416 -2.43091,2.11461 -2.58375,2.11208 -0.15284,-0.003 0.79367,-1.00905 2.10336,-2.23673 z m -0.91751,-0.17961 c 1.55308,-1.37079 2.04739,-1.95257 1.79499,-2.11261 -0.54687,-0.34679 -0.97404,-0.27123 -1.76254,0.31173 -0.80839,0.59768 -1.48459,0.48711 -1.91265,-0.31272 -0.2834,-0.52954 -0.13147,-1.02173 0.3154,-1.02173 0.14552,0 0.19252,0.11659 0.10444,0.25912 -0.0881,0.14251 -0.0309,0.50057 0.12703,0.79568 0.28674,0.53579 0.28868,0.53571 1.31224,-0.0534 0.95747,-0.55104 1.08092,-0.56351 1.87151,-0.18909 l 0.84642,0.40086 -2.11534,1.90695 c -1.16344,1.04882 -2.25247,1.90695 -2.42008,1.90695 -0.16761,0 0.65975,-0.8513 1.83858,-1.89175 z m -5.03561,1.4446 c 0,-0.14553 0.23812,-0.48009 0.52916,-0.74348 0.29104,-0.26339 0.52917,-0.35982 0.52917,-0.21431 0,0.14552 -0.23813,0.4801 -0.52917,0.74349 -0.29104,0.26339 -0.52916,0.35982 -0.52916,0.2143 z m 2.24895,-1.14035 c 0.56839,-0.58208 1.1525,-1.05833 1.29802,-1.05833 0.14552,0 -0.20046,0.47625 -0.76885,1.05833 -0.56839,0.58208 -1.1525,1.05833 -1.29802,1.05833 -0.14552,0 0.20047,-0.47625 0.76885,-1.05833 z m 7.60405,0.6075 c 0.64591,-0.71686 4.7602,-2.81817 6.81575,-3.48103 4.730526,-1.52551 8.786776,-2.16342 19.579156,-3.07915 4.29287,-0.36424 8.74041,-0.78862 9.88342,-0.94307 1.14302,-0.15444 2.1265,-0.23253 2.18551,-0.17352 0.30787,0.30788 -4.80312,1.07646 -12.67344,1.90585 -14.20554,1.49698 -16.363556,1.99809 -25.324646,5.88056 -0.90884,0.39375 -0.91749,0.39171 -0.46575,-0.10964 z m -7.73437,-2.98399 c -0.17975,-0.43396 -0.25222,-0.98339 -0.16105,-1.22097 0.0943,-0.24579 -0.23878,-0.0768 -0.77283,0.39212 -1.32813,1.16612 -1.48629,1.02292 -0.25871,-0.23424 0.56839,-0.58209 0.87036,-1.05834 0.67105,-1.05834 -0.1993,0 -0.29193,-0.0704 -0.20583,-0.15654 0.37341,-0.37342 1.0706,0.40782 1.11301,1.24718 0.0249,0.49155 0.13912,1.10209 0.25396,1.35676 0.12132,0.26902 0.0995,0.46302 -0.052,0.46302 -0.14344,0 -0.40786,-0.35505 -0.58761,-0.78899 z m -5.62436,0.10849 c -0.40019,-0.21711 -0.72761,-0.45466 -0.72761,-0.52789 0,-0.0732 0.2303,-0.01 0.51178,0.14074 0.70058,0.37495 0.78114,0.34864 0.63568,-0.20761 -0.0713,-0.2726 0.0829,-0.64566 0.3555,-0.85989 0.43395,-0.34108 0.44782,-0.3354 0.14063,0.0577 -0.18743,0.23985 -0.28461,0.74586 -0.21596,1.12446 0.0687,0.37861 0.10295,0.68361 0.0762,0.67779 -0.0267,-0.006 -0.37605,-0.18822 -0.77623,-0.40533 z m -10.95816,-0.49848 c 0,-0.21189 0.10116,-0.32272 0.2248,-0.24631 0.12364,0.0764 0.1563,0.24977 0.0726,0.38524 -0.21395,0.34617 -0.29738,0.3072 -0.29738,-0.13893 z m -1.07981,10e-4 c 0.10946,-0.12893 -0.01,-0.48014 -0.26458,-0.78047 -0.28527,-0.33603 -0.31094,-0.42928 -0.0667,-0.24242 0.21827,0.16702 0.49608,0.30389 0.61736,0.30412 0.44745,8e-4 0.44105,0.24348 -0.0157,0.59345 -0.25818,0.19784 -0.37986,0.25423 -0.2704,0.12532 z m 14.42404,-0.87261 c 0.75276,-0.5457 1.37216,-1.14101 1.37644,-1.3229 0.0106,-0.45044 0.44651,-0.41892 0.6246,0.0452 0.0929,0.24211 -0.34518,0.71299 -1.23075,1.32292 -1.83147,1.26137 -2.51712,1.22116 -0.77029,-0.0452 z m -4.2602,0.28665 c -0.097,-0.097 -0.17639,-0.41452 -0.17639,-0.70557 0,-0.64924 0.24174,-0.45275 0.38998,0.31699 0.11507,0.59754 0.0726,0.67478 -0.21359,0.38858 z m 13.71423,-0.61741 c -0.29104,-0.12507 -0.38289,-0.23576 -0.20411,-0.24599 0.44096,-0.0252 -0.0718,-1.23022 -0.92339,-2.16984 -0.65132,-0.71868 -3.18341,-2.225 -3.39108,-2.01733 -0.0645,0.0645 0.46927,0.48183 1.18611,0.92744 1.32326,0.82258 2.26991,1.93089 2.09569,2.45356 -0.0528,0.15824 -0.45734,-0.2249 -0.89908,-0.85142 -0.50565,-0.71715 -1.38596,-1.45937 -2.37637,-2.00359 -1.15464,-0.63447 -1.36201,-0.82236 -0.77944,-0.70621 0.60559,0.12074 0.69967,0.0914 0.39688,-0.12367 -0.73761,-0.52399 0.0475,-0.2944 1.71545,0.50164 1.6607,0.79258 3.57622,2.56557 3.57622,3.31013 0,0.21786 0.14882,0.39793 0.33072,0.40016 0.24219,0.003 0.23418,0.0652 -0.0299,0.23255 -0.3045,0.19292 -0.3045,0.25085 0,0.37194 0.19836,0.0789 0.2416,0.14446 0.0961,0.14572 -0.14552,10e-4 -0.50271,-0.10003 -0.79375,-0.22509 z m -24.08796,-0.28219 c -0.0959,-0.1552 -0.11766,-0.33893 -0.0483,-0.40829 0.0693,-0.0694 0.1966,0.0576 0.28277,0.28219 0.17891,0.46622 0.0264,0.54823 -0.23447,0.1261 z m 13.63692,0.18229 c 0,-0.0549 0.20836,-0.2633 0.46302,-0.46302 0.41964,-0.32911 0.429,-0.31975 0.0999,0.0999 -0.34565,0.44073 -0.56292,0.58089 -0.56292,0.36313 z m 1.12218,-0.82553 c 0.10788,-0.11908 0.0635,-0.3763 -0.0985,-0.57158 -0.18527,-0.22325 -0.19493,-0.35508 -0.026,-0.35508 0.41316,0 0.60747,0.75344 0.24759,0.95999 -0.17555,0.10075 -0.23091,0.0858 -0.12304,-0.0333 z m -15.12421,-0.55183 c 0.0127,-0.30823 0.0754,-0.37092 0.15985,-0.15985 0.0764,0.19099 0.067,0.41919 -0.0209,0.50711 -0.0879,0.0879 -0.15046,-0.0683 -0.13897,-0.34726 z m 6.21383,-0.98155 c 0.0994,-0.26094 0.2473,-0.40778 0.32877,-0.32632 0.0815,0.0815 1.7e-4,0.29495 -0.18066,0.47443 -0.2613,0.25936 -0.29169,0.22897 -0.14811,-0.14811 z m 3.95174,0.0776 c -0.0899,-0.14553 -0.0445,-0.26459 0.10106,-0.26459 0.14552,0 0.33817,0.11906 0.42811,0.26459 0.0899,0.14552 0.0445,0.26458 -0.10107,0.26458 -0.14552,0 -0.33816,-0.11906 -0.4281,-0.26458 z m 3.22186,-0.159 c 0.0894,-0.23296 -0.004,-0.5288 -0.20674,-0.65741 -0.24956,-0.15802 -0.26508,-0.23513 -0.0479,-0.23788 0.38077,-0.005 0.92426,0.91104 0.68351,1.15179 -0.32254,0.32254 -0.58977,0.16273 -0.4289,-0.2565 z m -6.79373,-1.4285 c 0.46101,-0.58209 0.89774,-1.05834 0.9705,-1.05834 0.0728,0 -0.2449,0.47625 -0.70592,1.05834 -0.46102,0.58208 -0.89775,1.05833 -0.97051,1.05833 -0.0728,0 0.24491,-0.47625 0.70593,-1.05833 z m 4.7625,0.77813 c 0,-0.15411 0.11906,-0.20661 0.26458,-0.11667 0.14552,0.0899 0.26458,0.21602 0.26458,0.28019 0,0.0642 -0.11906,0.11668 -0.26458,0.11668 -0.14552,0 -0.26458,-0.12609 -0.26458,-0.2802 z m -3.70417,-0.24897 c -0.23847,-0.15411 -0.2711,-0.25809 -0.0818,-0.26053 0.17331,-0.002 0.3887,0.11502 0.47863,0.26053 0.20302,0.32849 0.11142,0.32849 -0.39687,0 z m -1.5016,-1.15695 c 0.22623,-0.34528 0.35563,-0.91083 0.28755,-1.25677 l -0.1238,-0.62898 0.2688,0.60957 c 0.20359,0.4617 0.16593,0.76659 -0.15525,1.25677 -0.23324,0.35596 -0.48359,0.6472 -0.55635,0.6472 -0.0728,0 0.0528,-0.28251 0.27905,-0.62779 z m 58.565806,-1.68732 c -0.0644,-0.10914 -0.55941,-1.62719 -1.1001,-3.37344 -1.33474,-4.31074 -3.12253,-9.23017 -4.5502,-12.52075 -0.65173,-1.50214 -1.11611,-2.91061 -1.03195,-3.12993 0.12501,-0.32577 0.48,-0.36682 1.93918,-0.22423 5.46578,0.53409 12.15961,1.76716 14.18319,2.61266 0.6532,0.27293 1.41453,1.09898 2.74959,2.98338 2.58758,3.65228 4.03606,6.08637 4.03335,6.7778 -0.005,1.32393 -7.28457,5.01804 -12.66051,6.4249 -2.60044,0.68052 -3.36917,0.77754 -3.56255,0.44961 z m 3.46409,-1.14304 c 2.73276,-0.73171 6.80131,-2.3608 9.71857,-3.89142 2.02784,-1.06397 2.37158,-1.33954 2.31608,-1.85683 -0.0732,-0.68219 -4.31062,-7.59504 -5.35957,-8.7435 -0.56235,-0.61568 -1.15038,-0.84005 -3.44746,-1.3154 -3.10122,-0.64176 -10.35266,-1.63679 -11.92838,-1.63679 -1.11601,0 -1.28315,0.31107 -0.65161,1.21273 0.68844,0.98288 3.26182,7.33048 4.76433,11.75185 0.81596,2.4011 1.53727,4.51446 1.60293,4.69636 0.163,0.45163 0.60901,0.41921 2.98511,-0.217 z m 12.89504,-8.18123 c -0.65213,-1.01739 -1.96104,-2.92143 -2.90868,-4.2312 -0.94765,-1.30977 -1.723,-2.44189 -1.723,-2.51583 0,-0.4411 6.98526,0.96329 9.17703,1.84504 1.01378,0.40784 1.13103,0.55636 1.38906,1.75955 0.15501,0.72276 0.28183,1.77093 0.28183,2.32927 0,1.08758 -0.056,1.13333 -2.74429,2.24088 -1.8312,0.75444 -2.15985,0.61929 -3.47195,-1.42771 z m 3.97309,0.54347 c 1.87741,-0.85126 1.9561,-1.0303 1.54521,-3.51588 -0.15056,-0.91077 -0.2761,-1.02807 -1.65074,-1.54246 -1.78064,-0.6663 -6.84661,-1.89095 -7.3724,-1.7822 -0.24672,0.051 0.19276,0.79451 1.3008,2.20062 0.92038,1.16795 2.14966,2.86355 2.73174,3.768 0.58208,0.90444 1.20977,1.64549 1.39487,1.64676 0.1851,10e-4 1.10783,-0.34741 2.05052,-0.77484 z m 23.16612,-6.52093 c 0.0127,-0.30823 0.0754,-0.37092 0.15985,-0.15986 0.0764,0.191 0.067,0.4192 -0.0209,0.50712 -0.0879,0.0879 -0.15045,-0.0684 -0.13897,-0.34726 z M 63.420494,97.735763 c -0.35279,-0.40019 -0.64674,-0.75275 -0.65322,-0.78348 -0.006,-0.0307 -1.61383,-0.36629 -3.57187,-0.74566 -4.5107,-0.87395 -12.60523,-2.83437 -14.64787,-3.5476 -0.85952,-0.3001 -1.68799,-0.54565 -1.84102,-0.54565 -0.5933,0 2.15095,2.43755 3.4038,3.0234 2.40808,1.12605 12.42846,3.05546 17.0456,3.28211 l 0.90601,0.0445 z m 2.8891,0.0634 c 0.24303,-0.24302 -0.10007,-0.35955 -1.55095,-0.52679 l -1.45042,-0.16719 0.65157,0.56862 c 0.48141,0.42014 0.85642,0.52768 1.43592,0.41178 0.43139,-0.0863 0.84264,-0.21516 0.91388,-0.28642 z m 55.483696,-0.40163 c 1.79971,-1.11226 3.24682,-4.30378 3.48714,-7.69064 0.22534,-3.17576 -0.954,-8.68847 -2.37189,-11.08726 -1.20413,-2.03713 -3.47064,-3.96875 -4.65683,-3.96875 -0.81917,0 -1.69229,0.88695 -2.04327,2.07566 l -0.3246,1.09934 h 0.8146 c 3.2121,0 5.75632,4.1113 5.79875,9.37046 0.028,3.47603 -1.11637,5.87139 -3.37849,7.07145 -0.64571,0.34254 -1.17402,0.70438 -1.17402,0.80407 0,0.24136 2.56011,2.86236 2.79586,2.86236 0.10142,0 0.57516,-0.24151 1.05275,-0.53669 z m -2.14637,-4.23787 c 1.7807,-1.64141 2.32014,-3.03661 2.30229,-5.95458 -0.0303,-4.94786 -2.24109,-8.82776 -5.07608,-8.90836 -0.72574,-0.0206 -1.29287,0.36385 -1.30565,0.88515 -0.002,0.091 0.32337,0.23115 0.72356,0.31158 0.93596,0.18807 2.55612,1.27974 2.64366,1.78133 0.0372,0.21316 -0.0419,0.55808 -0.17584,0.76646 -0.20903,0.32529 -0.47114,0.30999 -1.85176,-0.10803 -0.88454,-0.26781 -1.62012,-0.61692 -1.63463,-0.77577 -0.0398,-0.43615 -0.44619,0.94807 -0.47641,1.62284 -0.0229,0.51139 0.0553,0.55771 0.59502,0.35251 1.46313,-0.5563 2.68144,1.00322 2.68422,3.43599 0.002,1.8962 -0.60409,2.89877 -1.7529,2.89877 -0.75044,0 -0.80216,0.0564 -0.6408,0.69937 0.0965,0.38466 0.5187,1.45622 0.93813,2.38125 0.92763,2.04584 1.3734,2.13589 3.02719,0.61149 z m -2.49608,-0.91422 c -0.35845,-0.94279 -0.3325,-1.45497 0.0737,-1.45497 0.18601,0 0.75156,-0.28589 1.25677,-0.63531 0.82973,-0.57385 0.96242,-0.59635 1.37178,-0.23246 0.39779,0.35358 0.40905,0.48824 0.0921,1.10118 -0.19862,0.38408 -0.84908,0.97257 -1.44548,1.30776 l -1.08437,0.60945 z m 1.46396,-0.40199 c 0.90682,-0.56044 1.34308,-1.26686 0.9922,-1.60659 -0.11391,-0.11028 -0.70073,0.093 -1.30405,0.45173 -0.83493,0.49646 -1.06454,0.77611 -0.96133,1.17082 0.16796,0.64227 0.20896,0.64176 1.27318,-0.016 z m 0.9415,-4.55871 c -0.43775,-1.13743 -0.8606,-3.35483 -0.69182,-3.62791 0.0934,-0.15108 0.31157,-0.27287 0.48488,-0.27064 0.24256,0.003 0.24223,0.0504 -0.001,0.20528 -0.45915,0.29189 0.46404,3.86191 1.02668,3.97027 0.23314,0.0449 0.47281,-0.15297 0.55198,-0.45572 0.1784,-0.6822 -0.25037,-2.62095 -0.74865,-3.38518 -0.33684,-0.51665 -0.33531,-0.56908 0.0127,-0.43552 0.38578,0.14804 1.19358,2.38021 1.19358,3.2982 0,0.86318 -0.32088,1.29653 -0.96002,1.29653 -0.41821,0 -0.71795,-0.20559 -0.86794,-0.59531 z m 12.59143,-0.92605 c -0.31776,-5.97872 -1.58255,-10.91772 -3.73686,-14.59239 -1.99319,-3.39984 -3.9348,-5.06256 -5.89363,-5.0471 -0.86687,0.007 -2.71265,0.79927 -3.18135,1.36584 -0.28133,0.34006 -0.12913,0.44192 1.05833,0.70827 2.37038,0.53171 3.92899,1.43076 5.62025,3.24195 1.92152,2.05777 3.12052,4.40503 3.97915,7.78982 0.68433,2.69771 1.27893,7.75448 0.99792,8.48677 -0.16383,0.42695 0.50901,1.1557 1.06702,1.1557 0.15776,0 0.19164,-1.18101 0.0892,-3.10886 z m -15.08,2.26899 c 1.19053,-1.11844 0.60018,-4.77471 -0.82884,-5.13339 -1.04499,-0.26226 -1.47018,0.27209 -1.4629,1.83846 0.0113,2.43041 0.53763,3.85154 1.43185,3.86616 0.13614,0.002 0.52309,-0.25482 0.85989,-0.57123 z m 44.99015,-0.73081 c 1.59285,-0.69786 3.19079,-2.31135 4.13557,-4.17577 2.56594,-5.06365 1.73517,-15.87943 -1.65489,-21.545 -1.0562,-1.76516 -3.43734,-3.85524 -5.02108,-4.40733 -0.81819,-0.28522 -0.8432,-0.26865 -1.60343,1.06248 -1.70177,2.97968 -3.19229,9.4308 -3.19229,13.81654 0,1.16216 -0.10442,1.48224 -0.59531,1.82465 -0.44203,0.30834 -0.48797,0.41885 -0.17841,0.42916 1.34181,0.0447 2.47293,3.27084 1.86185,5.31042 -0.20958,0.69951 -0.5229,1.16274 -0.84312,1.24649 -0.28027,0.0733 -0.50959,0.2692 -0.50959,0.43534 0,0.68802 2.21858,3.62576 3.44381,4.56013 0.72528,0.55309 1.31869,1.04312 1.31869,1.08894 0,0.0458 -0.46175,-0.15227 -1.02611,-0.44019 -1.28054,-0.65328 -3.01046,-2.59326 -3.79844,-4.25967 -0.79784,-1.68726 -1.42842,-1.86219 -1.79572,-0.49812 -0.34713,1.28912 -0.9023,1.60623 -2.26055,1.29125 -1.90836,-0.44257 -2.45104,-0.34158 -2.54483,0.47355 -0.0689,0.59893 -0.36344,0.8608 -1.66537,1.48082 -1.50637,0.71737 -1.55673,0.77214 -1.05833,1.15076 1.88058,1.42861 5.08842,1.93195 11.63581,1.8258 3.47125,-0.0563 4.14211,-0.14029 5.35174,-0.67025 z m -0.92186,-4.21039 c -1.03189,-0.29729 -2.29047,-1.49693 -3.06663,-2.923 -1.96471,-3.60982 -2.32978,-11.62201 -0.69766,-15.31168 0.53065,-1.19962 2.20692,-2.97175 2.811,-2.97175 0.19793,0 0.36068,0.0893 0.36167,0.19843 0.001,0.10914 0.43418,0.49296 0.96264,0.85294 1.45868,0.99361 2.65513,3.01144 3.30224,5.56923 0.47939,1.89484 0.54278,2.69462 0.40845,5.15335 -0.0874,1.60074 -0.35146,3.6248 -0.58669,4.49793 -0.48558,1.80235 -2.20774,5.1728 -2.62277,5.133 -0.15128,-0.0145 -0.54379,-0.1038 -0.87225,-0.19845 z m 1.68799,-2.02413 c 1.34791,-2.43427 1.819,-4.73073 1.7911,-8.73125 -0.0264,-3.78098 -0.48744,-5.64464 -1.85932,-7.51545 -0.80685,-1.1003 -2.21765,-2.38896 -2.62671,-2.39931 -0.34645,-0.009 -1.5289,1.2351 -1.94757,2.04873 -0.27913,0.54245 -0.18362,0.72283 0.98599,1.86206 1.94055,1.89017 2.55365,3.64558 2.55901,7.32687 0.004,2.59415 -0.0713,3.07188 -0.69113,4.39605 -0.38246,0.81708 -0.99111,1.7087 -1.35257,1.98134 -0.62143,0.46876 -0.63453,0.53032 -0.24076,1.1313 0.45912,0.7007 1.885,1.66393 2.27375,1.53601 0.13594,-0.0447 0.63463,-0.78109 1.10821,-1.63635 z m -2.25881,-3.39947 c 1.45693,-3.34016 0.77765,-8.33663 -1.45459,-10.6992 -1.12626,-1.19202 -1.74301,-1.31002 -1.74301,-0.3335 0,0.26706 0.35718,0.86794 0.79375,1.33529 0.906,0.96988 0.99321,1.44958 0.33089,1.82024 -0.33472,0.18731 -0.59108,0.14297 -0.92604,-0.16016 -0.4269,-0.38635 -0.46319,-0.37664 -0.46319,0.12399 0,0.29874 0.29623,1.06133 0.65827,1.69465 0.75595,1.32234 0.84694,2.71657 0.26778,4.10272 -0.61831,1.4798 -0.52654,1.81938 0.3132,1.15884 0.69978,-0.55045 0.71743,-0.55121 1.21719,-0.0514 0.43103,0.43103 0.45878,0.60124 0.18499,1.13466 -0.17716,0.34514 -0.56488,0.82066 -0.86161,1.0567 -0.35775,0.2846 -0.47869,0.58763 -0.359,0.89953 0.16695,0.43506 0.22802,0.42571 0.81366,-0.12447 0.34825,-0.32716 0.90071,-1.20818 1.22771,-1.95785 z m -1.49709,-3.16995 c -0.0742,-0.19343 -0.15979,-1.05664 -0.19013,-1.91822 -0.0498,-1.41518 -0.001,-1.57426 0.50565,-1.64656 0.67256,-0.096 0.88552,0.50827 0.89077,2.52742 0.003,1.22101 -0.0614,1.38906 -0.53386,1.38906 -0.29561,0 -0.5982,-0.15826 -0.67243,-0.3517 z m 0.89019,-1.63237 c -0.12865,-1.55146 -0.32741,-1.97255 -0.73749,-1.56247 -0.40619,0.40618 -0.003,3.01738 0.46536,3.01738 0.31433,0 0.36869,-0.29059 0.27213,-1.45491 z m -0.47404,4.4671 c 0,-0.58716 -0.54539,-0.69828 -1.075,-0.21898 -0.51209,0.46343 -0.67118,1.19324 -0.33369,1.53074 0.22927,0.22925 1.40869,-0.86899 1.40869,-1.31176 z m -1.60348,-3.54136 c -0.004,-0.65484 -0.17144,-1.54781 -0.37134,-1.98438 -0.36055,-0.78741 -0.3639,-0.78847 -0.42047,-0.13229 -0.0832,0.96549 0.0253,2.96499 0.19214,3.5407 0.23802,0.82119 0.60871,-0.0591 0.59967,-1.42403 z m 0.54515,-4.67552 c 0,-0.47374 -0.72995,-1.4099 -1.09934,-1.4099 -0.38085,0 -0.24626,0.85932 0.21431,1.36823 0.54559,0.60288 0.88503,0.61885 0.88503,0.0417 z m -8.34532,12.94376 c -0.53878,-1.2483 -0.74774,-3.02187 -0.47599,-4.04001 0.25064,-0.93901 0.23,-1.05323 -0.19026,-1.05323 -0.50234,0 -0.57984,0.23781 -1.03218,3.1671 -0.1454,0.94153 -0.17745,1.79465 -0.0712,1.89581 0.1646,0.15679 0.6452,0.28289 1.74278,0.45732 0.12471,0.0198 0.13681,-0.17234 0.0269,-0.42699 z m 1.97395,-0.5079 c 0.30473,-1.10368 -0.0169,-3.00288 -0.68088,-4.0206 -0.37975,-0.58206 -0.43893,-0.59526 -0.84523,-0.18847 -0.89123,0.89227 -0.17929,5.17998 0.86009,5.17998 0.23319,0 0.50892,-0.40195 0.66602,-0.97091 z m -33.31613,-0.86484 c 0,-0.26909 -1.98446,-1.33925 -2.48342,-1.33925 -0.26813,0 -0.427,0.22452 -0.427,0.60348 0,0.46999 0.24872,0.69311 1.12448,1.00879 1.04425,0.37641 1.78594,0.26302 1.78594,-0.27302 z m 34.45146,-1.26463 c -0.46007,-1.20868 -0.58576,-2.52675 -0.34144,-3.58035 0.2114,-0.91159 0.18361,-0.99219 -0.34209,-0.99219 -0.3147,0 -1.0463,0.32742 -1.62578,0.72761 l -1.05361,0.72761 0.72179,0.0832 c 0.89456,0.10306 1.72232,1.11723 1.95159,2.39108 0.1764,0.98008 0.60258,1.74632 0.83952,1.50939 0.0716,-0.0716 0.004,-0.46145 -0.14998,-0.8663 z m 2.11592,0.0577 c 0.62028,-2.18599 -1.12983,-6.11302 -1.79818,-4.03489 -0.54449,1.69298 0.26001,5.08163 1.16502,4.90724 0.22436,-0.0432 0.50929,-0.43579 0.63316,-0.87235 z m -1.72962,-5.95313 c 0.44646,0 0.89329,-0.87491 0.64883,-1.27046 -0.13552,-0.21926 -0.83804,0.1286 -2.29664,1.13728 -3.38034,2.3376 -3.56718,2.57075 -1.05486,1.31631 1.30321,-0.65073 2.51941,-1.18313 2.70267,-1.18313 z M 39.531694,69.983783 c -0.0925,-0.67516 -0.16826,-1.44814 -0.16826,-1.71775 0,-0.36153 -0.83237,-0.90746 -3.17093,-2.07975 -1.74401,-0.87423 -3.22177,-1.58954 -3.28391,-1.58954 -0.17027,0 -1.58422,3.69183 -1.45896,3.80936 0.0597,0.056 1.53734,0.60391 3.28359,1.21751 1.74625,0.6136 3.3536,1.21824 3.57188,1.34362 0.21828,0.12541 0.62142,0.23164 0.89586,0.23605 0.44206,0.007 0.47979,-0.13199 0.33073,-1.2195 z m 105.327456,0.39091 2.72481,-0.83666 -0.15692,-1.74303 c -0.22312,-2.47826 -0.15129,-2.38302 -1.55502,-2.0618 -1.4906,0.3411 -1.74367,0.14454 -1.92883,-1.49819 l -0.13543,-1.20151 1.22367,-0.30812 c 0.67302,-0.16946 1.22367,-0.41924 1.22367,-0.55507 0,-0.51735 -2.21483,-4.65533 -3.32287,-6.20813 -1.54672,-2.16757 -3.78646,-4.59459 -4.24005,-4.59459 -0.56909,0 -5.18241,2.04859 -5.63697,2.50316 -0.36445,0.36445 -0.29012,0.52333 0.7322,1.56498 1.77091,1.80443 2.12303,1.92441 3.98928,1.35936 1.83827,-0.55659 2.01231,-0.47918 3.23193,1.43731 1.10243,1.73235 1.01138,2.25325 -0.46615,2.66692 -0.66809,0.18705 -1.27322,0.49256 -1.34473,0.67892 -0.0715,0.18634 0.17718,1.22883 0.55264,2.31663 0.37545,1.08779 0.92643,3.03018 1.22437,4.31641 0.65257,2.81706 0.71129,3.00006 0.9627,3.00006 0.10829,0 1.42305,-0.37651 2.9217,-0.83665 z m 6.02616,-1.99199 c 2.24172,-0.67592 2.24944,-0.68468 2.24534,-2.5448 -0.005,-2.46927 -0.1697,-2.8688 -1.14081,-2.77487 -0.7856,0.076 -0.83539,0.0148 -1.55118,-1.90587 -0.40674,-1.09141 -0.74053,-2.13927 -0.74175,-2.3286 -0.001,-0.18932 0.41449,-0.51834 0.92381,-0.73115 0.5101,-0.21313 0.92604,-0.57667 0.92604,-0.80936 0,-1.60585 -4.56043,-7.26889 -6.16675,-7.65773 -0.77657,-0.188 -5.7395,1.10704 -5.7395,1.49768 0,0.11105 0.43393,0.65687 0.96427,1.21292 2.5565,2.68047 5.1245,6.75971 6.30594,10.01694 0.5554,1.53124 1.19646,4.97639 1.19646,6.42997 0,0.40394 0.1838,0.37713 2.77813,-0.40513 z m -5.38758,-13.25975 c -0.67167,-0.94329 -0.72055,-1.52251 -0.14703,-1.74258 0.91959,-0.35288 1.66999,-0.13816 2.35272,0.6732 0.81039,0.9631 0.59118,1.41736 -0.82017,1.69962 -0.70142,0.14029 -0.90173,0.0492 -1.38552,-0.63024 z m 2.07807,-0.0441 c 0.28638,-0.18106 0.31503,-0.32916 0.10442,-0.53976 -0.3807,-0.38071 -1.68971,-0.0482 -1.68971,0.42918 0,0.41896 0.98846,0.48791 1.58529,0.11058 z m 20.36154,7.93052 c -0.89076,-4.0835 -3.70253,-7.41076 -6.25972,-7.40733 -0.746,10e-4 -2.46395,0.87854 -2.45083,1.25189 0.004,0.11128 0.75397,0.53568 1.66678,0.94312 0.91282,0.40744 2.21868,1.28416 2.90192,1.94828 1.41715,1.37749 3.00475,4.34518 3.77449,7.05568 l 0.51324,1.80725 0.0858,-2.07184 c 0.0472,-1.1395 -0.0571,-2.72667 -0.23166,-3.52705 z m -136.147536,3.1417 c 0.62277,-1.53811 0.69475,-1.92064 0.39687,-2.1091 -0.59144,-0.37424 -0.8284,-0.14868 -1.29401,1.23174 -0.80809,2.39584 -0.85224,2.76311 -0.33166,2.7595 0.3312,-0.002 0.6905,-0.55265 1.2288,-1.88214 z m 115.058586,-1.19696 c 0.28533,-0.17632 0.2482,-0.82567 -0.058,-1.01491 -0.24808,-0.15334 -2.38736,0.30721 -2.38736,0.51394 0,0.71256 0.41178,0.96877 1.29171,0.80369 0.52427,-0.0984 1.04343,-0.23458 1.15367,-0.30272 z m -23.9097,-13.2226 c 0.79991,-0.15998 0.82682,-0.21054 0.82682,-1.55285 0,-1.8578 -0.6347,-5.42133 -1.62611,-9.12971 -1.35123,-5.0543 -1.20356,-4.83917 -3.87772,-5.64921 -5.11845,-1.55044 -9.2864,-2.07844 -13.64607,-1.72869 -3.45574,0.27723 -5.546056,0.82108 -6.078686,1.58152 -0.3531,0.50413 -0.44029,0.51655 -1.13681,0.16202 -2.28139,-1.16123 -6.60196,-1.53503 -11.21237,-0.97006 -2.61751,0.32076 -5.78478,1.15499 -6.21668,1.63743 -0.16583,0.18523 -0.82073,1.76554 -1.45534,3.51179 -0.63461,1.74625 -1.54055,4.06724 -2.0132,5.15775 -0.61314,1.41465 -0.76916,2.03009 -0.54454,2.14794 1.02577,0.5382 16.30476,2.47246 38.017946,4.81293 1.63533,0.17628 8.10799,0.19009 8.96276,0.0191 z m -10.81866,-2.86372 c -1.06273,-0.5784 -1.93796,-2.3779 -1.76905,-3.63723 0.54009,-4.02668 6.0062,-2.90929 6.0062,1.2278 0,1.02426 -0.13758,1.38346 -0.7734,2.01928 -0.87096,0.87098 -2.28718,1.03049 -3.46375,0.39015 z m -18.511736,-2.18605 c -1.84428,-0.94822 -2.61544,-3.11724 -1.72233,-4.84433 1.05676,-2.04355 4.11869,-1.72852 5.29422,0.54469 1.40286,2.71284 -1.0097,5.61696 -3.57189,4.29964 z m 4.92056,-12.12067 c 1.35508,-1.25585 6.449726,-2.16907 10.502136,-1.88253 2.59578,0.18355 6.67762,0.95713 9.21141,1.74574 0.91517,0.28483 1.70003,0.48179 1.74413,0.43769 0.20454,-0.20454 -0.90191,-2.62317 -1.29679,-2.83469 -0.72956,-0.3908 -3.80451,-0.96194 -7.88881,-1.46524 -2.80256,-0.34537 -5.58338,-0.4667 -10.31875,-0.45025 -7.140306,0.0248 -11.266256,0.48592 -16.777986,1.87507 l -2.88736,0.72772 -0.34949,1.01979 -0.34949,1.0198 0.72331,-0.18477 c 3.14675,-0.80379 4.7891,-1.00926 8.26394,-1.03389 3.98548,-0.0282 5.90893,0.2694 7.67292,1.18734 0.50932,0.26504 0.94967,0.48715 0.97855,0.49358 0.0289,0.006 0.37641,-0.28848 0.77228,-0.65536 z" />
  </g>
</svg>
