<?xml version="1.0" encoding="UTF-8" standalone="no"?>
<svg
   xmlns:dc="http://purl.org/dc/elements/1.1/"
   xmlns:cc="http://creativecommons.org/ns#"
   xmlns:rdf="http://www.w3.org/1999/02/22-rdf-syntax-ns#"
   xmlns:svg="http://www.w3.org/2000/svg"
   xmlns="http://www.w3.org/2000/svg"
   xmlns:sodipodi="http://sodipodi.sourceforge.net/DTD/sodipodi-0.dtd"
   xmlns:inkscape="http://www.inkscape.org/namespaces/inkscape"
   width="210mm"
   height="297mm"
   viewBox="0 0 210 297"
   version="1.1"
   id="svg967"
   inkscape:version="1.0.1 (3bc2e813f5, 2020-09-07)"
   sodipodi:docname="exterior.svg">
  <defs
     id="defs961" />
  <sodipodi:namedview
     id="base"
     pagecolor="#ffffff"
     bordercolor="#666666"
     borderopacity="1.0"
     inkscape:pageopacity="0.0"
     inkscape:pageshadow="2"
     inkscape:zoom="0.35"
     inkscape:cx="400"
     inkscape:cy="560"
     inkscape:document-units="mm"
     inkscape:current-layer="layer1"
     inkscape:document-rotation="0"
     showgrid="false"
     inkscape:window-width="1920"
     inkscape:window-height="1136"
     inkscape:window-x="0"
     inkscape:window-y="0"
     inkscape:window-maximized="1" />
  <metadata
     id="metadata964">
    <rdf:RDF>
      <cc:Work
         rdf:about="">
        <dc:format>image/svg+xml</dc:format>
        <dc:type
           rdf:resource="http://purl.org/dc/dcmitype/StillImage" />
        <dc:title></dc:title>
      </cc:Work>
    </rdf:RDF>
  </metadata>
  <g
     inkscape:label="Layer 1"
     inkscape:groupmode="layer"
     id="layer1">
    <path
       style="fill:#000000;stroke-width:0.264583"
       d="m 113.47059,104.12518 c -5.29809,-0.31493 -7.17797,-1.15082 -8.86145,-3.94023 l -0.58388,-0.967442 -6.059106,-0.0707 c -6.94829,-0.081 -15.11956,-0.682239 -20.01775,-1.472848 l -3.37532,-0.544801 -1.51948,0.573971 c -1.99447,0.753399 -3.85304,0.726398 -9.475073,-0.13766 -12.06276,-1.85393 -13.658,-2.435381 -15.99309,-5.829321 -0.63779,-0.92701 -1.12979,-1.249569 -3.21876,-2.110301 -1.35623,-0.55881 -2.733721,-1.18819 -3.06107,-1.3986 -0.70221,-0.451382 -3.379391,-5.826712 -4.508911,-9.053142 -3.19165,-9.116809 -2.04174,-15.9713 3.639311,-21.693658 3.63181,-3.658211 7.75977,-6.08266 13.23875,-7.775422 4.66379,-1.4409 6.50928,-1.716249 19.780113,-2.951199 3.96683,-0.36915 7.36201,-0.728581 7.54485,-0.798751 0.27141,-0.104151 2.982,-7.881839 5.11281,-14.67056 0.65601,-2.090059 1.35903,-2.607519 5.31893,-3.91508 7.76633,-2.564449 14.778456,-3.474439 23.101526,-2.997969 2.82339,0.16164 5.20909,0.20561 5.30155,0.0977 0.0925,-0.107881 0.44481,-0.910521 0.78298,-1.78365 1.01446,-2.619231 2.63212,-5.7011 3.08337,-5.87426 0.75993,-0.29162 5.42896,0.7067 9.48116,2.02722 3.80845,1.24109 4.24126,1.32114 10.71562,1.981949 9.2437,0.94346 10.5337,1.106641 16.13741,2.041281 l 4.89262,0.816039 2.91259,-0.707569 c 1.60192,-0.38916 3.86509,-0.87615 5.02926,-1.0822 2.15908,-0.38213 6.66521,-0.51411 7.73788,-0.22663 1.88426,0.50499 2.1795,9.98858 0.47778,15.34732 l -0.63432,1.99749 0.88617,1.16095 c 1.21669,1.59395 1.30551,2.0241 0.67366,3.262619 -0.30819,0.60412 -0.54222,1.575451 -0.54222,2.250541 0,1.055121 0.1075,1.26969 0.96297,1.92219 l 0.96296,0.73448 -0.16946,2.967009 c -0.41338,7.23787 -2.95869,13.522161 -7.13191,17.608462 l -1.34255,1.314588 0.0709,3.613642 c 0.11155,5.684099 -0.82564,9.037709 -3.24991,11.629459 -2.60983,2.79011 -4.85754,3.37499 -11.93113,3.104591 -5.75676,-0.220061 -6.99696,-0.448611 -8.7962,-1.620961 l -1.38787,-0.90432 -3.37463,1.417061 c -5.21596,2.190239 -6.79568,2.659859 -7.78607,2.314609 -0.4548,-0.158549 -0.91433,-0.288261 -1.02118,-0.288261 -0.10685,0 -0.28026,0.803672 -0.38534,1.78593 -0.77463,7.240781 -3.99025,11.633254 -9.25363,12.640304 -1.90352,0.36421 -9.61661,0.4764 -14.16487,0.20605 z"
       id="path646" />
  </g>
</svg>
