<?xml version="1.0" encoding="UTF-8" standalone="no"?>
<svg
   xmlns:dc="http://purl.org/dc/elements/1.1/"
   xmlns:cc="http://creativecommons.org/ns#"
   xmlns:rdf="http://www.w3.org/1999/02/22-rdf-syntax-ns#"
   xmlns:svg="http://www.w3.org/2000/svg"
   xmlns="http://www.w3.org/2000/svg"
   xmlns:sodipodi="http://sodipodi.sourceforge.net/DTD/sodipodi-0.dtd"
   xmlns:inkscape="http://www.inkscape.org/namespaces/inkscape"
   width="210mm"
   height="297mm"
   viewBox="0 0 210 297"
   version="1.1"
   id="svg2469"
   inkscape:version="1.0.1 (3bc2e813f5, 2020-09-07)"
   sodipodi:docname="dessus.svg">
  <defs
     id="defs2463" />
  <sodipodi:namedview
     id="base"
     pagecolor="#ffffff"
     bordercolor="#666666"
     borderopacity="1.0"
     inkscape:pageopacity="0.0"
     inkscape:pageshadow="2"
     inkscape:zoom="0.49497475"
     inkscape:cx="-63.871371"
     inkscape:cy="407.05154"
     inkscape:document-units="mm"
     inkscape:current-layer="layer1"
     inkscape:document-rotation="0"
     showgrid="false"
     inkscape:window-width="1920"
     inkscape:window-height="1136"
     inkscape:window-x="0"
     inkscape:window-y="0"
     inkscape:window-maximized="1" />
  <metadata
     id="metadata2466">
    <rdf:RDF>
      <cc:Work
         rdf:about="">
        <dc:format>image/svg+xml</dc:format>
        <dc:type
           rdf:resource="http://purl.org/dc/dcmitype/StillImage" />
        <dc:title></dc:title>
      </cc:Work>
    </rdf:RDF>
  </metadata>
  <g
     inkscape:label="Layer 1"
     inkscape:groupmode="layer"
     id="layer1">
    <path
       style="display:inline;fill:none;fill-opacity:1;stroke:#000000;stroke-width:3.42429;stroke-miterlimit:4;stroke-dasharray:none;stroke-dashoffset:0;stroke-opacity:1"
       d="m -92.38609,18.936607 h 58.18154 c 11.27167,0 20.34599,9.0743 20.34599,20.34598 V 244.20847 c 0,11.27167 -9.07432,20.346 -20.34599,20.346 h -211.11611 c -11.27168,0 -20.34599,-9.07433 -20.34599,-20.346 V 39.282587 c 0,-11.27168 9.07431,-20.34598 20.34599,-20.34598 h 68.63443"
       id="path946" />
    <path
       style="display:inline;fill:none;fill-rule:evenodd;stroke:#000000;stroke-width:3.42429;stroke-linecap:butt;stroke-linejoin:miter;stroke-miterlimit:4;stroke-dasharray:none;stroke-opacity:1"
       d="m -176.89595,18.483597 c -6.00718,-1.24456 -20.10846,-6.23488 -24.17864,-15.0267799 -8.14036,-17.5838101 -0.40398,-22.4118901 6.31172,-22.4118901 6.71571,0 57.95282,16.2971801 58.44115,28.5238601"
       id="path950"
       sodipodi:nodetypes="cssc" />
    <path
       style="display:inline;fill:none;fill-rule:evenodd;stroke:#000000;stroke-width:3.42429;stroke-linecap:butt;stroke-linejoin:miter;stroke-miterlimit:4;stroke-dasharray:none;stroke-opacity:1"
       d="m -92.66672,18.599787 c 5.23228,-1.78708 16.27333,-6.35107 20.34351,-15.1429699 8.14034,-17.5838301 0.78115,-25.7344601 -5.93457,-25.7344601 -6.7157,0 -57.81652,19.5321701 -58.06394,31.8464301"
       id="path954"
       sodipodi:nodetypes="cssc" />
    <rect
       ry="0"
       y="19.347786"
       x="-146.95059"
       height="243.35756"
       width="22.749575"
       id="rect854"
       style="display:inline;fill:#cccccc;fill-opacity:1;stroke:none;stroke-width:3.40773;stroke-miterlimit:4;stroke-dasharray:none;stroke-dashoffset:0;stroke-opacity:1" />
    <rect
       y="128.37135"
       x="-263.83237"
       height="21.929276"
       width="248.15895"
       id="rect856"
       style="display:inline;fill:#cccccc;fill-opacity:1;stroke:none;stroke-width:3.40892;stroke-miterlimit:4;stroke-dasharray:none;stroke-dashoffset:0;stroke-opacity:1" />
    <path
       style="display:inline;fill:none;fill-rule:evenodd;stroke:#000000;stroke-width:2.293;stroke-linecap:butt;stroke-linejoin:miter;stroke-miterlimit:4;stroke-dasharray:none;stroke-opacity:1"
       d="m -150.47275,8.7414071 c -4.56406,6.3379699 -37.65668,5.4569899 -43.10768,-6.31759 -5.451,-11.7746 -0.27052,-15.0076101 4.2265,-15.0076101 4.49702,0 43.38667,14.0679401 38.88118,21.3252001 z"
       id="path837-6"
       sodipodi:nodetypes="cssc" />
    <path
       sodipodi:nodetypes="cssc"
       id="path837-6-1"
       d="m -124.11695,9.2660571 c 4.56406,6.3379499 37.65668,5.4569699 43.10768,-6.3176 5.45101,-11.7746 0.27052,-15.0076001 -4.22652,-15.0076001 -4.49699,0 -43.38664,14.0679301 -38.88116,21.3252001 z"
       style="display:inline;fill:none;fill-rule:evenodd;stroke:#000000;stroke-width:2.293;stroke-linecap:butt;stroke-linejoin:miter;stroke-miterlimit:4;stroke-dasharray:none;stroke-opacity:1" />
    <rect
       style="display:inline;fill:none;fill-opacity:1;stroke:#000000;stroke-width:2.13006;stroke-miterlimit:4;stroke-dasharray:none;stroke-dashoffset:0;stroke-opacity:1"
       id="rect895"
       width="19.298227"
       height="19.298227"
       x="-235.94763"
       y="41.431343"
       ry="2.4911668" />
    <rect
       style="display:inline;fill:none;fill-opacity:1;stroke:#000000;stroke-width:2.11809;stroke-miterlimit:4;stroke-dasharray:none;stroke-dashoffset:0;stroke-opacity:1"
       id="rect895-9"
       width="19.190088"
       height="19.190088"
       x="-193.94511"
       y="36.612526"
       ry="2.4772072" />
    <rect
       style="display:inline;fill:none;fill-opacity:1;stroke:#000000;stroke-width:2.08771;stroke-miterlimit:4;stroke-dasharray:none;stroke-dashoffset:0;stroke-opacity:1"
       id="rect895-3"
       width="18.914614"
       height="18.914614"
       x="-201.66209"
       y="67.513588"
       ry="2.4416471" />
    <rect
       style="display:inline;fill:none;fill-opacity:1;stroke:#000000;stroke-width:2.13632;stroke-miterlimit:4;stroke-dasharray:none;stroke-dashoffset:0;stroke-opacity:1"
       id="rect895-6"
       width="19.355143"
       height="19.355143"
       x="-237.45941"
       y="70.66758"
       ry="2.4985139" />
    <rect
       style="display:inline;fill:none;fill-opacity:1;stroke:#000000;stroke-width:1.98366;stroke-miterlimit:4;stroke-dasharray:none;stroke-dashoffset:0;stroke-opacity:1"
       id="rect895-1"
       width="17.972082"
       height="17.972082"
       x="-242.95102"
       y="103.2233"
       ry="2.3199773" />
    <rect
       style="display:inline;fill:none;fill-opacity:1;stroke:#000000;stroke-width:2.37228;stroke-miterlimit:4;stroke-dasharray:none;stroke-dashoffset:0;stroke-opacity:1"
       id="rect895-29"
       width="21.492918"
       height="21.492918"
       x="-190.01741"
       y="97.051254"
       ry="2.7744749" />
    <rect
       style="display:inline;fill:none;fill-opacity:1;stroke:#000000;stroke-width:2.22754;stroke-miterlimit:4;stroke-dasharray:none;stroke-dashoffset:0;stroke-opacity:1"
       id="rect895-94"
       width="20.181568"
       height="20.181568"
       x="-101.61648"
       y="39.212624"
       ry="2.6051955" />
    <rect
       style="display:inline;fill:none;fill-opacity:1;stroke:#000000;stroke-width:2.39514;stroke-miterlimit:4;stroke-dasharray:none;stroke-dashoffset:0;stroke-opacity:1"
       id="rect895-9-7"
       width="21.700094"
       height="21.700094"
       x="-59.524193"
       y="34.483559"
       ry="2.8012187" />
    <rect
       style="display:inline;fill:none;fill-opacity:1;stroke:#000000;stroke-width:2.10465;stroke-miterlimit:4;stroke-dasharray:none;stroke-dashoffset:0;stroke-opacity:1"
       id="rect895-3-8"
       width="19.068287"
       height="19.068287"
       x="-82.440224"
       y="64.411522"
       ry="2.4614847" />
    <rect
       style="display:inline;fill:none;fill-opacity:1;stroke:#000000;stroke-width:2.02237;stroke-miterlimit:4;stroke-dasharray:none;stroke-dashoffset:0;stroke-opacity:1"
       id="rect895-6-4"
       width="18.322687"
       height="18.322687"
       x="-77.457909"
       y="92.713684"
       ry="2.3652365" />
    <rect
       style="display:inline;fill:none;fill-opacity:1;stroke:#000000;stroke-width:2.10692;stroke-miterlimit:4;stroke-dasharray:none;stroke-dashoffset:0;stroke-opacity:1"
       id="rect895-1-5"
       width="19.088778"
       height="19.088778"
       x="-108.607"
       y="93.532257"
       ry="2.4641297" />
    <rect
       style="display:inline;fill:none;fill-opacity:1;stroke:#000000;stroke-width:2.40947;stroke-miterlimit:4;stroke-dasharray:none;stroke-dashoffset:0;stroke-opacity:1"
       id="rect895-29-0"
       width="21.829863"
       height="21.829863"
       x="-46.279652"
       y="80.567589"
       ry="2.8179703" />
    <rect
       style="display:inline;fill:none;fill-opacity:1;stroke:#000000;stroke-width:2.79908;stroke-miterlimit:4;stroke-dasharray:none;stroke-dashoffset:0;stroke-opacity:1"
       id="rect895-36"
       width="25.359806"
       height="25.359806"
       x="-242.11414"
       y="160.85529"
       ry="3.2736428" />
    <rect
       style="display:inline;fill:none;fill-opacity:1;stroke:#000000;stroke-width:2.54794;stroke-miterlimit:4;stroke-dasharray:none;stroke-dashoffset:0;stroke-opacity:1"
       id="rect895-9-1"
       width="23.084297"
       height="23.084297"
       x="-192.69923"
       y="170.70268"
       ry="2.9799025" />
    <rect
       style="display:inline;fill:none;fill-opacity:1;stroke:#000000;stroke-width:2.30808;stroke-miterlimit:4;stroke-dasharray:none;stroke-dashoffset:0;stroke-opacity:1"
       id="rect895-3-0"
       width="20.911232"
       height="20.911232"
       x="-211.84229"
       y="205.16582"
       ry="2.6993864" />
    <rect
       style="display:inline;fill:none;fill-opacity:1;stroke:#000000;stroke-width:2.3621;stroke-miterlimit:4;stroke-dasharray:none;stroke-dashoffset:0;stroke-opacity:1"
       id="rect895-6-6"
       width="21.400713"
       height="21.400713"
       x="-244.72095"
       y="199.21814"
       ry="2.7625723" />
    <rect
       style="display:inline;fill:none;fill-opacity:1;stroke:#000000;stroke-width:2.0318;stroke-miterlimit:4;stroke-dasharray:none;stroke-dashoffset:0;stroke-opacity:1"
       id="rect895-1-3"
       width="18.40806"
       height="18.40806"
       x="-241.89601"
       y="230.3933"
       ry="2.3762572" />
    <rect
       style="display:inline;fill:none;fill-opacity:1;stroke:#000000;stroke-width:2.33207;stroke-miterlimit:4;stroke-dasharray:none;stroke-dashoffset:0;stroke-opacity:1"
       id="rect895-29-2"
       width="21.128656"
       height="21.128656"
       x="-182.04083"
       y="224.73071"
       ry="2.7274528" />
    <rect
       style="display:inline;fill:none;fill-opacity:1;stroke:#000000;stroke-width:2.08633;stroke-miterlimit:4;stroke-dasharray:none;stroke-dashoffset:0;stroke-opacity:1"
       id="rect895-0"
       width="18.902092"
       height="18.902092"
       x="-107.82294"
       y="160.82411"
       ry="2.4400306" />
    <rect
       style="display:inline;fill:none;fill-opacity:1;stroke:#000000;stroke-width:2.27617;stroke-miterlimit:4;stroke-dasharray:none;stroke-dashoffset:0;stroke-opacity:1"
       id="rect895-9-6"
       width="20.622103"
       height="20.622103"
       x="-54.584007"
       y="161.84204"
       ry="2.6620629" />
    <rect
       style="display:inline;fill:none;fill-opacity:1;stroke:#000000;stroke-width:1.86971;stroke-miterlimit:4;stroke-dasharray:none;stroke-dashoffset:0;stroke-opacity:1"
       id="rect895-3-1"
       width="16.939621"
       height="16.939621"
       x="-78.073708"
       y="190.99406"
       ry="2.1866996" />
    <rect
       style="display:inline;fill:none;fill-opacity:1;stroke:#000000;stroke-width:2.02335;stroke-miterlimit:4;stroke-dasharray:none;stroke-dashoffset:0;stroke-opacity:1"
       id="rect895-6-5"
       width="18.331791"
       height="18.331791"
       x="-104.87849"
       y="204.94936"
       ry="2.3664119" />
    <rect
       style="display:inline;fill:none;fill-opacity:1;stroke:#000000;stroke-width:2.13532;stroke-miterlimit:4;stroke-dasharray:none;stroke-dashoffset:0;stroke-opacity:1"
       id="rect895-1-54"
       width="19.346039"
       height="19.346039"
       x="-108.00434"
       y="234.42821"
       ry="2.497339" />
    <rect
       style="display:inline;fill:none;fill-opacity:1;stroke:#000000;stroke-width:2.1416;stroke-miterlimit:4;stroke-dasharray:none;stroke-dashoffset:0;stroke-opacity:1"
       id="rect895-29-7"
       width="19.402954"
       height="19.402954"
       x="-42.158314"
       y="192.85042"
       ry="2.5046861" />
    <rect
       style="display:inline;fill:none;fill-opacity:1;stroke:#000000;stroke-width:3.83199;stroke-miterlimit:4;stroke-dasharray:none;stroke-dashoffset:0;stroke-opacity:1"
       id="rect895-3-1-6"
       width="34.717953"
       height="34.717953"
       x="-68.613426"
       y="217.95596"
       ry="4.481667" />
    <g
       aria-label="1"
       id="text1933"
       style="font-style:normal;font-variant:normal;font-weight:normal;font-stretch:normal;font-size:7.45865px;line-height:125%;font-family:Arial;-inkscape-font-specification:Arial;letter-spacing:0px;word-spacing:0px;display:inline;fill:#cccccc;fill-opacity:1;stroke:none;stroke-width:0.497243px;stroke-linecap:butt;stroke-linejoin:miter;stroke-opacity:1"
       transform="translate(-281.86472,-76.045643)">
      <path
         d="m 54.149096,130.81529 h -0.655545 v -4.17728 q -0.236725,0.2258 -0.622769,0.4516 -0.382401,0.2258 -0.688322,0.3387 v -0.6337 q 0.549929,-0.25857 0.961466,-0.62641 0.411537,-0.36783 0.582707,-0.71381 h 0.422463 z"
         style="fill:#cccccc;stroke-width:0.497243px"
         id="path2250" />
    </g>
    <g
       aria-label="2"
       id="text1937"
       style="font-style:normal;font-variant:normal;font-weight:normal;font-stretch:normal;font-size:7.45865px;line-height:125%;font-family:Arial;-inkscape-font-specification:Arial;letter-spacing:0px;word-spacing:0px;display:inline;fill:#cccccc;fill-opacity:1;stroke:none;stroke-width:0.497243px;stroke-linecap:butt;stroke-linejoin:miter;stroke-opacity:1"
       transform="translate(-281.86472,-76.045643)">
      <path
         d="m 102.05613,260.10426 v 0.63005 h -3.529023 q -0.0073,-0.23672 0.07648,-0.45524 0.134751,-0.36055 0.429746,-0.71017 0.298638,-0.34962 0.859493,-0.80851 0.870414,-0.71381 1.176344,-1.12899 0.30592,-0.41882 0.30592,-0.7903 0,-0.38968 -0.28043,-0.65554 -0.27679,-0.2695 -0.72474,-0.2695 -0.473452,0 -0.757521,0.28406 -0.28407,0.28407 -0.287712,0.78666 l -0.673755,-0.0692 q 0.0692,-0.75387 0.520794,-1.1472 0.451598,-0.39697 1.212764,-0.39697 0.76844,0 1.2164,0.4261 0.44795,0.42611 0.44795,1.05616 0,0.32049 -0.13111,0.63005 -0.13111,0.30957 -0.43703,0.65191 -0.30228,0.34234 -1.00881,0.93961 -0.589989,0.4953 -0.757518,0.67376 -0.167528,0.17481 -0.276786,0.35326 z"
         style="fill:#cccccc;stroke-width:0.497243px"
         id="path2253" />
    </g>
    <g
       aria-label="3"
       id="text1941"
       style="font-style:normal;font-variant:normal;font-weight:normal;font-stretch:normal;font-size:7.45865px;line-height:125%;font-family:Arial;-inkscape-font-specification:Arial;letter-spacing:0px;word-spacing:0px;display:inline;fill:#cccccc;fill-opacity:1;stroke:none;stroke-width:0.497243px;stroke-linecap:butt;stroke-linejoin:miter;stroke-opacity:1"
       transform="translate(-281.86472,-76.045643)">
      <path
         d="m 49.816791,252.15425 0.655545,-0.0874 q 0.1129,0.55721 0.382402,0.80486 0.273144,0.24401 0.662829,0.24401 0.462524,0 0.779371,-0.32049 0.320489,-0.32049 0.320489,-0.79394 0,-0.4516 -0.294996,-0.74295 -0.294995,-0.295 -0.750235,-0.295 -0.185738,0 -0.462524,0.0728 l 0.07284,-0.57542 q 0.06555,0.007 0.105616,0.007 0.418821,0 0.753877,-0.21851 0.335057,-0.21852 0.335057,-0.67376 0,-0.36055 -0.244009,-0.59727 -0.244008,-0.23673 -0.630052,-0.23673 -0.382401,0 -0.637335,0.24037 -0.254935,0.24037 -0.327773,0.7211 l -0.655546,-0.11654 q 0.120184,-0.65919 0.546288,-1.01974 0.426105,-0.36419 1.059799,-0.36419 0.43703,0 0.804864,0.18938 0.367834,0.18574 0.560855,0.50987 0.196664,0.32413 0.196664,0.68832 0,0.34598 -0.185738,0.63005 -0.185738,0.28407 -0.54993,0.4516 0.47345,0.10926 0.735668,0.45524 0.262218,0.34234 0.262218,0.85949 0,0.69925 -0.509869,1.18727 -0.509868,0.48437 -1.289239,0.48437 -0.70289,0 -1.169056,-0.41882 -0.462524,-0.41882 -0.528078,-1.08529 z"
         style="fill:#cccccc;stroke-width:0.497243px"
         id="path2256" />
    </g>
    <g
       aria-label="4"
       id="text1945"
       style="font-style:normal;font-variant:normal;font-weight:normal;font-stretch:normal;font-size:7.45865px;line-height:125%;font-family:Arial;-inkscape-font-specification:Arial;letter-spacing:0px;word-spacing:0px;display:inline;fill:#cccccc;fill-opacity:1;stroke:none;stroke-width:0.497243px;stroke-linecap:butt;stroke-linejoin:miter;stroke-opacity:1"
       transform="translate(-281.86472,-76.045643)">
      <path
         d="m 87.627816,156.66719 v -1.27831 h -2.316261 v -0.60092 l 2.436444,-3.45982 h 0.535362 v 3.45982 h 0.7211 v 0.60092 h -0.7211 v 1.27831 z m 0,-1.87923 v -2.40731 l -1.671641,2.40731 z"
         style="fill:#cccccc;stroke-width:0.497243px"
         id="path2259" />
    </g>
    <g
       aria-label="5"
       id="text1949"
       style="font-style:normal;font-variant:normal;font-weight:normal;font-stretch:normal;font-size:7.45865px;line-height:125%;font-family:Arial;-inkscape-font-specification:Arial;letter-spacing:0px;word-spacing:0px;display:inline;fill:#cccccc;fill-opacity:1;stroke:none;stroke-width:0.497243px;stroke-linecap:butt;stroke-linejoin:miter;stroke-opacity:1"
       transform="translate(-281.86472,-76.045643)">
      <path
         d="m 206.39233,151.4328 0.68832,-0.0583 q 0.0765,0.50259 0.35327,0.75752 0.28042,0.25129 0.67375,0.25129 0.47345,0 0.80122,-0.35691 0.32778,-0.3569 0.32778,-0.94689 0,-0.56086 -0.31685,-0.88499 -0.31321,-0.32413 -0.82308,-0.32413 -0.31684,0 -0.57178,0.14568 -0.25493,0.14203 -0.40061,0.37147 l -0.61548,-0.0801 0.51715,-2.74237 h 2.65496 v 0.62641 h -2.13052 l -0.28771,1.43492 q 0.48073,-0.33506 1.00881,-0.33506 0.69925,0 1.17998,0.48438 0.48073,0.48437 0.48073,1.24554 0,0.72474 -0.42246,1.25282 -0.51351,0.64826 -1.40214,0.64826 -0.72838,0 -1.19091,-0.4079 -0.45888,-0.40789 -0.52443,-1.08165 z"
         style="fill:#cccccc;stroke-width:0.497243px"
         id="path2262" />
    </g>
    <g
       aria-label="6"
       id="text1953"
       style="font-style:normal;font-variant:normal;font-weight:normal;font-stretch:normal;font-size:7.45865px;line-height:125%;font-family:Arial;-inkscape-font-specification:Arial;letter-spacing:0px;word-spacing:0px;display:inline;fill:#cccccc;fill-opacity:1;stroke:none;stroke-width:0.497243px;stroke-linecap:butt;stroke-linejoin:miter;stroke-opacity:1"
       transform="translate(-281.86472,-76.045643)">
      <path
         d="m 214.28776,274.78138 -0.6519,0.051 q -0.0874,-0.38604 -0.24765,-0.56085 -0.26586,-0.28043 -0.65555,-0.28043 -0.3132,0 -0.54993,0.17481 -0.30956,0.2258 -0.48802,0.65919 -0.17845,0.43339 -0.18573,1.23461 0.23672,-0.36055 0.57906,-0.53536 0.34234,-0.17482 0.71746,-0.17482 0.65554,0 1.11443,0.48438 0.46252,0.48073 0.46252,1.24553 0,0.50259 -0.21851,0.93598 -0.21488,0.42974 -0.59364,0.65919 -0.37876,0.22944 -0.85949,0.22944 -0.81943,0 -1.33658,-0.60092 -0.51716,-0.60456 -0.51716,-1.98849 0,-1.54781 0.57178,-2.2507 0.49895,-0.61185 1.34387,-0.61185 0.63005,0 1.03067,0.35327 0.40425,0.35327 0.48437,0.97603 z m -2.67681,2.3017 q 0,0.3387 0.14203,0.64826 0.14568,0.30956 0.40426,0.47345 0.25857,0.16024 0.54264,0.16024 0.41518,0 0.71382,-0.33505 0.29864,-0.33506 0.29864,-0.91048 0,-0.55358 -0.295,-0.87042 -0.29499,-0.32049 -0.74295,-0.32049 -0.44431,0 -0.75388,0.32049 -0.30956,0.31684 -0.30956,0.834 z"
         style="fill:#cccccc;stroke-width:0.497243px"
         id="path2265" />
    </g>
    <g
       aria-label="7"
       id="text1957"
       style="font-style:normal;font-variant:normal;font-weight:normal;font-stretch:normal;font-size:7.45865px;line-height:125%;font-family:Arial;-inkscape-font-specification:Arial;letter-spacing:0px;word-spacing:0px;display:inline;fill:#cccccc;fill-opacity:1;stroke:none;stroke-width:0.497243px;stroke-linecap:butt;stroke-linejoin:miter;stroke-opacity:1"
       transform="translate(-281.86472,-76.045643)">
      <path
         d="m 182.33862,317.57147 v -0.63005 h 3.45618 v 0.50987 q -0.50987,0.54264 -1.01245,1.44219 -0.49895,0.89956 -0.77209,1.8501 -0.19667,0.67011 -0.25129,1.46769 h -0.67376 q 0.0109,-0.63005 0.24765,-1.52232 0.23673,-0.89227 0.6774,-1.71898 0.44431,-0.83036 0.94326,-1.3985 z"
         style="fill:#cccccc;stroke-width:0.497243px"
         id="path2268" />
    </g>
    <g
       aria-label="8"
       id="text1961"
       style="font-style:normal;font-variant:normal;font-weight:normal;font-stretch:normal;font-size:7.45865px;line-height:125%;font-family:Arial;-inkscape-font-specification:Arial;letter-spacing:0px;word-spacing:0px;display:inline;fill:#cccccc;fill-opacity:1;stroke:none;stroke-width:0.497243px;stroke-linecap:butt;stroke-linejoin:miter;stroke-opacity:1"
       transform="translate(-281.86472,-76.045643)">
      <path
         d="m 78.584877,290.39596 q -0.407895,-0.14931 -0.604558,-0.4261 -0.196664,-0.27679 -0.196664,-0.66283 0,-0.58271 0.418821,-0.97968 0.41882,-0.39696 1.114427,-0.39696 0.699248,0 1.125353,0.40789 0.426104,0.40425 0.426104,0.98696 0,0.37148 -0.196663,0.64826 -0.193022,0.27315 -0.589991,0.42246 0.491659,0.16025 0.746593,0.51716 0.258576,0.35691 0.258576,0.85221 0,0.68468 -0.484375,1.15084 -0.484375,0.46617 -1.274671,0.46617 -0.790297,0 -1.274672,-0.46617 -0.484375,-0.4698 -0.484375,-1.16905 0,-0.5208 0.262218,-0.87042 0.26586,-0.35327 0.753877,-0.48074 z m -0.131109,-1.11078 q 0,0.37876 0.244009,0.61913 0.244008,0.24036 0.633693,0.24036 0.37876,0 0.619127,-0.23672 0.244008,-0.24037 0.244008,-0.58635 0,-0.36055 -0.251292,-0.60456 -0.247651,-0.24765 -0.619126,-0.24765 -0.375118,0 -0.622769,0.24037 -0.24765,0.24036 -0.24765,0.57542 z m -0.211231,2.46558 q 0,0.28043 0.131109,0.54264 0.134751,0.26222 0.396969,0.4079 0.262218,0.14203 0.564497,0.14203 0.469808,0 0.775729,-0.30228 0.305921,-0.30227 0.305921,-0.76844 0,-0.47345 -0.316847,-0.78301 -0.313205,-0.30957 -0.786654,-0.30957 -0.462524,0 -0.768445,0.30593 -0.302279,0.30592 -0.302279,0.7648 z"
         style="fill:#cccccc;stroke-width:0.497243px"
         id="path2271" />
    </g>
    <g
       aria-label="9"
       id="text1965"
       style="font-style:normal;font-variant:normal;font-weight:normal;font-stretch:normal;font-size:7.45865px;line-height:125%;font-family:Arial;-inkscape-font-specification:Arial;letter-spacing:0px;word-spacing:0px;display:inline;fill:#cccccc;fill-opacity:1;stroke:none;stroke-width:0.497243px;stroke-linecap:butt;stroke-linejoin:miter;stroke-opacity:1"
       transform="translate(-281.86472,-76.045643)">
      <path
         d="m 181.85397,246.25562 0.63005,-0.0583 q 0.0801,0.44432 0.30592,0.64462 0.2258,0.20031 0.57907,0.20031 0.30228,0 0.52808,-0.13839 0.22944,-0.1384 0.37511,-0.36784 0.14568,-0.23308 0.24401,-0.62641 0.0983,-0.39333 0.0983,-0.80122 0,-0.0437 -0.004,-0.13111 -0.19666,0.31321 -0.539,0.50987 -0.3387,0.19302 -0.73567,0.19302 -0.66283,0 -1.12171,-0.48073 -0.45888,-0.48074 -0.45888,-1.26739 0,-0.81215 0.47709,-1.30745 0.48073,-0.4953 1.20183,-0.4953 0.5208,0 0.95054,0.28043 0.43339,0.28043 0.65555,0.80122 0.2258,0.51715 0.2258,1.50047 0,1.02338 -0.22216,1.63158 -0.22216,0.60456 -0.66283,0.92141 -0.43703,0.31684 -1.02702,0.31684 -0.62641,0 -1.02338,-0.34598 -0.39697,-0.34962 -0.47709,-0.97968 z m 2.68409,-2.35632 q 0,-0.5645 -0.30227,-0.89591 -0.29864,-0.33141 -0.7211,-0.33141 -0.43703,0 -0.76117,0.3569 -0.32413,0.35691 -0.32413,0.92505 0,0.50987 0.30592,0.83036 0.30957,0.31685 0.76117,0.31685 0.45524,0 0.74659,-0.31685 0.29499,-0.32049 0.29499,-0.88499 z"
         style="fill:#cccccc;stroke-width:0.497243px"
         id="path2274" />
    </g>
    <g
       aria-label="10"
       id="text1969"
       style="font-style:normal;font-variant:normal;font-weight:normal;font-stretch:normal;font-size:7.45865px;line-height:125%;font-family:Arial;-inkscape-font-specification:Arial;letter-spacing:0px;word-spacing:0px;display:inline;fill:#cccccc;fill-opacity:1;stroke:none;stroke-width:0.497243px;stroke-linecap:butt;stroke-linejoin:miter;stroke-opacity:1"
       transform="translate(-281.86472,-76.045643)">
      <path
         d="m 244.46015,170.51134 h -0.65555 v -4.17728 q -0.23672,0.2258 -0.62276,0.45159 -0.3824,0.2258 -0.68833,0.3387 v -0.63369 q 0.54993,-0.25858 0.96147,-0.62641 0.41154,-0.36784 0.58271,-0.71382 h 0.42246 z"
         style="fill:#cccccc;stroke-width:0.497243px"
         id="path2277" />
      <path
         d="m 246.13907,167.87823 q 0,-0.9469 0.19303,-1.52232 0.19666,-0.57907 0.57906,-0.89227 0.38604,-0.31321 0.96875,-0.31321 0.42975,0 0.75388,0.17481 0.32413,0.17117 0.53536,0.49895 0.21123,0.32413 0.33142,0.79394 0.12018,0.46616 0.12018,1.2601 0,0.93961 -0.19302,1.51868 -0.19302,0.57542 -0.57907,0.89227 -0.3824,0.31321 -0.96875,0.31321 -0.77208,0 -1.21276,-0.55358 -0.52808,-0.66647 -0.52808,-2.17058 z m 0.67376,0 q 0,1.31473 0.30592,1.75176 0.30956,0.43339 0.76116,0.43339 0.4516,0 0.75752,-0.43703 0.30956,-0.43703 0.30956,-1.74812 0,-1.31837 -0.30956,-1.75176 -0.30592,-0.43339 -0.7648,-0.43339 -0.4516,0 -0.7211,0.3824 -0.3387,0.48802 -0.3387,1.80275 z"
         style="fill:#cccccc;stroke-width:0.497243px"
         id="path2279" />
    </g>
    <g
       aria-label="11"
       id="text1973"
       style="font-style:normal;font-variant:normal;font-weight:normal;font-stretch:normal;font-size:7.45865px;line-height:125%;font-family:Arial;-inkscape-font-specification:Arial;letter-spacing:0px;word-spacing:0px;display:inline;fill:#cccccc;fill-opacity:1;stroke:none;stroke-width:0.497243px;stroke-linecap:butt;stroke-linejoin:miter;stroke-opacity:1"
       transform="translate(-281.86472,-76.045643)">
      <path
         d="m 52.39918,159.95055 h -0.655546 v -4.17728 q -0.236724,0.22579 -0.622768,0.45159 -0.382401,0.2258 -0.688322,0.3387 v -0.63369 q 0.549929,-0.25858 0.961466,-0.62641 0.411537,-0.36784 0.582707,-0.71382 h 0.422463 z"
         style="fill:#cccccc;stroke-width:0.497243px"
         id="path2282" />
      <path
         d="m 55.993754,159.95055 h -0.655546 v -4.17728 q -0.236724,0.22579 -0.622768,0.45159 -0.382401,0.2258 -0.688322,0.3387 v -0.63369 q 0.549929,-0.25858 0.961466,-0.62641 0.411537,-0.36784 0.582707,-0.71382 h 0.422463 z"
         style="fill:#cccccc;stroke-width:0.497243px"
         id="path2284" />
    </g>
    <g
       aria-label="12"
       id="text1977"
       style="font-style:normal;font-variant:normal;font-weight:normal;font-stretch:normal;font-size:7.45865px;line-height:125%;font-family:Arial;-inkscape-font-specification:Arial;letter-spacing:0px;word-spacing:0px;display:inline;fill:#cccccc;fill-opacity:1;stroke:none;stroke-width:0.497243px;stroke-linecap:butt;stroke-linejoin:miter;stroke-opacity:1"
       transform="translate(-281.86472,-76.045643)">
      <path
         d="m 43.791827,287.03067 h -0.655546 v -4.17728 q -0.236725,0.2258 -0.622768,0.4516 -0.382401,0.2258 -0.688323,0.3387 v -0.6337 q 0.54993,-0.25857 0.961467,-0.62641 0.411537,-0.36783 0.582707,-0.71381 h 0.422463 z"
         style="fill:#cccccc;stroke-width:0.497243px"
         id="path2287" />
      <path
         d="m 48.916007,286.40062 v 0.63005 h -3.52902 q -0.0073,-0.23672 0.07648,-0.45524 0.134751,-0.36055 0.429747,-0.71017 0.298637,-0.34963 0.859493,-0.80851 0.870418,-0.71382 1.17634,-1.12899 0.305921,-0.41883 0.305921,-0.7903 0,-0.38969 -0.280428,-0.65555 -0.276786,-0.2695 -0.724742,-0.2695 -0.473449,0 -0.757519,0.28407 -0.28407,0.28407 -0.287712,0.78666 l -0.673755,-0.0692 q 0.0692,-0.75388 0.520795,-1.14721 0.451598,-0.39696 1.212759,-0.39696 0.768445,0 1.216401,0.4261 0.447956,0.4261 0.447956,1.05616 0,0.32049 -0.131109,0.63005 -0.131109,0.30956 -0.437031,0.6519 -0.302279,0.34234 -1.008811,0.93962 -0.589991,0.4953 -0.757519,0.67375 -0.167529,0.17481 -0.276786,0.35327 z"
         style="fill:#cccccc;stroke-width:0.497243px"
         id="path2289" />
    </g>
    <g
       aria-label="13"
       id="text1981"
       style="font-style:normal;font-variant:normal;font-weight:normal;font-stretch:normal;font-size:7.45865px;line-height:125%;font-family:Arial;-inkscape-font-specification:Arial;letter-spacing:0px;word-spacing:0px;display:inline;fill:#cccccc;fill-opacity:1;stroke:none;stroke-width:0.497243px;stroke-linecap:butt;stroke-linejoin:miter;stroke-opacity:1"
       transform="translate(-281.86472,-76.045643)">
      <path
         d="m 230.99517,122.49191 h -0.65555 v -4.17728 q -0.23672,0.2258 -0.62276,0.4516 -0.38241,0.2258 -0.68833,0.3387 v -0.6337 q 0.54993,-0.25857 0.96147,-0.62641 0.41154,-0.36783 0.58271,-0.71381 h 0.42246 z"
         style="fill:#cccccc;stroke-width:0.497243px"
         id="path2292" />
      <path
         d="m 232.67774,121.08249 0.65554,-0.0874 q 0.1129,0.55722 0.3824,0.80487 0.27315,0.24401 0.66283,0.24401 0.46253,0 0.77937,-0.32049 0.32049,-0.32049 0.32049,-0.79394 0,-0.4516 -0.29499,-0.74295 -0.295,-0.295 -0.75024,-0.295 -0.18574,0 -0.46252,0.0728 l 0.0728,-0.57542 q 0.0656,0.007 0.10561,0.007 0.41882,0 0.75388,-0.21851 0.33505,-0.21852 0.33505,-0.67376 0,-0.36055 -0.244,-0.59727 -0.24401,-0.23673 -0.63006,-0.23673 -0.3824,0 -0.63733,0.24037 -0.25494,0.24037 -0.32777,0.7211 l -0.65555,-0.11654 q 0.12018,-0.65919 0.54629,-1.01974 0.4261,-0.36419 1.0598,-0.36419 0.43703,0 0.80486,0.18938 0.36783,0.18574 0.56086,0.50987 0.19666,0.32413 0.19666,0.68832 0,0.34598 -0.18574,0.63005 -0.18574,0.28407 -0.54993,0.4516 0.47345,0.10926 0.73567,0.45524 0.26222,0.34234 0.26222,0.85949 0,0.69925 -0.50987,1.18727 -0.50987,0.48437 -1.28924,0.48437 -0.70289,0 -1.16906,-0.41882 -0.46252,-0.41882 -0.52807,-1.08529 z"
         style="fill:#cccccc;stroke-width:0.497243px"
         id="path2294" />
    </g>
    <g
       aria-label="14"
       id="text1985"
       style="font-style:normal;font-variant:normal;font-weight:normal;font-stretch:normal;font-size:7.45865px;line-height:125%;font-family:Arial;-inkscape-font-specification:Arial;letter-spacing:0px;word-spacing:0px;display:inline;fill:#cccccc;fill-opacity:1;stroke:none;stroke-width:0.497243px;stroke-linecap:butt;stroke-linejoin:miter;stroke-opacity:1"
       transform="translate(-281.86472,-76.045643)">
      <path
         d="m 246.43471,280.70087 h -0.65554 v -4.17728 q -0.23673,0.22579 -0.62277,0.45159 -0.3824,0.2258 -0.68832,0.3387 v -0.63369 q 0.54993,-0.25858 0.96146,-0.62641 0.41154,-0.36784 0.58271,-0.71382 h 0.42246 z"
         style="fill:#cccccc;stroke-width:0.497243px"
         id="path2297" />
      <path
         d="m 250.21503,280.70087 v -1.27832 h -2.31626 v -0.60091 l 2.43644,-3.45983 h 0.53536 v 3.45983 h 0.7211 v 0.60091 h -0.7211 v 1.27832 z m 0,-1.87923 v -2.40731 l -1.67165,2.40731 z"
         style="fill:#cccccc;stroke-width:0.497243px"
         id="path2299" />
    </g>
    <g
       aria-label="15"
       id="text1989"
       style="font-style:normal;font-variant:normal;font-weight:normal;font-stretch:normal;font-size:7.45865px;line-height:125%;font-family:Arial;-inkscape-font-specification:Arial;letter-spacing:0px;word-spacing:0px;display:inline;fill:#cccccc;fill-opacity:1;stroke:none;stroke-width:0.497243px;stroke-linecap:butt;stroke-linejoin:miter;stroke-opacity:1"
       transform="translate(-281.86472,-76.045643)">
      <path
         d="m 44.544279,191.2253 h -0.655545 v -4.17729 q -0.236725,0.2258 -0.622768,0.4516 -0.382402,0.2258 -0.688323,0.3387 v -0.63369 q 0.54993,-0.25858 0.961467,-0.62641 0.411537,-0.36784 0.582707,-0.71382 h 0.422462 z"
         style="fill:#cccccc;stroke-width:0.497243px"
         id="path2302" />
      <path
         d="m 46.223204,189.8268 0.688323,-0.0583 q 0.07648,0.50258 0.353266,0.75752 0.280428,0.25129 0.673755,0.25129 0.473449,0 0.801222,-0.35691 0.327773,-0.35691 0.327773,-0.9469 0,-0.56085 -0.316847,-0.88498 -0.313205,-0.32413 -0.823074,-0.32413 -0.316847,0 -0.571781,0.14567 -0.254934,0.14204 -0.400611,0.37148 l -0.615485,-0.0801 0.517153,-2.74237 h 2.654959 v 0.62641 h -2.130523 l -0.287711,1.43492 q 0.480733,-0.33506 1.008811,-0.33506 0.699249,0 1.179982,0.48438 0.480733,0.48437 0.480733,1.24553 0,0.72474 -0.422462,1.25282 -0.513511,0.64826 -1.402139,0.64826 -0.728384,0 -1.190908,-0.40789 -0.458881,-0.4079 -0.524436,-1.08165 z"
         style="fill:#cccccc;stroke-width:0.497243px"
         id="path2304" />
    </g>
    <g
       aria-label="16"
       id="text1993"
       style="font-style:normal;font-variant:normal;font-weight:normal;font-stretch:normal;font-size:7.45865px;line-height:125%;font-family:Arial;-inkscape-font-specification:Arial;letter-spacing:0px;word-spacing:0px;display:inline;fill:#cccccc;fill-opacity:1;stroke:none;stroke-width:0.497243px;stroke-linecap:butt;stroke-linejoin:miter;stroke-opacity:1"
       transform="translate(-281.86472,-76.045643)">
      <path
         d="m 211.33481,181.65739 h -0.65554 v -4.17728 q -0.23673,0.2258 -0.62277,0.4516 -0.3824,0.2258 -0.68832,0.3387 v -0.63369 q 0.54993,-0.25858 0.96146,-0.62641 0.41154,-0.36784 0.58271,-0.71382 h 0.42246 z"
         style="fill:#cccccc;stroke-width:0.497243px"
         id="path2307" />
      <path
         d="m 216.41529,177.62579 -0.6519,0.051 q -0.0874,-0.38605 -0.24765,-0.56086 -0.26586,-0.28043 -0.65555,-0.28043 -0.3132,0 -0.54993,0.17482 -0.30956,0.22579 -0.48801,0.65918 -0.17846,0.43339 -0.18574,1.23461 0.23672,-0.36055 0.57906,-0.53536 0.34234,-0.17481 0.71746,-0.17481 0.65555,0 1.11443,0.48437 0.46252,0.48074 0.46252,1.24554 0,0.50259 -0.21851,0.93597 -0.21488,0.42975 -0.59364,0.65919 -0.37876,0.22944 -0.85949,0.22944 -0.81943,0 -1.33658,-0.60091 -0.51716,-0.60456 -0.51716,-1.98849 0,-1.54782 0.57178,-2.25071 0.49895,-0.61184 1.34387,-0.61184 0.63006,0 1.03067,0.35327 0.40425,0.35326 0.48437,0.97603 z m -2.67681,2.30169 q 0,0.3387 0.14204,0.64826 0.14567,0.30957 0.40425,0.47345 0.25858,0.16025 0.54264,0.16025 0.41518,0 0.71382,-0.33506 0.29864,-0.33505 0.29864,-0.91048 0,-0.55357 -0.295,-0.87042 -0.29499,-0.32049 -0.74295,-0.32049 -0.44431,0 -0.75388,0.32049 -0.30956,0.31685 -0.30956,0.834 z"
         style="fill:#cccccc;stroke-width:0.497243px"
         id="path2309" />
    </g>
    <g
       aria-label="17"
       id="text1997"
       style="font-style:normal;font-variant:normal;font-weight:normal;font-stretch:normal;font-size:7.45865px;line-height:125%;font-family:Arial;-inkscape-font-specification:Arial;letter-spacing:0px;word-spacing:0px;display:inline;fill:#cccccc;fill-opacity:1;stroke:none;stroke-width:0.497243px;stroke-linecap:butt;stroke-linejoin:miter;stroke-opacity:1"
       transform="translate(-281.86472,-76.045643)">
      <path
         d="m 189.10842,128.80016 h -0.65555 v -4.17729 q -0.23672,0.2258 -0.62276,0.4516 -0.38241,0.2258 -0.68833,0.3387 v -0.63369 q 0.54993,-0.25858 0.96147,-0.62641 0.41154,-0.36784 0.58271,-0.71382 h 0.42246 z"
         style="fill:#cccccc;stroke-width:0.497243px"
         id="path2312" />
      <path
         d="m 190.83105,124.16035 v -0.63005 h 3.45618 v 0.50987 q -0.50987,0.54264 -1.01245,1.4422 -0.49895,0.89955 -0.77209,1.85009 -0.19667,0.67012 -0.25129,1.4677 h -0.67376 q 0.0109,-0.63006 0.24765,-1.52233 0.23673,-0.89227 0.6774,-1.71898 0.44431,-0.83036 0.94326,-1.3985 z"
         style="fill:#cccccc;stroke-width:0.497243px"
         id="path2314" />
    </g>
    <g
       aria-label="18"
       id="text2001"
       style="font-style:normal;font-variant:normal;font-weight:normal;font-stretch:normal;font-size:7.45865px;line-height:125%;font-family:Arial;-inkscape-font-specification:Arial;letter-spacing:0px;word-spacing:0px;display:inline;fill:#cccccc;fill-opacity:1;stroke:none;stroke-width:0.497243px;stroke-linecap:butt;stroke-linejoin:miter;stroke-opacity:1"
       transform="translate(-281.86472,-76.045643)">
      <path
         d="m 182.25843,292.05453 h -0.65555 v -4.17728 q -0.23672,0.2258 -0.62276,0.4516 -0.38241,0.2258 -0.68833,0.3387 v -0.63369 q 0.54993,-0.25858 0.96147,-0.62641 0.41154,-0.36784 0.58271,-0.71382 h 0.42246 z"
         style="fill:#cccccc;stroke-width:0.497243px"
         id="path2317" />
      <path
         d="m 184.94617,289.15921 q -0.4079,-0.14932 -0.60456,-0.42611 -0.19667,-0.27678 -0.19667,-0.66282 0,-0.58271 0.41882,-0.97968 0.41882,-0.39697 1.11443,-0.39697 0.69925,0 1.12535,0.4079 0.42611,0.40425 0.42611,0.98696 0,0.37147 -0.19667,0.64826 -0.19302,0.27314 -0.58999,0.42246 0.49166,0.16024 0.7466,0.51715 0.25857,0.35691 0.25857,0.85221 0,0.68468 -0.48437,1.15085 -0.48438,0.46616 -1.27467,0.46616 -0.7903,0 -1.27468,-0.46616 -0.48437,-0.46981 -0.48437,-1.16906 0,-0.52079 0.26222,-0.87042 0.26586,-0.35326 0.75388,-0.48073 z m -0.13111,-1.11079 q 0,0.37876 0.244,0.61913 0.24401,0.24037 0.6337,0.24037 0.37876,0 0.61912,-0.23673 0.24401,-0.24036 0.24401,-0.58635 0,-0.36055 -0.25129,-0.60456 -0.24765,-0.24765 -0.61913,-0.24765 -0.37511,0 -0.62276,0.24037 -0.24765,0.24037 -0.24765,0.57542 z m -0.21124,2.46558 q 0,0.28043 0.13111,0.54265 0.13475,0.26222 0.39697,0.40789 0.26222,0.14204 0.5645,0.14204 0.46981,0 0.77573,-0.30228 0.30592,-0.30228 0.30592,-0.76845 0,-0.47344 -0.31685,-0.78301 -0.3132,-0.30956 -0.78665,-0.30956 -0.46252,0 -0.76845,0.30592 -0.30228,0.30592 -0.30228,0.7648 z"
         style="fill:#cccccc;stroke-width:0.497243px"
         id="path2319" />
    </g>
    <g
       aria-label="19"
       id="text2005"
       style="font-style:normal;font-variant:normal;font-weight:normal;font-stretch:normal;font-size:7.45865px;line-height:125%;font-family:Arial;-inkscape-font-specification:Arial;letter-spacing:0px;word-spacing:0px;display:inline;fill:#cccccc;fill-opacity:1;stroke:none;stroke-width:0.497243px;stroke-linecap:butt;stroke-linejoin:miter;stroke-opacity:1"
       transform="translate(-281.86472,-76.045643)">
      <path
         d="m 107.02451,314.20575 h -0.65554 v -4.17728 q -0.23673,0.2258 -0.62277,0.4516 -0.3824,0.2258 -0.68832,0.33869 v -0.63369 q 0.54993,-0.25858 0.96146,-0.62641 0.41154,-0.36783 0.58271,-0.71382 h 0.42246 z"
         style="fill:#cccccc;stroke-width:0.497243px"
         id="path2322" />
      <path
         d="m 108.80177,312.97114 0.63005,-0.0583 q 0.0801,0.44431 0.30592,0.64462 0.2258,0.2003 0.57907,0.2003 0.30228,0 0.52807,-0.13839 0.22945,-0.13839 0.37512,-0.36783 0.14568,-0.23309 0.24401,-0.62641 0.0983,-0.39333 0.0983,-0.80123 0,-0.0437 -0.004,-0.1311 -0.19666,0.3132 -0.539,0.50986 -0.3387,0.19303 -0.73567,0.19303 -0.66283,0 -1.12171,-0.48074 -0.45888,-0.48073 -0.45888,-1.26739 0,-0.81214 0.47709,-1.30744 0.48073,-0.49531 1.20183,-0.49531 0.5208,0 0.95054,0.28043 0.43339,0.28043 0.65555,0.80122 0.2258,0.51716 0.2258,1.50048 0,1.02337 -0.22216,1.63158 -0.22216,0.60455 -0.66283,0.9214 -0.43703,0.31685 -1.02702,0.31685 -0.62641,0 -1.02338,-0.34598 -0.39697,-0.34963 -0.47709,-0.97968 z m 2.68409,-2.35632 q 0,-0.5645 -0.30228,-0.89591 -0.29863,-0.33142 -0.7211,-0.33142 -0.43703,0 -0.76116,0.35691 -0.32413,0.35691 -0.32413,0.92505 0,0.50986 0.30592,0.83035 0.30957,0.31685 0.76116,0.31685 0.45524,0 0.7466,-0.31685 0.29499,-0.32049 0.29499,-0.88498 z"
         style="fill:#cccccc;stroke-width:0.497243px"
         id="path2324" />
    </g>
    <g
       aria-label="20"
       id="text2009"
       style="font-style:normal;font-variant:normal;font-weight:normal;font-stretch:normal;font-size:7.45865px;line-height:125%;font-family:Arial;-inkscape-font-specification:Arial;letter-spacing:0px;word-spacing:0px;display:inline;fill:#cccccc;fill-opacity:1;stroke:none;stroke-width:0.497243px;stroke-linecap:butt;stroke-linejoin:miter;stroke-opacity:1"
       transform="translate(-281.86472,-76.045643)">
      <path
         d="m 103.95802,185.93327 v 0.63005 H 100.429 q -0.007,-0.23672 0.0765,-0.45524 0.13475,-0.36055 0.42975,-0.71017 0.29863,-0.34962 0.85949,-0.80851 0.87042,-0.71381 1.17634,-1.12899 0.30592,-0.41882 0.30592,-0.7903 0,-0.38968 -0.28043,-0.65554 -0.27678,-0.2695 -0.72474,-0.2695 -0.47345,0 -0.75752,0.28406 -0.28407,0.28407 -0.28771,0.78666 l -0.67375,-0.0692 q 0.0692,-0.75387 0.52079,-1.1472 0.4516,-0.39697 1.21276,-0.39697 0.76844,0 1.2164,0.4261 0.44796,0.42611 0.44796,1.05616 0,0.32049 -0.13111,0.63005 -0.13111,0.30957 -0.43703,0.65191 -0.30228,0.34234 -1.00881,0.93961 -0.59,0.4953 -0.75752,0.67376 -0.16753,0.17481 -0.27679,0.35326 z"
         style="fill:#cccccc;stroke-width:0.497243px"
         id="path2327" />
      <path
         d="m 104.66091,183.93022 q 0,-0.9469 0.19302,-1.52233 0.19667,-0.57906 0.57907,-0.89227 0.38604,-0.3132 0.96875,-0.3132 0.42974,0 0.75387,0.17481 0.32414,0.17117 0.53537,0.49894 0.21123,0.32414 0.33141,0.79394 0.12018,0.46617 0.12018,1.26011 0,0.93961 -0.19302,1.51868 -0.19302,0.57542 -0.57906,0.89227 -0.3824,0.3132 -0.96875,0.3132 -0.77209,0 -1.21276,-0.55357 -0.52808,-0.66647 -0.52808,-2.17058 z m 0.67376,0 q 0,1.31473 0.30592,1.75176 0.30956,0.43339 0.76116,0.43339 0.4516,0 0.75752,-0.43703 0.30956,-0.43703 0.30956,-1.74812 0,-1.31838 -0.30956,-1.75177 -0.30592,-0.43338 -0.76481,-0.43338 -0.45159,0 -0.7211,0.3824 -0.33869,0.48801 -0.33869,1.80275 z"
         style="fill:#cccccc;stroke-width:0.497243px"
         id="path2329" />
    </g>
    <g
       aria-label="21"
       id="text2013"
       style="font-style:normal;font-variant:normal;font-weight:normal;font-stretch:normal;font-size:7.45865px;line-height:125%;font-family:Arial;-inkscape-font-specification:Arial;letter-spacing:0px;word-spacing:0px;display:inline;fill:#cccccc;fill-opacity:1;stroke:none;stroke-width:0.497243px;stroke-linecap:butt;stroke-linejoin:miter;stroke-opacity:1"
       transform="translate(-281.86472,-76.045643)">
      <path
         d="m 98.852765,124.97188 v 0.63006 h -3.52902 q -0.0073,-0.23673 0.07648,-0.45524 0.134751,-0.36055 0.429747,-0.71018 0.298637,-0.34962 0.859493,-0.8085 0.870418,-0.71382 1.17634,-1.129 0.305921,-0.41882 0.305921,-0.7903 0,-0.38968 -0.280428,-0.65554 -0.276786,-0.2695 -0.724742,-0.2695 -0.473449,0 -0.757519,0.28407 -0.28407,0.28407 -0.287712,0.78665 l -0.673755,-0.0692 q 0.0692,-0.75388 0.520795,-1.14721 0.451598,-0.39697 1.212759,-0.39697 0.768445,0 1.216401,0.42611 0.447956,0.4261 0.447956,1.05615 0,0.32049 -0.131109,0.63005 -0.131109,0.30957 -0.437031,0.65191 -0.302279,0.34234 -1.008811,0.93961 -0.589991,0.4953 -0.757519,0.67376 -0.167529,0.17481 -0.276786,0.35326 z"
         style="fill:#cccccc;stroke-width:0.497243px"
         id="path2332" />
      <path
         d="m 102.02488,125.60194 h -0.65555 v -4.17728 q -0.23672,0.22579 -0.62277,0.45159 -0.3824,0.2258 -0.68832,0.3387 v -0.63369 q 0.54993,-0.25858 0.96147,-0.62641 0.41153,-0.36784 0.5827,-0.71382 h 0.42247 z"
         style="fill:#cccccc;stroke-width:0.497243px"
         id="path2334" />
    </g>
    <g
       aria-label="22"
       id="text2017"
       style="font-style:normal;font-variant:normal;font-weight:normal;font-stretch:normal;font-size:7.45865px;line-height:125%;font-family:Arial;-inkscape-font-specification:Arial;letter-spacing:0px;word-spacing:0px;display:inline;fill:#cccccc;fill-opacity:1;stroke:none;stroke-width:0.497243px;stroke-linecap:butt;stroke-linejoin:miter;stroke-opacity:1"
       transform="translate(-281.86472,-76.045643)">
      <path
         d="m 181.85472,183.52484 v 0.63005 h -3.52902 q -0.007,-0.23672 0.0765,-0.45524 0.13475,-0.36055 0.42975,-0.71017 0.29863,-0.34963 0.85949,-0.80851 0.87042,-0.71381 1.17634,-1.12899 0.30592,-0.41882 0.30592,-0.7903 0,-0.38968 -0.28043,-0.65554 -0.27678,-0.26951 -0.72474,-0.26951 -0.47345,0 -0.75752,0.28407 -0.28407,0.28407 -0.28771,0.78666 l -0.67376,-0.0692 q 0.0692,-0.75388 0.5208,-1.1472 0.4516,-0.39697 1.21276,-0.39697 0.76844,0 1.2164,0.4261 0.44795,0.42611 0.44795,1.05616 0,0.32049 -0.13111,0.63005 -0.1311,0.30956 -0.43703,0.6519 -0.30227,0.34234 -1.00881,0.93962 -0.58999,0.4953 -0.75752,0.67375 -0.16752,0.17482 -0.27678,0.35327 z"
         style="fill:#cccccc;stroke-width:0.497243px"
         id="path2337" />
      <path
         d="m 186.00286,183.52484 v 0.63005 h -3.52902 q -0.007,-0.23672 0.0765,-0.45524 0.13476,-0.36055 0.42975,-0.71017 0.29864,-0.34963 0.85949,-0.80851 0.87042,-0.71381 1.17634,-1.12899 0.30592,-0.41882 0.30592,-0.7903 0,-0.38968 -0.28042,-0.65554 -0.27679,-0.26951 -0.72475,-0.26951 -0.47344,0 -0.75751,0.28407 -0.28407,0.28407 -0.28772,0.78666 l -0.67375,-0.0692 q 0.0692,-0.75388 0.52079,-1.1472 0.4516,-0.39697 1.21276,-0.39697 0.76845,0 1.2164,0.4261 0.44796,0.42611 0.44796,1.05616 0,0.32049 -0.13111,0.63005 -0.13111,0.30956 -0.43703,0.6519 -0.30228,0.34234 -1.00881,0.93962 -0.58999,0.4953 -0.75752,0.67375 -0.16753,0.17482 -0.27679,0.35327 z"
         style="fill:#cccccc;stroke-width:0.497243px"
         id="path2339" />
    </g>
    <g
       aria-label="23"
       id="text2021"
       style="font-style:normal;font-variant:normal;font-weight:normal;font-stretch:normal;font-size:7.45865px;line-height:125%;font-family:Arial;-inkscape-font-specification:Arial;letter-spacing:0px;word-spacing:0px;display:inline;fill:#cccccc;fill-opacity:1;stroke:none;stroke-width:0.497243px;stroke-linecap:butt;stroke-linejoin:miter;stroke-opacity:1"
       transform="translate(-281.86472,-76.045643)">
      <path
         d="m 47.698109,318.74632 v 0.63005 H 44.16909 q -0.0073,-0.23672 0.07648,-0.45524 0.134751,-0.36055 0.429746,-0.71017 0.298638,-0.34963 0.859493,-0.80851 0.870419,-0.71381 1.17634,-1.12899 0.305921,-0.41882 0.305921,-0.7903 0,-0.38968 -0.280427,-0.65554 -0.276786,-0.26951 -0.724742,-0.26951 -0.47345,0 -0.757519,0.28407 -0.28407,0.28407 -0.287712,0.78666 l -0.673755,-0.0692 q 0.0692,-0.75388 0.520794,-1.1472 0.451598,-0.39697 1.212759,-0.39697 0.768445,0 1.216401,0.4261 0.447956,0.42611 0.447956,1.05616 0,0.32049 -0.131109,0.63005 -0.131109,0.30956 -0.43703,0.65191 -0.302279,0.34234 -1.008812,0.93961 -0.58999,0.4953 -0.757519,0.67376 -0.167528,0.17481 -0.276786,0.35326 z"
         style="fill:#cccccc;stroke-width:0.497243px"
         id="path2342" />
      <path
         d="m 48.404641,317.96695 0.655546,-0.0874 q 0.112899,0.55722 0.382401,0.80487 0.273144,0.24401 0.66283,0.24401 0.462523,0 0.77937,-0.32049 0.320489,-0.32049 0.320489,-0.79394 0,-0.4516 -0.294995,-0.74295 -0.294996,-0.295 -0.750236,-0.295 -0.185737,0 -0.462523,0.0728 l 0.07284,-0.57542 q 0.06555,0.007 0.105616,0.007 0.41882,0 0.753877,-0.21851 0.335056,-0.21852 0.335056,-0.67376 0,-0.36055 -0.244008,-0.59727 -0.244009,-0.23673 -0.630052,-0.23673 -0.382402,0 -0.637336,0.24037 -0.254934,0.24037 -0.327773,0.7211 l -0.655545,-0.11654 q 0.120183,-0.65919 0.546288,-1.01974 0.426104,-0.36419 1.059798,-0.36419 0.437031,0 0.804864,0.18938 0.367834,0.18574 0.560856,0.50987 0.196663,0.32413 0.196663,0.68832 0,0.34598 -0.185737,0.63005 -0.185738,0.28407 -0.54993,0.4516 0.473449,0.10926 0.735667,0.45524 0.262219,0.34234 0.262219,0.85949 0,0.69925 -0.509869,1.18727 -0.509869,0.48437 -1.289239,0.48437 -0.702891,0 -1.169056,-0.41882 -0.462524,-0.41882 -0.528079,-1.08529 z"
         style="fill:#cccccc;stroke-width:0.497243px"
         id="path2344" />
    </g>
    <g
       aria-label="24"
       id="text2025"
       style="font-style:normal;font-variant:normal;font-weight:normal;font-stretch:normal;font-size:7.45865px;line-height:125%;font-family:Arial;-inkscape-font-specification:Arial;letter-spacing:0px;word-spacing:0px;display:inline;fill:#cccccc;fill-opacity:1;stroke:none;stroke-width:0.497243px;stroke-linecap:butt;stroke-linejoin:miter;stroke-opacity:1"
       transform="translate(-281.86472,-76.045643)">
      <path
         d="m 236.32129,251.05829 v 0.63005 h -3.52902 q -0.007,-0.23673 0.0765,-0.45524 0.13475,-0.36055 0.42974,-0.71017 0.29864,-0.34963 0.8595,-0.80851 0.87041,-0.71382 1.17634,-1.129 0.30592,-0.41882 0.30592,-0.79029 0,-0.38969 -0.28043,-0.65555 -0.27679,-0.2695 -0.72474,-0.2695 -0.47345,0 -0.75752,0.28407 -0.28407,0.28407 -0.28771,0.78665 l -0.67376,-0.0692 q 0.0692,-0.75388 0.5208,-1.14721 0.45159,-0.39697 1.21275,-0.39697 0.76845,0 1.21641,0.42611 0.44795,0.4261 0.44795,1.05616 0,0.32048 -0.13111,0.63005 -0.13111,0.30956 -0.43703,0.6519 -0.30228,0.34234 -1.00881,0.93962 -0.58999,0.4953 -0.75752,0.67375 -0.16753,0.17481 -0.27678,0.35327 z"
         style="fill:#cccccc;stroke-width:0.497243px"
         id="path2347" />
      <path
         d="m 239.12556,251.68834 v -1.27831 h -2.31626 v -0.60092 l 2.43645,-3.45982 h 0.53536 v 3.45982 h 0.7211 v 0.60092 h -0.7211 v 1.27831 z m 0,-1.87923 v -2.40731 l -1.67164,2.40731 z"
         style="fill:#cccccc;stroke-width:0.497243px"
         id="path2349" />
    </g>
    <g
       aria-label="25"
       id="text2029"
       style="font-style:normal;font-variant:normal;font-weight:normal;font-stretch:normal;font-size:7.45865px;line-height:125%;font-family:Arial;-inkscape-font-specification:Arial;letter-spacing:0px;word-spacing:0px;display:inline;fill:#cccccc;fill-opacity:1;stroke:none;stroke-width:0.497243px;stroke-linecap:butt;stroke-linejoin:miter;stroke-opacity:1"
       transform="translate(-281.86472,-76.045643)">
      <path
         d="m 227.58026,315.94102 v 0.63006 h -3.52902 q -0.007,-0.23673 0.0765,-0.45524 0.13475,-0.36055 0.42975,-0.71018 0.29863,-0.34962 0.85949,-0.8085 0.87042,-0.71382 1.17634,-1.129 0.30592,-0.41882 0.30592,-0.7903 0,-0.38968 -0.28043,-0.65554 -0.27678,-0.2695 -0.72474,-0.2695 -0.47345,0 -0.75752,0.28407 -0.28407,0.28407 -0.28771,0.78665 l -0.67376,-0.0692 q 0.0692,-0.75387 0.5208,-1.1472 0.4516,-0.39697 1.21276,-0.39697 0.76844,0 1.2164,0.42611 0.44795,0.4261 0.44795,1.05615 0,0.32049 -0.1311,0.63005 -0.13111,0.30957 -0.43704,0.65191 -0.30227,0.34234 -1.00881,0.93961 -0.58999,0.4953 -0.75752,0.67376 -0.16752,0.17481 -0.27678,0.35326 z"
         style="fill:#cccccc;stroke-width:0.497243px"
         id="path2352" />
      <path
         d="m 228.28315,315.17258 0.68832,-0.0583 q 0.0765,0.50258 0.35327,0.75752 0.28042,0.25129 0.67375,0.25129 0.47345,0 0.80122,-0.35691 0.32778,-0.35691 0.32778,-0.9469 0,-0.56085 -0.31685,-0.88498 -0.31321,-0.32413 -0.82307,-0.32413 -0.31685,0 -0.57178,0.14567 -0.25494,0.14204 -0.40062,0.37148 l -0.61548,-0.0801 0.51715,-2.74237 h 2.65496 v 0.62641 h -2.13052 l -0.28771,1.43492 q 0.48073,-0.33506 1.00881,-0.33506 0.69925,0 1.17998,0.48438 0.48073,0.48437 0.48073,1.24553 0,0.72474 -0.42246,1.25282 -0.51351,0.64826 -1.40214,0.64826 -0.72838,0 -1.19091,-0.40789 -0.45888,-0.4079 -0.52443,-1.08165 z"
         style="fill:#cccccc;stroke-width:0.497243px"
         id="path2354" />
    </g>
  </g>
</svg>
