<?xml version="1.0" encoding="UTF-8" standalone="no"?>
<svg
   xmlns:dc="http://purl.org/dc/elements/1.1/"
   xmlns:cc="http://creativecommons.org/ns#"
   xmlns:rdf="http://www.w3.org/1999/02/22-rdf-syntax-ns#"
   xmlns:svg="http://www.w3.org/2000/svg"
   xmlns="http://www.w3.org/2000/svg"
   xmlns:sodipodi="http://sodipodi.sourceforge.net/DTD/sodipodi-0.dtd"
   xmlns:inkscape="http://www.inkscape.org/namespaces/inkscape"
   sodipodi:docname="mini_cadeau.svg"
   inkscape:version="1.0.1 (3bc2e813f5, 2020-09-07)"
   id="svg8"
   version="1.1"
   viewBox="0 0 210 297"
   height="297mm"
   width="210mm">
  <defs
     id="defs2" />
  <sodipodi:namedview
     inkscape:window-maximized="1"
     inkscape:window-y="0"
     inkscape:window-x="0"
     inkscape:window-height="1136"
     inkscape:window-width="1920"
     showgrid="false"
     inkscape:document-rotation="0"
     inkscape:current-layer="layer1"
     inkscape:document-units="mm"
     inkscape:cy="476.33554"
     inkscape:cx="142.74626"
     inkscape:zoom="0.98994949"
     inkscape:pageshadow="2"
     inkscape:pageopacity="0.0"
     borderopacity="1.0"
     bordercolor="#666666"
     pagecolor="#ffffff"
     id="base" />
  <metadata
     id="metadata5">
    <rdf:RDF>
      <cc:Work
         rdf:about="">
        <dc:format>image/svg+xml</dc:format>
        <dc:type
           rdf:resource="http://purl.org/dc/dcmitype/StillImage" />
        <dc:title></dc:title>
      </cc:Work>
    </rdf:RDF>
  </metadata>
  <g
     id="layer1"
     inkscape:groupmode="layer"
     inkscape:label="Layer 1">
    <path
       style="fill:none;fill-opacity:1;stroke:#000000;stroke-width:2;stroke-miterlimit:4;stroke-dasharray:none;stroke-dashoffset:0;stroke-opacity:1"
       d="m 135.60752,48.324001 h 33.98162 c 6.58336,0 11.88332,5.299961 11.88332,11.883319 v 119.68943 c 0,6.58336 -5.29996,11.88332 -11.88332,11.88332 H 46.284247 c -6.583358,0 -11.883319,-5.29996 -11.883319,-11.88332 V 60.20732 c 0,-6.583358 5.299961,-11.883319 11.883319,-11.883319 h 40.08676"
       id="path946" />
    <path
       style="fill:none;fill-rule:evenodd;stroke:#000000;stroke-width:2;stroke-linecap:butt;stroke-linejoin:miter;stroke-miterlimit:4;stroke-dasharray:none;stroke-opacity:1"
       d="m 86.248521,48.059415 c -3.508564,-0.7269 -11.744589,-3.641546 -14.121826,-8.776566 -4.754476,-10.270043 -0.235951,-13.089943 3.686439,-13.089943 3.92239,0 33.848046,9.518576 34.133246,16.659712"
       id="path950"
       sodipodi:nodetypes="cssc" />
    <path
       style="fill:none;fill-rule:evenodd;stroke:#000000;stroke-width:2;stroke-linecap:butt;stroke-linejoin:miter;stroke-miterlimit:4;stroke-dasharray:none;stroke-opacity:1"
       d="m 135.44361,48.127276 c 3.05597,-1.04376 9.50464,-3.709407 11.88187,-8.844427 4.75447,-10.270046 0.45624,-15.030518 -3.46615,-15.030518 -3.92239,0 -33.76844,11.407994 -33.91295,18.600287"
       id="path954"
       sodipodi:nodetypes="cssc" />
    <rect
       ry="0"
       y="48.564159"
       x="103.20929"
       height="142.33626"
       width="13.287162"
       id="rect854"
       style="fill:#b3b3b3;fill-opacity:1;stroke:none;stroke-width:1.99172;stroke-miterlimit:4;stroke-dasharray:none;stroke-dashoffset:0;stroke-opacity:1" />
    <rect
       y="112.24067"
       x="35.3955"
       height="12.808057"
       width="145.08092"
       id="rect856"
       style="fill:#b3b3b3;fill-opacity:1;stroke:none;stroke-width:1.99199;stroke-miterlimit:4;stroke-dasharray:none;stroke-dashoffset:0;stroke-opacity:1" />
    <path
       style="fill:none;fill-rule:evenodd;stroke:#000000;stroke-width:1.33925;stroke-linecap:butt;stroke-linejoin:miter;stroke-miterlimit:4;stroke-dasharray:none;stroke-opacity:1"
       d="m 101.68131,42.369382 c -2.665694,3.701759 -21.993837,3.18722 -25.177561,-3.689873 -3.183724,-6.877096 -0.157999,-8.765375 2.468538,-8.765375 2.626537,0 25.340503,8.216558 22.709023,12.455248 z"
       id="path837-6"
       sodipodi:nodetypes="cssc" />
    <path
       sodipodi:nodetypes="cssc"
       id="path837-6-1"
       d="m 117.07473,42.675802 c 2.66569,3.701759 21.99383,3.18722 25.17755,-3.689872 3.18373,-6.877097 0.158,-8.765376 -2.46854,-8.765376 -2.62653,0 -25.34049,8.216559 -22.70901,12.455248 z"
       style="fill:none;fill-rule:evenodd;stroke:#000000;stroke-width:1.33925;stroke-linecap:butt;stroke-linejoin:miter;stroke-miterlimit:4;stroke-dasharray:none;stroke-opacity:1" />
    <rect
       style="fill:none;fill-opacity:1;stroke:#000000;stroke-width:1.479;stroke-miterlimit:4;stroke-dasharray:none;stroke-dashoffset:0;stroke-opacity:1"
       id="rect895-3-1-6"
       width="32.423435"
       height="32.423435"
       x="55.802811"
       y="140.96469"
       ry="4.1854725" />
    <rect
       style="fill:none;fill-opacity:1;stroke:#000000;stroke-width:1.479;stroke-miterlimit:4;stroke-dasharray:none;stroke-dashoffset:0;stroke-opacity:1"
       id="rect895-3-1-6-4"
       width="32.423435"
       height="32.423435"
       x="54.958187"
       y="69.745712"
       ry="4.1854725" />
    <rect
       style="fill:none;fill-opacity:1;stroke:#000000;stroke-width:1.479;stroke-miterlimit:4;stroke-dasharray:none;stroke-dashoffset:0;stroke-opacity:1"
       id="rect895-3-1-6-5"
       width="32.423435"
       height="32.423435"
       x="132.12288"
       y="65.038223"
       ry="4.1854725" />
    <rect
       style="fill:none;fill-opacity:1;stroke:#000000;stroke-width:1.479;stroke-miterlimit:4;stroke-dasharray:none;stroke-dashoffset:0;stroke-opacity:1"
       id="rect895-3-1-6-0"
       width="32.423435"
       height="32.423435"
       x="135.33742"
       y="143.37846"
       ry="4.1854725" />
    <path
       sodipodi:type="star"
       style="fill:#b3b3b3;stroke:#000000;stroke-width:1.479;stroke-miterlimit:4;stroke-dasharray:none"
       id="path1193"
       sodipodi:sides="5"
       sodipodi:cx="72.584717"
       sodipodi:cy="86.036827"
       sodipodi:r1="13.122826"
       sodipodi:r2="6.5614128"
       sodipodi:arg1="-0.61762056"
       sodipodi:arg2="0.010697967"
       inkscape:flatsided="false"
       inkscape:rounded="0"
       inkscape:randomized="0"
       d="m 83.283214,78.437439 -4.13746,7.669581 3.972428,7.756343 -8.57275,-1.564928 -6.149173,6.174845 -1.160791,-8.636759 -7.772826,-3.940079 7.855342,-3.772883 1.345303,-8.609948 6.015659,6.304989 z"
       inkscape:transform-center-x="1.0460224"
       inkscape:transform-center-y="-0.037903417"
       transform="matrix(0.86320445,0,0,0.87370163,9.0432831,11.515687)" />
    <path
       style="fill:#b3b3b3;stroke:#000000;stroke-width:0.998;stroke-miterlimit:4;stroke-dasharray:none"
       d="m 150.27869,94.103572 c -0.024,-0.024 -0.24047,-0.0497 -0.48099,-0.057 -0.24053,-0.007 -0.72347,-0.0534 -1.07322,-0.1023 -0.34974,-0.0489 -1.17159,-0.13307 -1.82634,-0.18697 -1.44085,-0.1186 -1.73811,-0.21076 -1.66675,-0.51677 0.20633,-0.88491 0.35016,-1.66295 0.38684,-2.09263 0.0427,-0.49986 0.0402,-0.50516 -0.25964,-0.55498 -0.1665,-0.0276 -0.50084,-0.0955 -0.74297,-0.15065 -0.24212,-0.0552 -1.12259,-0.17299 -1.9566,-0.26176 -1.89445,-0.20164 -3.14811,-0.47038 -3.71754,-0.79694 -0.24212,-0.13885 -0.56154,-0.31581 -0.7098,-0.39324 -0.35498,-0.18538 -0.48858,-0.45445 -0.43244,-0.87098 0.0704,-0.52203 0.47212,-1.01698 2.06934,-2.54921 2.28743,-2.19436 2.76154,-2.8249 2.35022,-3.12567 -0.0966,-0.0706 -0.21183,-0.10599 -0.25612,-0.0786 -0.20744,0.1282 -0.96677,-0.489 -0.96677,-0.78581 0,-0.2151 0.88367,-1.24671 2.19264,-2.55975 2.17429,-2.18105 2.79669,-2.83353 2.79669,-2.93184 0,-0.0537 -0.1597,-0.10836 -0.35489,-0.12151 -1.05353,-0.071 -1.61392,-0.69662 -1.25361,-1.39963 0.0926,-0.18066 0.19548,-0.35049 0.22863,-0.37739 0.0331,-0.0269 0.17683,-0.20548 0.31928,-0.39682 0.27249,-0.36604 1.12864,-1.20633 2.0484,-2.01044 2.84056,-2.48342 2.97012,-2.58207 3.39074,-2.58207 0.29461,0 0.45677,0.15262 2.22498,2.09425 1.40442,1.54217 3.2773,4.28724 3.2773,4.80353 0,0.23679 -0.47223,0.62303 -0.90383,0.73924 -0.27388,0.0738 -0.5294,0.0731 -0.88035,-0.002 -0.27195,-0.0583 -0.51601,-0.0845 -0.54235,-0.0582 -0.0907,0.0907 0.43359,0.78811 1.8741,2.49323 0.38336,0.45377 0.84362,0.97898 1.02281,1.16714 0.34259,0.35972 1.03947,1.25694 1.3076,1.68351 0.28549,0.45418 0.40881,1.01335 0.27757,1.25858 -0.15601,0.29152 -0.67261,0.49529 -1.25563,0.49529 -0.26179,0 -0.50358,0.0276 -0.5373,0.0613 -0.0728,0.0728 0.12553,0.47186 0.60136,1.20993 0.19098,0.29623 0.55766,0.86878 0.81485,1.27233 0.25719,0.40355 0.70459,1.0639 0.99423,1.46745 0.50204,0.69949 0.85806,1.54816 0.9778,2.33084 0.0359,0.23445 -7.8e-4,0.37584 -0.13111,0.5062 -0.0995,0.0995 -0.23179,0.27599 -0.294,0.39223 -0.15631,0.29207 -0.67752,0.48827 -1.29711,0.48827 -0.87902,0 -3.84638,-0.28695 -4.49633,-0.4348 -0.33767,-0.0768 -0.97784,-0.17024 -1.4226,-0.20761 l -0.80865,-0.0679 0.18815,0.52637 c 0.61377,1.71708 0.71787,2.14369 0.59531,2.43957 -0.11745,0.28355 -0.1309,0.28798 -0.87375,0.28798 -0.41496,0 -0.77412,-0.0197 -0.79815,-0.0437 z"
       id="path1209" />
    <path
       style="fill:#cccccc;stroke:#000000;stroke-width:0.926;stroke-miterlimit:4;stroke-dasharray:none"
       d="m 58.648723,166.3247 c -0.228712,-0.16042 -0.283762,-0.31914 -0.283762,-0.81818 0,-0.79815 0.281258,-1.37497 0.853262,-1.74993 0.525962,-0.34477 0.958296,-0.36955 2.390393,-0.13698 1.620105,0.2631 1.815536,0.11702 1.997714,-1.49321 0.07492,-0.66223 0.04383,-0.80925 -0.326071,-1.54202 -0.655991,-1.29951 -1.02755,-2.38903 -1.137557,-3.33564 -0.124,-1.06703 -0.0034,-1.68348 0.564536,-2.88558 0.596727,-1.26304 0.599004,-1.27682 0.328557,-1.98858 -0.440297,-1.15877 -0.731356,-1.29628 -1.920458,-0.90735 -0.602283,0.197 -0.663083,0.19614 -1.055055,-0.015 -0.228768,-0.12319 -0.472179,-0.37333 -0.540913,-0.55586 -0.416208,-1.10525 -0.263141,-1.77189 0.590095,-2.56999 0.510144,-0.47719 0.754437,-0.60265 1.506483,-0.7737 2.152319,-0.48953 4.121304,-0.0685 6.018601,1.28696 1.087926,0.77723 1.817157,1.42783 4.540206,4.05067 1.760439,1.69565 1.989103,1.88986 2.976167,2.52783 1.404721,0.90792 3.086155,1.11311 4.251122,0.51879 0.612547,-0.3125 0.838439,-0.61085 1.10322,-1.45712 0.409782,-1.30971 0.568213,-1.56326 1.153966,-1.84682 0.763719,-0.36971 1.732809,-0.29332 2.361408,0.18613 0.42566,0.32466 0.450507,0.38411 0.450507,1.07783 0,0.5048 -0.15458,1.22198 -0.494713,2.29522 -0.296302,0.93493 -0.530208,1.96565 -0.583212,2.56993 -0.100546,1.14629 -0.21673,1.42056 -0.924941,2.18352 -0.593461,0.63934 -0.885848,1.61392 -0.659738,2.19904 0.158778,0.41088 0.407154,0.43628 0.955026,0.0977 0.335334,-0.20725 0.472173,-0.44947 0.813753,-1.44042 0.495619,-1.43784 0.703317,-1.67377 1.295797,-1.47192 0.674784,0.22988 0.914538,0.67998 0.96717,1.8157 0.04211,0.9088 0.01348,1.05097 -0.359817,1.78642 -0.482984,0.95155 -0.845971,1.31984 -1.742647,1.76809 -1.223953,0.61186 -2.081659,0.65264 -15.914099,0.75663 -7.964891,0.0599 -8.9208,0.0461 -9.175,-0.13218 z"
       id="path1229" />
    <g
       aria-label="23"
       id="text1241"
       style="font-style:normal;font-variant:normal;font-weight:normal;font-stretch:normal;font-size:5.47929px;line-height:125%;font-family:Arial;-inkscape-font-specification:Arial;letter-spacing:0px;word-spacing:0px;fill:#000000;fill-opacity:1;stroke:none;stroke-width:0.365286px;stroke-linecap:butt;stroke-linejoin:miter;stroke-opacity:1">
      <path
         d="m 76.172779,75.906428 v 0.46285 h -2.592496 q -0.0054,-0.173903 0.05618,-0.334429 0.09899,-0.264868 0.315701,-0.52171 0.219386,-0.256842 0.631403,-0.593947 0.639429,-0.524385 0.864165,-0.829384 0.224737,-0.307675 0.224737,-0.58057 0,-0.286271 -0.206009,-0.481578 -0.203333,-0.197982 -0.532411,-0.197982 -0.347807,0 -0.556491,0.208684 -0.208684,0.208684 -0.211359,0.577894 l -0.494955,-0.05083 q 0.05083,-0.553815 0.382587,-0.842762 0.331754,-0.291623 0.890919,-0.291623 0.564517,0 0.893596,0.313026 0.329078,0.313026 0.329078,0.775876 0,0.235438 -0.09632,0.46285 -0.09632,0.227412 -0.321052,0.478903 -0.222061,0.251491 -0.741095,0.690262 -0.433421,0.363859 -0.556491,0.494956 -0.12307,0.12842 -0.203333,0.259517 z"
         style="stroke-width:0.365286px"
         id="path1358" />
      <path
         d="m 76.691813,75.333885 0.481578,-0.06421 q 0.08294,0.409342 0.280921,0.591271 0.200658,0.179255 0.486929,0.179255 0.33978,0 0.572543,-0.235439 0.235438,-0.235438 0.235438,-0.583244 0,-0.331754 -0.21671,-0.545789 -0.21671,-0.21671 -0.551139,-0.21671 -0.136448,0 -0.339781,0.05351 l 0.05351,-0.422718 q 0.04816,0.0054 0.07759,0.0054 0.307675,0 0.553815,-0.160527 0.24614,-0.160526 0.24614,-0.494955 0,-0.264868 -0.179255,-0.438771 -0.179254,-0.173903 -0.46285,-0.173903 -0.28092,0 -0.468201,0.176578 -0.18728,0.176579 -0.240789,0.529736 l -0.481578,-0.08561 q 0.08829,-0.484253 0.401315,-0.749121 0.313026,-0.267544 0.778552,-0.267544 0.321052,0 0.591271,0.139123 0.270218,0.136447 0.412017,0.374561 0.144473,0.238113 0.144473,0.505657 0,0.254166 -0.136447,0.46285 -0.136447,0.208684 -0.403991,0.331754 0.347807,0.08026 0.540438,0.334429 0.192631,0.251491 0.192631,0.631403 0,0.513683 -0.374561,0.872191 -0.37456,0.355833 -0.947103,0.355833 -0.516359,0 -0.858815,-0.307675 -0.33978,-0.307675 -0.387938,-0.797279 z"
         style="stroke-width:0.365286px"
         id="path1360" />
    </g>
    <g
       aria-label="24"
       id="text1241-9"
       style="font-style:normal;font-variant:normal;font-weight:normal;font-stretch:normal;font-size:5.47929px;line-height:125%;font-family:Arial;-inkscape-font-specification:Arial;letter-spacing:0px;word-spacing:0px;fill:#000000;fill-opacity:1;stroke:none;stroke-width:0.365286px;stroke-linecap:butt;stroke-linejoin:miter;stroke-opacity:1">
      <path
         d="m 148.35293,85.315318 v 0.46285 h -2.59249 q -0.005,-0.173904 0.0562,-0.33443 0.099,-0.264868 0.3157,-0.521709 0.21939,-0.256842 0.6314,-0.593947 0.63943,-0.524385 0.86417,-0.829385 0.22474,-0.307675 0.22474,-0.580569 0,-0.286271 -0.20601,-0.481578 -0.20334,-0.197982 -0.53241,-0.197982 -0.34781,0 -0.55649,0.208684 -0.20869,0.208684 -0.21136,0.577894 l -0.49496,-0.05083 q 0.0508,-0.553815 0.38259,-0.842762 0.33175,-0.291622 0.89092,-0.291622 0.56451,0 0.89359,0.313026 0.32908,0.313026 0.32908,0.775876 0,0.235438 -0.0963,0.46285 -0.0963,0.227412 -0.32106,0.478903 -0.22206,0.251491 -0.74109,0.690262 -0.43342,0.363859 -0.55649,0.494955 -0.12307,0.128421 -0.20334,0.259518 z"
         style="stroke-width:0.365286px"
         id="path1373" />
      <path
         d="M 150.41302,85.778168 V 84.83909 h -1.70158 v -0.441447 l 1.78987,-2.541662 h 0.39328 v 2.541662 h 0.52974 v 0.441447 h -0.52974 v 0.939078 z m 0,-1.380525 v -1.768462 l -1.22803,1.768462 z"
         style="stroke-width:0.365286px"
         id="path1375" />
    </g>
    <g
       aria-label="25"
       id="text1241-93"
       style="font-style:normal;font-variant:normal;font-weight:normal;font-stretch:normal;font-size:5.47929px;line-height:125%;font-family:Arial;-inkscape-font-specification:Arial;letter-spacing:0px;word-spacing:0px;fill:#000000;fill-opacity:1;stroke:none;stroke-width:0.365286px;stroke-linecap:butt;stroke-linejoin:miter;stroke-opacity:1">
      <path
         d="m 140.31303,151.27671 v 0.46285 h -2.5925 q -0.005,-0.1739 0.0562,-0.33443 0.099,-0.26486 0.3157,-0.52171 0.21938,-0.25684 0.6314,-0.59394 0.63943,-0.52439 0.86417,-0.82939 0.22473,-0.30767 0.22473,-0.58057 0,-0.28627 -0.206,-0.48157 -0.20334,-0.19799 -0.53242,-0.19799 -0.3478,0 -0.55649,0.20869 -0.20868,0.20868 -0.21136,0.57789 l -0.49495,-0.0508 q 0.0508,-0.55382 0.38259,-0.84276 0.33175,-0.29163 0.89092,-0.29163 0.56451,0 0.89359,0.31303 0.32908,0.31302 0.32908,0.77588 0,0.23543 -0.0963,0.46285 -0.0963,0.22741 -0.32105,0.4789 -0.22206,0.25149 -0.74109,0.69026 -0.43342,0.36386 -0.55649,0.49496 -0.12307,0.12842 -0.20334,0.25951 z"
         style="stroke-width:0.365286px"
         id="path1368" />
      <path
         d="m 140.82939,150.7122 0.50566,-0.0428 q 0.0562,0.36921 0.25951,0.55649 0.20601,0.1846 0.49496,0.1846 0.3478,0 0.58859,-0.26219 0.24079,-0.26219 0.24079,-0.69561 0,-0.41202 -0.23276,-0.65013 -0.23009,-0.23812 -0.60465,-0.23812 -0.23276,0 -0.42004,0.10702 -0.18728,0.10434 -0.2943,0.2729 l -0.45215,-0.0589 0.37991,-2.01461 h 1.9504 v 0.46018 h -1.56513 l -0.21136,1.05412 q 0.35316,-0.24614 0.74109,-0.24614 0.51369,0 0.86684,0.35583 0.35316,0.35584 0.35316,0.915 0,0.53241 -0.31035,0.92035 -0.37724,0.47623 -1.03004,0.47623 -0.53509,0 -0.87487,-0.29965 -0.3371,-0.29965 -0.38526,-0.7946 z"
         style="stroke-width:0.365286px"
         id="path1370" />
    </g>
    <g
       aria-label="22"
       id="text1241-8"
       style="font-style:normal;font-variant:normal;font-weight:normal;font-stretch:normal;font-size:5.47929px;line-height:125%;font-family:Arial;-inkscape-font-specification:Arial;letter-spacing:0px;word-spacing:0px;fill:#000000;fill-opacity:1;stroke:none;stroke-width:0.365286px;stroke-linecap:butt;stroke-linejoin:miter;stroke-opacity:1">
      <path
         d="m 77.611683,149.47167 v 0.46285 h -2.592496 q -0.0054,-0.1739 0.05618,-0.33442 0.09899,-0.26487 0.315701,-0.52171 0.219386,-0.25685 0.631403,-0.59395 0.639428,-0.52439 0.864165,-0.82939 0.224736,-0.30767 0.224736,-0.58057 0,-0.28627 -0.206008,-0.48157 -0.203333,-0.19799 -0.532412,-0.19799 -0.347806,0 -0.55649,0.20869 -0.208684,0.20868 -0.211359,0.57789 l -0.494956,-0.0508 q 0.05083,-0.55382 0.382587,-0.84276 0.331754,-0.29163 0.89092,-0.29163 0.564517,0 0.893595,0.31303 0.329079,0.31303 0.329079,0.77588 0,0.23543 -0.09632,0.46285 -0.09631,0.22741 -0.321052,0.4789 -0.222061,0.25149 -0.741095,0.69026 -0.433421,0.36386 -0.556491,0.49496 -0.12307,0.12842 -0.203333,0.25951 z"
         style="stroke-width:0.365286px"
         id="path1363" />
      <path
         d="m 80.659003,149.47167 v 0.46285 h -2.592497 q -0.0054,-0.1739 0.05618,-0.33442 0.09899,-0.26487 0.315701,-0.52171 0.219386,-0.25685 0.631402,-0.59395 0.639429,-0.52439 0.864166,-0.82939 0.224736,-0.30767 0.224736,-0.58057 0,-0.28627 -0.206008,-0.48157 -0.203333,-0.19799 -0.532412,-0.19799 -0.347806,0 -0.55649,0.20869 -0.208684,0.20868 -0.211359,0.57789 l -0.494956,-0.0508 q 0.05083,-0.55382 0.382587,-0.84276 0.331754,-0.29163 0.89092,-0.29163 0.564517,0 0.893595,0.31303 0.329079,0.31303 0.329079,0.77588 0,0.23543 -0.09632,0.46285 -0.09632,0.22741 -0.321052,0.4789 -0.222061,0.25149 -0.741095,0.69026 -0.433421,0.36386 -0.556491,0.49496 -0.12307,0.12842 -0.203333,0.25951 z"
         style="stroke-width:0.365286px"
         id="path1365" />
    </g>
    <g
       id="g1356"
       transform="matrix(0.31406825,0,0,0.31406825,195.76458,120.783)"
       style="fill:#b3b3b3;stroke:#000000;stroke-width:1.63659;stroke-miterlimit:4;stroke-dasharray:none">
      <path
         style="fill:#b3b3b3;stroke:#000000;stroke-width:1.63659;stroke-miterlimit:4;stroke-dasharray:none"
         d="m -124.00605,96.808535 c 1.02955,-0.522944 2.27264,-2.070346 2.57992,-3.21147 0.16492,-0.612473 0.25468,-1.913162 0.19946,-2.890414 -0.085,-1.503802 -0.22486,-1.931572 -0.91039,-2.783925 -1.06676,-1.326374 -2.04365,-1.792517 -3.76612,-1.797092 -1.38194,-0.0037 -1.45013,0.03243 -2.77812,1.470824 -0.74878,0.811019 -2.30327,3.073207 -3.45443,5.027083 -1.15116,1.953874 -2.27094,3.760859 -2.4884,4.01552 -0.37461,0.438687 -0.12116,0.463021 4.82239,0.463021 3.29807,0 5.4304,-0.108 5.79569,-0.293547 z"
         id="path1347" />
      <path
         style="fill:#b3b3b3;stroke:#000000;stroke-width:1.63659;stroke-miterlimit:4;stroke-dasharray:none"
         d="m -144.77118,96.892315 c -0.26997,-0.642131 -3.72252,-6.199031 -4.8507,-7.807235 -2.02912,-2.89248 -3.38619,-3.55447 -5.62318,-2.743036 -3.79463,1.376448 -4.29831,7.979878 -0.76999,10.094785 1.07258,0.642917 1.23581,0.660318 6.21678,0.662755 2.81341,0.0013 5.07559,-0.09189 5.02709,-0.207269 z"
         id="path1345" />
      <path
         style="fill:#b3b3b3;stroke:#000000;stroke-width:1.63659;stroke-miterlimit:4;stroke-dasharray:none"
         d="m -156.46545,100.92317 c -0.56252,-0.20623 -1.13101,-0.30805 -1.26333,-0.22627 -0.13232,0.0818 -0.20787,0.029 -0.16788,-0.11729 0.04,-0.14629 -0.29695,-0.5421 -0.74874,-0.879566 -4.83841,-3.614092 -5.43616,-11.573073 -1.16513,-15.513332 1.20332,-1.110123 3.87365,-2.219 5.69591,-2.365272 1.46929,-0.117941 1.8917,-0.04065 3.15463,0.577249 1.69904,0.83126 3.32922,2.575452 5.0872,5.442982 3.65706,5.965203 5.03294,7.672916 6.18199,7.672916 0.79175,0 2.33982,-1.715622 4.06048,-4.499961 4.64639,-7.51867 6.46908,-9.259544 9.68865,-9.253754 1.35003,0.0024 3.54034,0.642844 4.87628,1.425754 3.279,1.921624 5.04271,6.438207 4.0407,10.34765 -0.22321,0.87089 -0.44561,1.76203 -0.49422,1.980311 -0.0486,0.218281 -0.1542,0.456406 -0.23464,0.529167 -0.0804,0.07276 -0.41438,0.573593 -0.74207,1.112962 -0.93427,1.537761 -2.99934,3.235654 -4.54091,3.733534 -1.23044,0.39738 -3.04379,0.44317 -16.89229,0.42653 -12.69469,-0.0153 -15.69974,-0.0868 -16.53663,-0.39361 z"
         id="path1343" />
      <path
         style="fill:#b3b3b3;stroke:#000000;stroke-width:1.63659;stroke-miterlimit:4;stroke-dasharray:none"
         d="m -137.31878,114.63073 -2e-5,-10.2526 15.48741,0.0618 c 10.15627,0.0405 15.66543,0.15707 16.00458,0.33858 0.67905,0.36341 1.24437,1.48912 1.32698,2.64234 0.0365,0.50932 0.049,4.24193 0.0279,8.29468 l -0.0385,7.36865 -0.89958,0.89958 -0.89959,0.89959 h -15.50458 -15.50458 z"
         id="path1341" />
      <path
         style="fill:#b3b3b3;stroke:#000000;stroke-width:1.63659;stroke-miterlimit:4;stroke-dasharray:none"
         d="m -174.03358,123.97796 -0.9883,-0.90538 -0.0771,-8.08243 c -0.0659,-6.91401 -0.0173,-8.19798 0.33623,-8.88171 0.86412,-1.67104 0.12964,-1.60181 17.09429,-1.61109 l 15.4549,-0.008 0.0692,10.19722 0.0693,10.19722 h -15.48511 -15.48512 l -0.98831,-0.90538 z"
         id="path1339" />
      <path
         style="fill:#b3b3b3;stroke:#000000;stroke-width:1.63659;stroke-miterlimit:4;stroke-dasharray:none"
         d="m -170.91852,159.85135 c -0.50163,-0.50163 -0.80584,-1.13813 -0.9168,-1.91823 -0.0913,-0.64212 -0.1313,-7.71593 -0.0888,-15.71958 l 0.0772,-14.55208 14.88282,-0.0684 14.88281,-0.0683 v 16.53866 16.53866 h -14.04327 -14.04327 z"
         id="path1337" />
      <path
         style="fill:#b3b3b3;stroke:#000000;stroke-width:1.63659;stroke-miterlimit:4;stroke-dasharray:none"
         d="m -137.31881,144.13177 6e-5,-16.6026 h 14.81666 14.81667 v 15.60121 15.60121 l -0.81716,0.93069 -0.81716,0.9307 -13.99956,0.0707 -13.99957,0.0707 z"
         id="path1335" />
    </g>
    <path
       style="fill:#000000;stroke-width:0.264583"
       d="m -185.50667,195.85781 c -0.3291,-0.41964 -0.31975,-0.429 0.0999,-0.0999 0.25466,0.19972 0.46302,0.40808 0.46302,0.46302 0,0.21776 -0.21727,0.0776 -0.56292,-0.36313 z"
       id="path1333" />
  </g>
</svg>
